<?xml version="1.0" encoding="us-ascii" standalone="no"?><svg xmlns="http://www.w3.org/2000/svg" xmlns:xlink="http://www.w3.org/1999/xlink" contentStyleType="text/css" height="975px" preserveAspectRatio="none" style="width:471px;height:975px;" version="1.1" viewBox="0 0 471 975" width="471.875px" zoomAndPan="magnify"><defs/><g><rect fill="none" height="46.873" id="_title" rx="4.1667" ry="4.1667" style="stroke:#BABDBF;stroke-width:1.0416666666666667;" width="295.8333" x="92.7083" y="20.8333"/><text fill="#2FA4E7" font-family="Arial" font-size="20.8333" font-weight="bold" lengthAdjust="spacing" textLength="272.9167" x="104.1667" y="51.8331">User Registration Use Case</text><line style="stroke:#BABDBF;stroke-width:1.0416666666666667;stroke-dasharray:5.0,5.0;" x1="37.5" x2="37.5" y1="167.4967" y2="877.476"/><line style="stroke:#BABDBF;stroke-width:1.0416666666666667;stroke-dasharray:5.0,5.0;" x1="270.8333" x2="270.8333" y1="167.4967" y2="877.476"/><text fill="#2FA4E7" font-family="Arial" font-size="12.5" lengthAdjust="spacing" textLength="27.0833" x="20.8333" y="159.6395">User</text><ellipse cx="37.5" cy="88.5396" fill="none" rx="8.3333" ry="8.3333" style="stroke:#2FA4E7;stroke-width:1.0416666666666667;"/><path d="M37.5,96.873 L37.5,124.998 M23.9583,105.2063 L51.0417,105.2063 M37.5,124.998 L23.9583,140.623 M37.5,124.998 L51.0417,140.623 " fill="none" style="stroke:#2FA4E7;stroke-width:1.0416666666666667;"/><text fill="#2FA4E7" font-family="Arial" font-size="12.5" lengthAdjust="spacing" textLength="27.0833" x="20.8333" y="893.3675">User</text><ellipse cx="37.5" cy="910.5998" fill="none" rx="8.3333" ry="8.3333" style="stroke:#2FA4E7;stroke-width:1.0416666666666667;"/><path d="M37.5,918.9331 L37.5,947.0581 M23.9583,927.2664 L51.0417,927.2664 M37.5,947.0581 L23.9583,962.6831 M37.5,947.0581 L51.0417,962.6831 " fill="none" style="stroke:#2FA4E7;stroke-width:1.0416666666666667;"/><rect fill="none" height="39.3738" rx="4.1667" ry="4.1667" style="stroke:#2FA4E7;stroke-width:1.0416666666666667;" width="114.5833" x="213.5417" y="127.0813"/><text fill="#2FA4E7" font-family="Arial" font-size="12.5" lengthAdjust="spacing" textLength="89.5833" x="226.0417" y="151.3062">FreEcu Website</text><rect fill="none" height="39.3738" rx="4.1667" ry="4.1667" style="stroke:#2FA4E7;stroke-width:1.0416666666666667;" width="114.5833" x="213.5417" y="876.4343"/><text fill="#2FA4E7" font-family="Arial" font-size="12.5" lengthAdjust="spacing" textLength="89.5833" x="226.0417" y="900.6592">FreEcu Website</text><polygon fill="#2FA4E7" points="258.3333,204.7872,268.75,208.9539,258.3333,213.1205,262.5,208.9539" style="stroke:#2FA4E7;stroke-width:1.0416666666666667;"/><line style="stroke:#2FA4E7;stroke-width:3.125;" x1="37.5" x2="264.5833" y1="208.9539" y2="208.9539"/><text fill="#343A40" font-family="Arial" font-size="12.5" lengthAdjust="spacing" textLength="197.9167" x="50" y="199.0133">Navigate to website's landing page</text><line style="stroke:#2FA4E7;stroke-width:3.125;" x1="270.8333" x2="314.5833" y1="248.3276" y2="248.3276"/><line style="stroke:#2FA4E7;stroke-width:3.125;" x1="314.5833" x2="314.5833" y1="248.3276" y2="261.8693"/><line style="stroke:#2FA4E7;stroke-width:3.125;" x1="271.875" x2="314.5833" y1="261.8693" y2="261.8693"/><polygon fill="#2FA4E7" points="282.2917,257.7026,271.875,261.8693,282.2917,266.036,278.125,261.8693" style="stroke:#2FA4E7;stroke-width:1.0416666666666667;"/><text fill="#343A40" font-family="Arial" font-size="12.5" lengthAdjust="spacing" textLength="120.8333" x="283.3333" y="238.387">Display landing page</text><polygon fill="#2FA4E7" points="258.3333,297.0764,268.75,301.2431,258.3333,305.4097,262.5,301.2431" style="stroke:#2FA4E7;stroke-width:1.0416666666666667;"/><line style="stroke:#2FA4E7;stroke-width:3.125;" x1="37.5" x2="264.5833" y1="301.2431" y2="301.2431"/><text fill="#343A40" font-family="Arial" font-size="12.5" lengthAdjust="spacing" textLength="133.3333" x="50" y="291.3025">Click on Sign Up button</text><line style="stroke:#2FA4E7;stroke-width:3.125;" x1="270.8333" x2="314.5833" y1="340.6169" y2="340.6169"/><line style="stroke:#2FA4E7;stroke-width:3.125;" x1="314.5833" x2="314.5833" y1="340.6169" y2="354.1585"/><line style="stroke:#2FA4E7;stroke-width:3.125;" x1="271.875" x2="314.5833" y1="354.1585" y2="354.1585"/><polygon fill="#2FA4E7" points="282.2917,349.9919,271.875,354.1585,282.2917,358.3252,278.125,354.1585" style="stroke:#2FA4E7;stroke-width:1.0416666666666667;"/><text fill="#343A40" font-family="Arial" font-size="12.5" lengthAdjust="spacing" textLength="119.7917" x="283.3333" y="330.6763">Display Sign Up form</text><polygon fill="#2FA4E7" points="258.3333,389.3656,268.75,393.5323,258.3333,397.699,262.5,393.5323" style="stroke:#2FA4E7;stroke-width:1.0416666666666667;"/><line style="stroke:#2FA4E7;stroke-width:3.125;" x1="37.5" x2="264.5833" y1="393.5323" y2="393.5323"/><text fill="#343A40" font-family="Arial" font-size="12.5" lengthAdjust="spacing" textLength="114.5833" x="50" y="383.5917">Fill out Sign Up form</text><line style="stroke:#2FA4E7;stroke-width:3.125;" x1="270.8333" x2="314.5833" y1="432.9061" y2="432.9061"/><line style="stroke:#2FA4E7;stroke-width:3.125;" x1="314.5833" x2="314.5833" y1="432.9061" y2="446.4478"/><line style="stroke:#2FA4E7;stroke-width:3.125;" x1="271.875" x2="314.5833" y1="446.4478" y2="446.4478"/><polygon fill="#2FA4E7" points="282.2917,442.2811,271.875,446.4478,282.2917,450.6144,278.125,446.4478" style="stroke:#2FA4E7;stroke-width:1.0416666666666667;"/><text fill="#343A40" font-family="Arial" font-size="12.5" lengthAdjust="spacing" textLength="106.25" x="283.3333" y="422.9655">Validate form input</text><polygon fill="#2FA4E7" points="48.9583,496.0286,38.5417,500.1953,48.9583,504.362,44.7917,500.1953" style="stroke:#2FA4E7;stroke-width:1.0416666666666667;"/><line style="stroke:#2FA4E7;stroke-width:3.125;" x1="42.7083" x2="269.7917" y1="500.1953" y2="500.1953"/><text fill="#343A40" font-family="Arial" font-size="12.5" lengthAdjust="spacing" textLength="129.1667" x="60.4167" y="475.8809">Send verification email</text><text fill="#343A40" font-family="Arial" font-size="12.5" lengthAdjust="spacing" textLength="118.75" x="60.4167" y="490.2547">with confirmation link</text><line style="stroke:#2FA4E7;stroke-width:3.125;" x1="270.8333" x2="314.5833" y1="539.5691" y2="539.5691"/><line style="stroke:#2FA4E7;stroke-width:3.125;" x1="314.5833" x2="314.5833" y1="539.5691" y2="553.1108"/><line style="stroke:#2FA4E7;stroke-width:3.125;" x1="271.875" x2="314.5833" y1="553.1108" y2="553.1108"/><polygon fill="#2FA4E7" points="282.2917,548.9441,271.875,553.1108,282.2917,557.2774,278.125,553.1108" style="stroke:#2FA4E7;stroke-width:1.0416666666666667;"/><text fill="#343A40" font-family="Arial" font-size="12.5" lengthAdjust="spacing" textLength="176.0417" x="283.3333" y="529.6285">Display /complete-signup page</text><line style="stroke:#2FA4E7;stroke-width:3.125;" x1="37.5" x2="81.25" y1="592.4845" y2="592.4845"/><line style="stroke:#2FA4E7;stroke-width:3.125;" x1="81.25" x2="81.25" y1="592.4845" y2="606.0262"/><line style="stroke:#2FA4E7;stroke-width:3.125;" x1="38.5417" x2="81.25" y1="606.0262" y2="606.0262"/><polygon fill="#2FA4E7" points="48.9583,601.8595,38.5417,606.0262,48.9583,610.1929,44.7917,606.0262" style="stroke:#2FA4E7;stroke-width:1.0416666666666667;"/><text fill="#343A40" font-family="Arial" font-size="12.5" lengthAdjust="spacing" textLength="105.2083" x="50" y="582.5439">Check email inbox</text><polygon fill="#2FA4E7" points="258.3333,641.2333,268.75,645.4,258.3333,649.5667,262.5,645.4" style="stroke:#2FA4E7;stroke-width:1.0416666666666667;"/><line style="stroke:#2FA4E7;stroke-width:3.125;" x1="37.5" x2="264.5833" y1="645.4" y2="645.4"/><text fill="#343A40" font-family="Arial" font-size="12.5" lengthAdjust="spacing" textLength="141.6667" x="50" y="635.4594">Click on confirmation link</text><line style="stroke:#2FA4E7;stroke-width:3.125;" x1="270.8333" x2="314.5833" y1="684.7738" y2="684.7738"/><line style="stroke:#2FA4E7;stroke-width:3.125;" x1="314.5833" x2="314.5833" y1="684.7738" y2="698.3154"/><line style="stroke:#2FA4E7;stroke-width:3.125;" x1="271.875" x2="314.5833" y1="698.3154" y2="698.3154"/><polygon fill="#2FA4E7" points="282.2917,694.1488,271.875,698.3154,282.2917,702.4821,278.125,698.3154" style="stroke:#2FA4E7;stroke-width:1.0416666666666667;"/><text fill="#343A40" font-family="Arial" font-size="12.5" lengthAdjust="spacing" textLength="150" x="283.3333" y="674.8332">Wait for email confirmation</text><polygon fill="#2FA4E7" points="258.3333,733.5225,268.75,737.6892,258.3333,741.8559,262.5,737.6892" style="stroke:#2FA4E7;stroke-width:1.0416666666666667;"/><line style="stroke:#2FA4E7;stroke-width:3.125;" x1="37.5" x2="264.5833" y1="737.6892" y2="737.6892"/><text fill="#343A40" font-family="Arial" font-size="12.5" lengthAdjust="spacing" textLength="137.5" x="50" y="727.7486">Complete account setup</text><line style="stroke:#2FA4E7;stroke-width:3.125;" x1="270.8333" x2="314.5833" y1="791.4368" y2="791.4368"/><line style="stroke:#2FA4E7;stroke-width:3.125;" x1="314.5833" x2="314.5833" y1="791.4368" y2="804.9784"/><line style="stroke:#2FA4E7;stroke-width:3.125;" x1="271.875" x2="314.5833" y1="804.9784" y2="804.9784"/><polygon fill="#2FA4E7" points="282.2917,800.8118,271.875,804.9784,282.2917,809.1451,278.125,804.9784" style="stroke:#2FA4E7;stroke-width:1.0416666666666667;"/><text fill="#343A40" font-family="Arial" font-size="12.5" lengthAdjust="spacing" textLength="117.7083" x="283.3333" y="767.1224">Update user account</text><text fill="#343A40" font-family="Arial" font-size="12.5" lengthAdjust="spacing" textLength="60.4167" x="283.3333" y="781.4962">and profile</text><polygon fill="#2FA4E7" points="48.9583,854.5593,38.5417,858.726,48.9583,862.8927,44.7917,858.726" style="stroke:#2FA4E7;stroke-width:1.0416666666666667;"/><line style="stroke:#2FA4E7;stroke-width:3.125;" x1="42.7083" x2="269.7917" y1="858.726" y2="858.726"/><text fill="#343A40" font-family="Arial" font-size="12.5" lengthAdjust="spacing" textLength="170.8333" x="60.4167" y="834.4116">Display confirmation message</text><text fill="#343A40" font-family="Arial" font-size="12.5" lengthAdjust="spacing" textLength="134.375" x="60.4167" y="848.7854">and account dashboard</text><!--SRC=[VP4nRy8m48Lt_uehIoVKdQ5IIs5a0AKiB1VdafnmRCi-G_llwn3I9XBg5kK-ltlltPEqr15e2iaGsgLBOjYIYcUs7WDsK56DoSZMMTbXHjy2er72OWYAI07sr72KWCBEzdzWZP6KGYqk30H6A5HM4zRiqGeije4sEi6HoiX2YvuuRjwLAc3vsd-jO8SNRb08nC5rm9uZ6BGLsmOyDgGozuj_SFG6l-V0dzhQi3v3zdVW9flqK2OHPnzAZ4ZjGZUHsB8naEkPpwS2dsYuwYtt4yZz9HddnGeEP2kuKE2QzT0LTSZcPAyiBMXdQmxTCCWNE3-qzg9Tvmq9BMCsaVmaPjwmRYc7lAdcxQNxUbJ0_ukEoDBRlwjCuQdOtGMWrYxbUqQIv6T2XRyraMxd7wYJpRS17rpDXYR5ZE5cpZgACMSRtenhAenjwJ1KFm00]--></g></svg>