<?xml version="1.0" encoding="us-ascii" standalone="no"?><svg xmlns="http://www.w3.org/2000/svg" xmlns:xlink="http://www.w3.org/1999/xlink" contentStyleType="text/css" height="434.375px" preserveAspectRatio="none" style="width:728px;height:434px;" version="1.1" viewBox="0 0 728 434" width="728.125px" zoomAndPan="magnify"><defs/><g><rect fill="none" height="46.873" id="_title" rx="4.1667" ry="4.1667" style="stroke:#BABDBF;stroke-width:1.0416666666666667;" width="198.9583" x="259.8958" y="20.8333"/><text fill="#2FA4E7" font-family="Arial" font-size="20.8333" font-weight="bold" lengthAdjust="spacing" textLength="176.0417" x="271.3542" y="51.8331">Storage Structure</text><!--cluster Firestore Cloud Storage--><g id="cluster_Firestore Cloud Storage"><path d="M20.8333,85.4146 L170.8333,85.4146 A6.25,6.25 0 0 1 175,89.5813 L182.2917,116.4551 L711.4583,116.4551 A4.1667,4.1667 0 0 1 715.625,120.6217 L715.625,418.5396 A4.1667,4.1667 0 0 1 711.4583,422.7063 L20.8333,422.7063 A4.1667,4.1667 0 0 1 16.6667,418.5396 L16.6667,89.5813 A4.1667,4.1667 0 0 1 20.8333,85.4146 " fill="none" style="stroke:#2FA4E7;stroke-width:2.0833333333333335;"/><line style="stroke:#2FA4E7;stroke-width:2.0833333333333335;" x1="16.6667" x2="182.2917" y1="116.4551" y2="116.4551"/><text fill="#2FA4E7" font-family="Arial" font-size="12.5" font-weight="bold" lengthAdjust="spacing" textLength="141.6667" x="26.0417" y="104.4312">Firestore Cloud Storage</text></g><!--cluster users--><g id="cluster_users"><path d="M45.8333,189.5813 L88.5417,189.5813 A6.25,6.25 0 0 1 92.7083,193.748 L100,220.6217 L451.0417,220.6217 A4.1667,4.1667 0 0 1 455.2083,224.7884 L455.2083,368.5396 A4.1667,4.1667 0 0 1 451.0417,372.7063 L45.8333,372.7063 A4.1667,4.1667 0 0 1 41.6667,368.5396 L41.6667,193.748 A4.1667,4.1667 0 0 1 45.8333,189.5813 " fill="none" style="stroke:#DD5600;stroke-width:2.0833333333333335;"/><line style="stroke:#DD5600;stroke-width:2.0833333333333335;" x1="41.6667" x2="100" y1="220.6217" y2="220.6217"/><text fill="#DD5600" font-family="Arial" font-size="12.5" font-weight="bold" lengthAdjust="spacing" textLength="34.375" x="51.0417" y="208.5978">users</text></g><!--cluster avatars--><g id="cluster_avatars"><path d="M70.8333,241.6646 L125,241.6646 A6.25,6.25 0 0 1 129.1667,245.8313 L136.4583,272.7051 L426.0417,272.7051 A4.1667,4.1667 0 0 1 430.2083,276.8717 L430.2083,343.5396 A4.1667,4.1667 0 0 1 426.0417,347.7063 L70.8333,347.7063 A4.1667,4.1667 0 0 1 66.6667,343.5396 L66.6667,245.8313 A4.1667,4.1667 0 0 1 70.8333,241.6646 " fill="none" style="stroke:#DD5600;stroke-width:2.0833333333333335;"/><line style="stroke:#DD5600;stroke-width:2.0833333333333335;" x1="66.6667" x2="136.4583" y1="272.7051" y2="272.7051"/><text fill="#DD5600" font-family="Arial" font-size="12.5" font-weight="bold" lengthAdjust="spacing" textLength="45.8333" x="76.0417" y="260.6812">avatars</text></g><!--cluster messages--><g id="cluster_messages"><path d="M484.375,137.498 L555.2083,137.498 A6.25,6.25 0 0 1 559.375,141.6646 L566.6667,168.5384 L686.4583,168.5384 A4.1667,4.1667 0 0 1 690.625,172.7051 L690.625,393.5396 A4.1667,4.1667 0 0 1 686.4583,397.7063 L484.375,397.7063 A4.1667,4.1667 0 0 1 480.2083,393.5396 L480.2083,141.6646 A4.1667,4.1667 0 0 1 484.375,137.498 " fill="none" style="stroke:#DD5600;stroke-width:2.0833333333333335;"/><line style="stroke:#DD5600;stroke-width:2.0833333333333335;" x1="480.2083" x2="566.6667" y1="168.5384" y2="168.5384"/><text fill="#DD5600" font-family="Arial" font-size="12.5" font-weight="bold" lengthAdjust="spacing" textLength="62.5" x="489.5833" y="156.5145">messages</text></g><!--cluster files--><g id="cluster_files"><path d="M509.375,189.5813 L542.7083,189.5813 A6.25,6.25 0 0 1 546.875,193.748 L554.1667,220.6217 L661.4583,220.6217 A4.1667,4.1667 0 0 1 665.625,224.7884 L665.625,368.5396 A4.1667,4.1667 0 0 1 661.4583,372.7063 L509.375,372.7063 A4.1667,4.1667 0 0 1 505.2083,368.5396 L505.2083,193.748 A4.1667,4.1667 0 0 1 509.375,189.5813 " fill="none" style="stroke:#DD5600;stroke-width:2.0833333333333335;"/><line style="stroke:#DD5600;stroke-width:2.0833333333333335;" x1="505.2083" x2="554.1667" y1="220.6217" y2="220.6217"/><text fill="#DD5600" font-family="Arial" font-size="12.5" font-weight="bold" lengthAdjust="spacing" textLength="25" x="514.5833" y="208.5978">files</text></g><!--cluster {userUid}--><g id="cluster_{userUid}"><path d="M534.375,241.6646 L600,241.6646 A6.25,6.25 0 0 1 604.1667,245.8313 L611.4583,272.7051 L636.4583,272.7051 A4.1667,4.1667 0 0 1 640.625,276.8717 L640.625,343.5396 A4.1667,4.1667 0 0 1 636.4583,347.7063 L534.375,347.7063 A4.1667,4.1667 0 0 1 530.2083,343.5396 L530.2083,245.8313 A4.1667,4.1667 0 0 1 534.375,241.6646 " fill="none" style="stroke:#DD5600;stroke-width:2.0833333333333335;"/><line style="stroke:#DD5600;stroke-width:2.0833333333333335;" x1="530.2083" x2="611.4583" y1="272.7051" y2="272.7051"/><text fill="#DD5600" font-family="Arial" font-size="12.5" font-weight="bold" lengthAdjust="spacing" textLength="57.2917" x="539.5833" y="260.6812">{userUid}</text></g><!--entity userAvatar--><g id="elem_userAvatar"><path d="M83.3333,289.5813 L83.3333,326.8717 A4.1667,4.1667 0 0 0 87.5,331.0384 L197.9167,331.0384 A4.1667,4.1667 0 0 0 202.0833,326.8717 L202.0833,295.8313 L191.6667,285.4146 L87.5,285.4146 A4.1667,4.1667 0 0 0 83.3333,289.5813 " fill="none" style="stroke:#868E96;stroke-width:1.0416666666666667;"/><path d="M191.6667,285.4146 L191.6667,291.6646 A4.1667,4.1667 0 0 0 195.8333,295.8313 L202.0833,295.8313 " fill="none" style="stroke:#868E96;stroke-width:1.0416666666666667;"/><text fill="#868E96" font-family="Arial" font-size="12.5" lengthAdjust="spacing" textLength="87.5" x="98.9583" y="312.7645">{userUid}.webp</text></g><!--entity userAvatarThumbnail--><g id="elem_userAvatarThumbnail"><path d="M238.0208,289.5813 L238.0208,326.8717 A4.1667,4.1667 0 0 0 242.1875,331.0384 L409.8958,331.0384 A4.1667,4.1667 0 0 0 414.0625,326.8717 L414.0625,295.8313 L403.6458,285.4146 L242.1875,285.4146 A4.1667,4.1667 0 0 0 238.0208,289.5813 " fill="none" style="stroke:#868E96;stroke-width:1.0416666666666667;"/><path d="M403.6458,285.4146 L403.6458,291.6646 A4.1667,4.1667 0 0 0 407.8125,295.8313 L414.0625,295.8313 " fill="none" style="stroke:#868E96;stroke-width:1.0416666666666667;"/><text fill="#868E96" font-family="Arial" font-size="12.5" lengthAdjust="spacing" textLength="144.7917" x="253.6458" y="312.7645">{userUid}_200x200.webp</text></g><!--entity userFile--><g id="elem_userFile"><path d="M547.3958,289.5813 L547.3958,326.8717 A4.1667,4.1667 0 0 0 551.5625,331.0384 L619.2708,331.0384 A4.1667,4.1667 0 0 0 623.4375,326.8717 L623.4375,295.8313 L613.0208,285.4146 L551.5625,285.4146 A4.1667,4.1667 0 0 0 547.3958,289.5813 " fill="none" style="stroke:#868E96;stroke-width:1.0416666666666667;"/><path d="M613.0208,285.4146 L613.0208,291.6646 A4.1667,4.1667 0 0 0 617.1875,295.8313 L623.4375,295.8313 " fill="none" style="stroke:#868E96;stroke-width:1.0416666666666667;"/><text fill="#868E96" font-family="Arial" font-size="12.5" lengthAdjust="spacing" textLength="44.7917" x="563.0208" y="312.7645">{fileUid}</text></g><!--SRC=[VO_12i8m38RlVOhOkoA-WGWxUb7FacrHYrqxqbG5sRlRwXIdOg0D_F-Vvkj83jGGLCJH4hgnZsAD8nMEnhN8s41DEunM2kzaYIawPuDMYH5Bi1BFkC-TOoMHIQaMgsEMT66OGl895jR7-fdLS5KAKksyhOb1nq0SiWfzFGqyeU3GkjicBTRNFBOnTJSvKzbgm01PcTzd_kMti-dqaiwlkVKXDgL3OryFTEfn3uWR2Y7zv2TqtlQDt9ilYC_06sTkZqYFLYHX4Ew-wJfr0m00]--></g></svg>