<?xml version="1.0" encoding="us-ascii" standalone="no"?><svg xmlns="http://www.w3.org/2000/svg" xmlns:xlink="http://www.w3.org/1999/xlink" contentStyleType="text/css" height="1413.5417px" preserveAspectRatio="none" style="width:856px;height:1413px;background:#FFFFFF;" version="1.1" viewBox="0 0 856 1413" width="856.25px" zoomAndPan="magnify"><defs/><g><rect fill="none" height="46.873" id="_title" rx="4.1667" ry="4.1667" style="stroke:#BABDBF;stroke-width:1.0416666666666667;" width="278.125" x="292.7083" y="20.8333"/><text fill="#2FA4E7" font-family="Arial" font-size="20.8333" font-weight="bold" lengthAdjust="spacing" textLength="255.2083" x="304.1667" y="51.8331">Create Contract Use Case</text><rect fill="none" height="917.0492" rx="4.1667" ry="4.1667" style="stroke:#2FA4E7;stroke-width:1.0416666666666667;" width="822.9167" x="20.8333" y="382.074"/><rect fill="none" height="563.9364" rx="4.1667" ry="4.1667" style="stroke:#2FA4E7;stroke-width:1.0416666666666667;" width="758.3333" x="75" y="622.2738"/><rect fill="none" height="220.4081" rx="4.1667" ry="4.1667" style="stroke:#2FA4E7;stroke-width:1.0416666666666667;" width="666.6667" x="85.4167" y="958.5103"/><line style="stroke:#BABDBF;stroke-width:1.0416666666666667;stroke-dasharray:5.0,5.0;" x1="58.3333" x2="58.3333" y1="167.4967" y2="1316.8315"/><line style="stroke:#BABDBF;stroke-width:1.0416666666666667;stroke-dasharray:5.0,5.0;" x1="122.9167" x2="122.9167" y1="167.4967" y2="1316.8315"/><line style="stroke:#BABDBF;stroke-width:1.0416666666666667;stroke-dasharray:5.0,5.0;" x1="350.5208" x2="350.5208" y1="167.4967" y2="1316.8315"/><line style="stroke:#BABDBF;stroke-width:1.0416666666666667;stroke-dasharray:5.0,5.0;" x1="613.5417" x2="613.5417" y1="167.4967" y2="1316.8315"/><text fill="#2FA4E7" font-family="Arial" font-size="12.5" lengthAdjust="spacing" textLength="37.5" x="36.4583" y="159.6395">User 1</text><ellipse cx="58.3333" cy="88.5396" fill="none" rx="8.3333" ry="8.3333" style="stroke:#2FA4E7;stroke-width:1.0416666666666667;"/><path d="M58.3333,96.873 L58.3333,124.998 M44.7917,105.2063 L71.875,105.2063 M58.3333,124.998 L44.7917,140.623 M58.3333,124.998 L71.875,140.623 " fill="none" style="stroke:#2FA4E7;stroke-width:1.0416666666666667;"/><text fill="#2FA4E7" font-family="Arial" font-size="12.5" lengthAdjust="spacing" textLength="37.5" x="36.4583" y="1332.723">User 1</text><ellipse cx="58.3333" cy="1349.9552" fill="none" rx="8.3333" ry="8.3333" style="stroke:#2FA4E7;stroke-width:1.0416666666666667;"/><path d="M58.3333,1358.2886 L58.3333,1386.4136 M44.7917,1366.6219 L71.875,1366.6219 M58.3333,1386.4136 L44.7917,1402.0386 M58.3333,1386.4136 L71.875,1402.0386 " fill="none" style="stroke:#2FA4E7;stroke-width:1.0416666666666667;"/><text fill="#2FA4E7" font-family="Arial" font-size="12.5" lengthAdjust="spacing" textLength="37.5" x="101.0417" y="159.6395">User 2</text><ellipse cx="122.9167" cy="88.5396" fill="none" rx="8.3333" ry="8.3333" style="stroke:#2FA4E7;stroke-width:1.0416666666666667;"/><path d="M122.9167,96.873 L122.9167,124.998 M109.375,105.2063 L136.4583,105.2063 M122.9167,124.998 L109.375,140.623 M122.9167,124.998 L136.4583,140.623 " fill="none" style="stroke:#2FA4E7;stroke-width:1.0416666666666667;"/><text fill="#2FA4E7" font-family="Arial" font-size="12.5" lengthAdjust="spacing" textLength="37.5" x="101.0417" y="1332.723">User 2</text><ellipse cx="122.9167" cy="1349.9552" fill="none" rx="8.3333" ry="8.3333" style="stroke:#2FA4E7;stroke-width:1.0416666666666667;"/><path d="M122.9167,1358.2886 L122.9167,1386.4136 M109.375,1366.6219 L136.4583,1366.6219 M122.9167,1386.4136 L109.375,1402.0386 M122.9167,1386.4136 L136.4583,1402.0386 " fill="none" style="stroke:#2FA4E7;stroke-width:1.0416666666666667;"/><rect fill="none" height="39.3738" rx="4.1667" ry="4.1667" style="stroke:#2FA4E7;stroke-width:1.0416666666666667;" width="132.2917" x="284.8958" y="127.0813"/><text fill="#2FA4E7" font-family="Arial" font-size="12.5" lengthAdjust="spacing" textLength="107.2917" x="297.3958" y="151.3062">Messaging System</text><rect fill="none" height="39.3738" rx="4.1667" ry="4.1667" style="stroke:#2FA4E7;stroke-width:1.0416666666666667;" width="132.2917" x="284.8958" y="1315.7898"/><text fill="#2FA4E7" font-family="Arial" font-size="12.5" lengthAdjust="spacing" textLength="107.2917" x="297.3958" y="1340.0146">Messaging System</text><rect fill="none" height="39.3738" rx="4.1667" ry="4.1667" style="stroke:#2FA4E7;stroke-width:1.0416666666666667;" width="172.9167" x="527.0833" y="127.0813"/><text fill="#2FA4E7" font-family="Arial" font-size="12.5" lengthAdjust="spacing" textLength="147.9167" x="539.5833" y="151.3062">Contract Proposal Module</text><rect fill="none" height="39.3738" rx="4.1667" ry="4.1667" style="stroke:#2FA4E7;stroke-width:1.0416666666666667;" width="172.9167" x="527.0833" y="1315.7898"/><text fill="#2FA4E7" font-family="Arial" font-size="12.5" lengthAdjust="spacing" textLength="147.9167" x="539.5833" y="1340.0146">Contract Proposal Module</text><polygon fill="#2FA4E7" points="338.5417,204.7872,348.9583,208.9539,338.5417,213.1205,342.7083,208.9539" style="stroke:#2FA4E7;stroke-width:1.0416666666666667;"/><line style="stroke:#2FA4E7;stroke-width:3.125;" x1="58.3333" x2="344.7917" y1="208.9539" y2="208.9539"/><text fill="#343A40" font-family="Arial" font-size="12.5" lengthAdjust="spacing" textLength="129.1667" x="70.8333" y="199.0133">Select chat with User 2</text><polygon fill="#2FA4E7" points="338.5417,244.161,348.9583,248.3276,338.5417,252.4943,342.7083,248.3276" style="stroke:#2FA4E7;stroke-width:1.0416666666666667;"/><line style="stroke:#2FA4E7;stroke-width:3.125;" x1="58.3333" x2="344.7917" y1="248.3276" y2="248.3276"/><text fill="#343A40" font-family="Arial" font-size="12.5" lengthAdjust="spacing" textLength="152.0833" x="70.8333" y="238.387">Click on 'Propose Contract'</text><polygon fill="#2FA4E7" points="601.0417,283.5347,611.4583,287.7014,601.0417,291.8681,605.2083,287.7014" style="stroke:#2FA4E7;stroke-width:1.0416666666666667;"/><line style="stroke:#2FA4E7;stroke-width:3.125;" x1="351.0417" x2="607.2917" y1="287.7014" y2="287.7014"/><text fill="#343A40" font-family="Arial" font-size="12.5" lengthAdjust="spacing" textLength="227.0833" x="363.5417" y="277.7608">Navigate to /propose-contract/contractID</text><polygon fill="#2FA4E7" points="69.7917,322.9085,59.375,327.0752,69.7917,331.2419,65.625,327.0752" style="stroke:#2FA4E7;stroke-width:1.0416666666666667;"/><line style="stroke:#2FA4E7;stroke-width:3.125;" x1="63.5417" x2="612.5" y1="327.0752" y2="327.0752"/><text fill="#343A40" font-family="Arial" font-size="12.5" lengthAdjust="spacing" textLength="146.875" x="81.25" y="317.1346">Display contract data form</text><polygon fill="#2FA4E7" points="601.0417,362.2823,611.4583,366.449,601.0417,370.6156,605.2083,366.449" style="stroke:#2FA4E7;stroke-width:1.0416666666666667;"/><line style="stroke:#2FA4E7;stroke-width:3.125;" x1="58.3333" x2="607.2917" y1="366.449" y2="366.449"/><text fill="#343A40" font-family="Arial" font-size="12.5" lengthAdjust="spacing" textLength="230.2083" x="70.8333" y="356.5084">Enter title, description, milestones, prices</text><path d="M25,382.074 L92.7083,382.074 L92.7083,398.5311 L82.2917,408.9478 L20.8333,408.9478 L20.8333,386.2406 A4.1667,4.1667 0 0 1 25,382.074 " fill="#E9ECEF" style="stroke:#868E96;stroke-width:1.0416666666666667;"/><rect fill="none" height="917.0492" rx="4.1667" ry="4.1667" style="stroke:#2FA4E7;stroke-width:1.0416666666666667;" width="822.9167" x="20.8333" y="382.074"/><text fill="#033C73" font-family="Arial" font-size="12.5" font-weight="bold" lengthAdjust="spacing" textLength="14.5833" x="41.6667" y="400.0488">alt</text><text fill="#343A40" font-family="Arial" font-size="12.5" font-weight="bold" lengthAdjust="spacing" textLength="94.7917" x="113.5417" y="401.0905">[Send Proposal]</text><polygon fill="#2FA4E7" points="601.0417,444.987,611.4583,449.1536,601.0417,453.3203,605.2083,449.1536" style="stroke:#2FA4E7;stroke-width:1.0416666666666667;"/><line style="stroke:#2FA4E7;stroke-width:3.125;" x1="58.3333" x2="607.2917" y1="449.1536" y2="449.1536"/><text fill="#343A40" font-family="Arial" font-size="12.5" lengthAdjust="spacing" textLength="119.7917" x="70.8333" y="439.2131">Click 'Send Proposal'</text><polygon fill="#2FA4E7" points="362.5,484.3608,352.0833,488.5274,362.5,492.6941,358.3333,488.5274" style="stroke:#2FA4E7;stroke-width:1.0416666666666667;"/><line style="stroke:#2FA4E7;stroke-width:3.125;" x1="356.25" x2="612.5" y1="488.5274" y2="488.5274"/><text fill="#343A40" font-family="Arial" font-size="12.5" lengthAdjust="spacing" textLength="179.1667" x="373.9583" y="478.5868">Send proposal message to chat</text><polygon fill="#2FA4E7" points="338.5417,523.7345,348.9583,527.9012,338.5417,532.0679,342.7083,527.9012" style="stroke:#2FA4E7;stroke-width:1.0416666666666667;"/><line style="stroke:#2FA4E7;stroke-width:3.125;" x1="122.9167" x2="344.7917" y1="527.9012" y2="527.9012"/><text fill="#343A40" font-family="Arial" font-size="12.5" lengthAdjust="spacing" textLength="192.7083" x="135.4167" y="517.9606">Open chat with proposal message</text><polygon fill="#2FA4E7" points="338.5417,563.1083,348.9583,567.275,338.5417,571.4417,342.7083,567.275" style="stroke:#2FA4E7;stroke-width:1.0416666666666667;"/><line style="stroke:#2FA4E7;stroke-width:3.125;" x1="122.9167" x2="344.7917" y1="567.275" y2="567.275"/><text fill="#343A40" font-family="Arial" font-size="12.5" lengthAdjust="spacing" textLength="117.7083" x="135.4167" y="557.3344">Click 'View Proposal'</text><polygon fill="#2FA4E7" points="134.375,602.4821,123.9583,606.6488,134.375,610.8154,130.2083,606.6488" style="stroke:#2FA4E7;stroke-width:1.0416666666666667;"/><line style="stroke:#2FA4E7;stroke-width:3.125;" x1="128.125" x2="350" y1="606.6488" y2="606.6488"/><text fill="#343A40" font-family="Arial" font-size="12.5" lengthAdjust="spacing" textLength="147.9167" x="145.8333" y="596.7082">Display proposal in dialog</text><path d="M79.1667,622.2738 L146.875,622.2738 L146.875,638.7309 L136.4583,649.1475 L75,649.1475 L75,626.4404 A4.1667,4.1667 0 0 1 79.1667,622.2738 " fill="#E9ECEF" style="stroke:#868E96;stroke-width:1.0416666666666667;"/><rect fill="none" height="563.9364" rx="4.1667" ry="4.1667" style="stroke:#2FA4E7;stroke-width:1.0416666666666667;" width="758.3333" x="75" y="622.2738"/><text fill="#033C73" font-family="Arial" font-size="12.5" font-weight="bold" lengthAdjust="spacing" textLength="14.5833" x="95.8333" y="640.2486">alt</text><text fill="#343A40" font-family="Arial" font-size="12.5" font-weight="bold" lengthAdjust="spacing" textLength="86.4583" x="167.7083" y="641.2903">[Decline Offer]</text><polygon fill="#2FA4E7" points="338.5417,685.1868,348.9583,689.3534,338.5417,693.5201,342.7083,689.3534" style="stroke:#2FA4E7;stroke-width:1.0416666666666667;"/><line style="stroke:#2FA4E7;stroke-width:3.125;" x1="122.9167" x2="344.7917" y1="689.3534" y2="689.3534"/><text fill="#343A40" font-family="Arial" font-size="12.5" lengthAdjust="spacing" textLength="109.375" x="135.4167" y="679.4128">Click 'Decline Offer'</text><line style="stroke:#2FA4E7;stroke-width:1.0416666666666667;stroke-dasharray:2.0,2.0;" x1="75" x2="833.3333" y1="698.7284" y2="698.7284"/><text fill="#343A40" font-family="Arial" font-size="12.5" font-weight="bold" lengthAdjust="spacing" textLength="106.25" x="85.4167" y="715.6616">[Accept Contract]</text><polygon fill="#2FA4E7" points="338.5417,751.4343,348.9583,755.601,338.5417,759.7677,342.7083,755.601" style="stroke:#2FA4E7;stroke-width:1.0416666666666667;"/><line style="stroke:#2FA4E7;stroke-width:3.125;" x1="122.9167" x2="344.7917" y1="755.601" y2="755.601"/><text fill="#343A40" font-family="Arial" font-size="12.5" lengthAdjust="spacing" textLength="125" x="135.4167" y="745.6604">Click 'Accept Contract'</text><line style="stroke:#2FA4E7;stroke-width:1.0416666666666667;stroke-dasharray:2.0,2.0;" x1="75" x2="833.3333" y1="764.976" y2="764.976"/><text fill="#343A40" font-family="Arial" font-size="12.5" font-weight="bold" lengthAdjust="spacing" textLength="129.1667" x="85.4167" y="781.9092">[Propose New Terms]</text><polygon fill="#2FA4E7" points="601.0417,817.6819,611.4583,821.8486,601.0417,826.0152,605.2083,821.8486" style="stroke:#2FA4E7;stroke-width:1.0416666666666667;"/><line style="stroke:#2FA4E7;stroke-width:3.125;" x1="122.9167" x2="607.2917" y1="821.8486" y2="821.8486"/><text fill="#343A40" font-family="Arial" font-size="12.5" lengthAdjust="spacing" textLength="151.0417" x="135.4167" y="811.908">Click 'Propose New Terms'</text><line style="stroke:#2FA4E7;stroke-width:3.125;" x1="613.5417" x2="657.2917" y1="889.9699" y2="889.9699"/><line style="stroke:#2FA4E7;stroke-width:3.125;" x1="657.2917" x2="657.2917" y1="889.9699" y2="903.5116"/><line style="stroke:#2FA4E7;stroke-width:3.125;" x1="614.5833" x2="657.2917" y1="903.5116" y2="903.5116"/><polygon fill="#2FA4E7" points="625,899.3449,614.5833,903.5116,625,907.6782,620.8333,903.5116" style="stroke:#2FA4E7;stroke-width:1.0416666666666667;"/><text fill="#343A40" font-family="Arial" font-size="12.5" lengthAdjust="spacing" textLength="64.5833" x="626.0417" y="851.2817">Navigate to</text><text fill="#343A40" font-family="Arial" font-size="12.5" lengthAdjust="spacing" textLength="186.4583" x="626.0417" y="865.6555">/propose-contract/newContractID</text><text fill="#343A40" font-family="Arial" font-size="12.5" lengthAdjust="spacing" textLength="115.625" x="626.0417" y="880.0293">with old contract info</text><polygon fill="#2FA4E7" points="134.375,938.7187,123.9583,942.8853,134.375,947.052,130.2083,942.8853" style="stroke:#2FA4E7;stroke-width:1.0416666666666667;"/><line style="stroke:#2FA4E7;stroke-width:3.125;" x1="128.125" x2="612.5" y1="942.8853" y2="942.8853"/><text fill="#343A40" font-family="Arial" font-size="12.5" lengthAdjust="spacing" textLength="242.7083" x="145.8333" y="932.9447">Display editable contract form with old data</text><path d="M89.5833,958.5103 L157.2917,958.5103 L157.2917,974.9674 L146.875,985.3841 L85.4167,985.3841 L85.4167,962.677 A4.1667,4.1667 0 0 1 89.5833,958.5103 " fill="#E9ECEF" style="stroke:#868E96;stroke-width:1.0416666666666667;"/><rect fill="none" height="220.4081" rx="4.1667" ry="4.1667" style="stroke:#2FA4E7;stroke-width:1.0416666666666667;" width="666.6667" x="85.4167" y="958.5103"/><text fill="#033C73" font-family="Arial" font-size="12.5" font-weight="bold" lengthAdjust="spacing" textLength="14.5833" x="106.25" y="976.4852">alt</text><text fill="#343A40" font-family="Arial" font-size="12.5" font-weight="bold" lengthAdjust="spacing" textLength="123.9583" x="178.125" y="977.5269">[Send New Proposal]</text><polygon fill="#2FA4E7" points="601.0417,1021.4233,611.4583,1025.59,601.0417,1029.7567,605.2083,1025.59" style="stroke:#2FA4E7;stroke-width:1.0416666666666667;"/><line style="stroke:#2FA4E7;stroke-width:3.125;" x1="122.9167" x2="607.2917" y1="1025.59" y2="1025.59"/><text fill="#343A40" font-family="Arial" font-size="12.5" lengthAdjust="spacing" textLength="169.7917" x="135.4167" y="1015.6494">Edit and Click 'Send Proposal'</text><polygon fill="#2FA4E7" points="362.5,1060.7971,352.0833,1064.9638,362.5,1069.1305,358.3333,1064.9638" style="stroke:#2FA4E7;stroke-width:1.0416666666666667;"/><line style="stroke:#2FA4E7;stroke-width:3.125;" x1="356.25" x2="612.5" y1="1064.9638" y2="1064.9638"/><text fill="#343A40" font-family="Arial" font-size="12.5" lengthAdjust="spacing" textLength="206.25" x="373.9583" y="1055.0232">Send new proposal message to chat</text><line style="stroke:#2FA4E7;stroke-width:1.0416666666666667;stroke-dasharray:2.0,2.0;" x1="85.4167" x2="752.0833" y1="1074.3388" y2="1074.3388"/><text fill="#343A40" font-family="Arial" font-size="12.5" font-weight="bold" lengthAdjust="spacing" textLength="50" x="95.8333" y="1091.272">[Cancel]</text><polygon fill="#2FA4E7" points="601.0417,1127.0447,611.4583,1131.2113,601.0417,1135.378,605.2083,1131.2113" style="stroke:#2FA4E7;stroke-width:1.0416666666666667;"/><line style="stroke:#2FA4E7;stroke-width:3.125;" x1="122.9167" x2="607.2917" y1="1131.2113" y2="1131.2113"/><text fill="#343A40" font-family="Arial" font-size="12.5" lengthAdjust="spacing" textLength="76.0417" x="135.4167" y="1121.2708">Click 'Cancel'</text><polygon fill="#2FA4E7" points="134.375,1166.4185,123.9583,1170.5851,134.375,1174.7518,130.2083,1170.5851" style="stroke:#2FA4E7;stroke-width:1.0416666666666667;"/><line style="stroke:#2FA4E7;stroke-width:3.125;" x1="128.125" x2="612.5" y1="1170.5851" y2="1170.5851"/><text fill="#343A40" font-family="Arial" font-size="12.5" lengthAdjust="spacing" textLength="142.7083" x="145.8333" y="1160.6445">Navigate back to the chat</text><line style="stroke:#2FA4E7;stroke-width:1.0416666666666667;stroke-dasharray:2.0,2.0;" x1="20.8333" x2="843.75" y1="1194.5435" y2="1194.5435"/><text fill="#343A40" font-family="Arial" font-size="12.5" font-weight="bold" lengthAdjust="spacing" textLength="50" x="31.25" y="1211.4766">[Cancel]</text><polygon fill="#2FA4E7" points="601.0417,1247.2493,611.4583,1251.416,601.0417,1255.5827,605.2083,1251.416" style="stroke:#2FA4E7;stroke-width:1.0416666666666667;"/><line style="stroke:#2FA4E7;stroke-width:3.125;" x1="58.3333" x2="607.2917" y1="1251.416" y2="1251.416"/><text fill="#343A40" font-family="Arial" font-size="12.5" lengthAdjust="spacing" textLength="76.0417" x="70.8333" y="1241.4754">Click 'Cancel'</text><polygon fill="#2FA4E7" points="69.7917,1286.6231,59.375,1290.7898,69.7917,1294.9565,65.625,1290.7898" style="stroke:#2FA4E7;stroke-width:1.0416666666666667;"/><line style="stroke:#2FA4E7;stroke-width:3.125;" x1="63.5417" x2="612.5" y1="1290.7898" y2="1290.7898"/><text fill="#343A40" font-family="Arial" font-size="12.5" lengthAdjust="spacing" textLength="142.7083" x="81.25" y="1280.8492">Navigate back to the chat</text><!--SRC=[VLJ1Zjem4BtxAwPSk81MSEHGQHMsLG-mAr5wwcNM6S32iIDxADg_xpW99eHTSabYltblvlabt_X05O6cSBA4RkfFR8qZ5O_6rHYmWf9sUBBympjUeq2VWq7Rstz7VTm7Vt9buQqFS3uO9gNOi2Ke0Y7BJOe3QePjb1UCiYzl0Xx9Ge3P2332TdQpE6yNvqfas6XJesCOhIX6t1ktXyr7PAeQq6hpynQLzTw2htr42ojVoe0DkdXRARMTmVHxAbp0XYm9L1-GuMpu0Ary7r9Oeu_W7OnRmkj4OoM0X1FM1QpndzcdWTd3Kzr2fxg3FbqUVYsL4dYgsiuMi3InjlW1bsqeaH5sFbHT2mtrYsFfgd5r8cSITJ0r6-ycK1bBaRsZE84w64rHeMKPovLvVWLozTZQWSOtc743wXhhd97j-c9XrLZVp9QyQYdd6VnQa-kPE2mRmhiE_XWw3phe3DtEhzPaCkEWbFZvVODCOov9fy32wsv7eLdzNEW6rmgHbODyrffgpkVvW660x75SGh6MMNvJgEA0fM_v7NQSmPtrTqdww-wpvEXSv3W9el7Ss_AQ8kDsVaZTzvHAm_WktsYkI963J9HIcEjpeDQzuygxWqbVX1bGm5-dRD3NDMqor-F4PTCBT9g-xA6JRa6VQIOhiidf7vPKv6SuK7Abkjo7glUVKr-jKvazKaci_m40]--></g></svg>