<?xml version="1.0" encoding="us-ascii" standalone="no"?><svg xmlns="http://www.w3.org/2000/svg" xmlns:xlink="http://www.w3.org/1999/xlink" contentStyleType="text/css" height="1592.7083px" preserveAspectRatio="none" style="width:865px;height:1592px;background:#FFFFFF;" version="1.1" viewBox="0 0 865 1592" width="865.625px" zoomAndPan="magnify"><defs/><g><rect fill="none" height="46.873" id="_title" rx="4.1667" ry="4.1667" style="stroke:#BABDBF;stroke-width:1.0416666666666667;" width="252.0833" x="311.1979" y="20.8333"/><text fill="#2FA4E7" font-family="Arial" font-size="20.8333" font-weight="bold" lengthAdjust="spacing" textLength="229.1667" x="322.6563" y="51.8331">End Contract Use Case</text><rect fill="none" height="590.3971" rx="4.1667" ry="4.1667" style="stroke:#2FA4E7;stroke-width:1.0416666666666667;" width="833.8542" x="20.8333" y="398.5311"/><rect fill="none" height="391.6545" rx="4.1667" ry="4.1667" style="stroke:#2FA4E7;stroke-width:1.0416666666666667;" width="813.0208" x="31.25" y="472.0703"/><rect fill="none" height="103.3285" rx="4.1667" ry="4.1667" style="stroke:#2FA4E7;stroke-width:1.0416666666666667;" width="228.125" x="385.9375" y="878.3081"/><rect fill="none" height="329.5736" rx="4.1667" ry="4.1667" style="stroke:#2FA4E7;stroke-width:1.0416666666666667;" width="751.5625" x="92.7083" y="1148.7162"/><line style="stroke:#BABDBF;stroke-width:1.0416666666666667;stroke-dasharray:5.0,5.0;" x1="66.6667" x2="66.6667" y1="167.4967" y2="1495.9981"/><line style="stroke:#BABDBF;stroke-width:1.0416666666666667;stroke-dasharray:5.0,5.0;" x1="128.125" x2="128.125" y1="167.4967" y2="1495.9981"/><line style="stroke:#BABDBF;stroke-width:1.0416666666666667;stroke-dasharray:5.0,5.0;" x1="282.8125" x2="282.8125" y1="167.4967" y2="1495.9981"/><line style="stroke:#BABDBF;stroke-width:1.0416666666666667;stroke-dasharray:5.0,5.0;" x1="497.3958" x2="497.3958" y1="167.4967" y2="1495.9981"/><line style="stroke:#BABDBF;stroke-width:1.0416666666666667;stroke-dasharray:5.0,5.0;" x1="688.0208" x2="688.0208" y1="167.4967" y2="1495.9981"/><text fill="#2FA4E7" font-family="Arial" font-size="12.5" lengthAdjust="spacing" textLength="34.375" x="46.875" y="159.6395">User1</text><ellipse cx="67.1875" cy="88.5396" fill="none" rx="8.3333" ry="8.3333" style="stroke:#2FA4E7;stroke-width:1.0416666666666667;"/><path d="M67.1875,96.873 L67.1875,124.998 M53.6458,105.2063 L80.7292,105.2063 M67.1875,124.998 L53.6458,140.623 M67.1875,124.998 L80.7292,140.623 " fill="none" style="stroke:#2FA4E7;stroke-width:1.0416666666666667;"/><text fill="#2FA4E7" font-family="Arial" font-size="12.5" lengthAdjust="spacing" textLength="34.375" x="46.875" y="1511.8896">User1</text><ellipse cx="67.1875" cy="1529.1219" fill="none" rx="8.3333" ry="8.3333" style="stroke:#2FA4E7;stroke-width:1.0416666666666667;"/><path d="M67.1875,1537.4552 L67.1875,1565.5802 M53.6458,1545.7886 L80.7292,1545.7886 M67.1875,1565.5802 L53.6458,1581.2052 M67.1875,1565.5802 L80.7292,1581.2052 " fill="none" style="stroke:#2FA4E7;stroke-width:1.0416666666666667;"/><text fill="#2FA4E7" font-family="Arial" font-size="12.5" lengthAdjust="spacing" textLength="34.375" x="108.3333" y="159.6395">User2</text><ellipse cx="128.6458" cy="88.5396" fill="none" rx="8.3333" ry="8.3333" style="stroke:#2FA4E7;stroke-width:1.0416666666666667;"/><path d="M128.6458,96.873 L128.6458,124.998 M115.1042,105.2063 L142.1875,105.2063 M128.6458,124.998 L115.1042,140.623 M128.6458,124.998 L142.1875,140.623 " fill="none" style="stroke:#2FA4E7;stroke-width:1.0416666666666667;"/><text fill="#2FA4E7" font-family="Arial" font-size="12.5" lengthAdjust="spacing" textLength="34.375" x="108.3333" y="1511.8896">User2</text><ellipse cx="128.6458" cy="1529.1219" fill="none" rx="8.3333" ry="8.3333" style="stroke:#2FA4E7;stroke-width:1.0416666666666667;"/><path d="M128.6458,1537.4552 L128.6458,1565.5802 M115.1042,1545.7886 L142.1875,1545.7886 M128.6458,1565.5802 L115.1042,1581.2052 M128.6458,1565.5802 L142.1875,1581.2052 " fill="none" style="stroke:#2FA4E7;stroke-width:1.0416666666666667;"/><rect fill="none" height="39.3738" rx="4.1667" ry="4.1667" style="stroke:#2FA4E7;stroke-width:1.0416666666666667;" width="122.9167" x="221.3542" y="127.0813"/><text fill="#2FA4E7" font-family="Arial" font-size="12.5" lengthAdjust="spacing" textLength="97.9167" x="233.8542" y="151.3062">Message Module</text><rect fill="none" height="39.3738" rx="4.1667" ry="4.1667" style="stroke:#2FA4E7;stroke-width:1.0416666666666667;" width="122.9167" x="221.3542" y="1494.9565"/><text fill="#2FA4E7" font-family="Arial" font-size="12.5" lengthAdjust="spacing" textLength="97.9167" x="233.8542" y="1519.1813">Message Module</text><rect fill="none" height="39.3738" rx="4.1667" ry="4.1667" style="stroke:#2FA4E7;stroke-width:1.0416666666666667;" width="118.75" x="438.0208" y="127.0813"/><text fill="#2FA4E7" font-family="Arial" font-size="12.5" lengthAdjust="spacing" textLength="93.75" x="450.5208" y="151.3062">Contract Module</text><rect fill="none" height="39.3738" rx="4.1667" ry="4.1667" style="stroke:#2FA4E7;stroke-width:1.0416666666666667;" width="118.75" x="438.0208" y="1494.9565"/><text fill="#2FA4E7" font-family="Arial" font-size="12.5" lengthAdjust="spacing" textLength="93.75" x="450.5208" y="1519.1813">Contract Module</text><rect fill="none" height="39.3738" rx="4.1667" ry="4.1667" style="stroke:#2FA4E7;stroke-width:1.0416666666666667;" width="75" x="650.5208" y="127.0813"/><text fill="#2FA4E7" font-family="Arial" font-size="12.5" lengthAdjust="spacing" textLength="50" x="663.0208" y="151.3062">Firestore</text><rect fill="none" height="39.3738" rx="4.1667" ry="4.1667" style="stroke:#2FA4E7;stroke-width:1.0416666666666667;" width="75" x="650.5208" y="1494.9565"/><text fill="#2FA4E7" font-family="Arial" font-size="12.5" lengthAdjust="spacing" textLength="50" x="663.0208" y="1519.1813">Firestore</text><polygon fill="#2FA4E7" points="270.3125,204.7872,280.7292,208.9539,270.3125,213.1205,274.4792,208.9539" style="stroke:#2FA4E7;stroke-width:1.0416666666666667;"/><line style="stroke:#2FA4E7;stroke-width:3.125;" x1="67.1875" x2="276.5625" y1="208.9539" y2="208.9539"/><text fill="#343A40" font-family="Arial" font-size="12.5" lengthAdjust="spacing" textLength="120.8333" x="79.6875" y="199.0133">Go to chat with User2</text><line style="stroke:#2FA4E7;stroke-width:3.125;" x1="282.8125" x2="326.5625" y1="277.0752" y2="277.0752"/><line style="stroke:#2FA4E7;stroke-width:3.125;" x1="326.5625" x2="326.5625" y1="277.0752" y2="290.6169"/><line style="stroke:#2FA4E7;stroke-width:3.125;" x1="283.8542" x2="326.5625" y1="290.6169" y2="290.6169"/><polygon fill="#2FA4E7" points="294.2708,286.4502,283.8542,290.6169,294.2708,294.7835,290.1042,290.6169" style="stroke:#2FA4E7;stroke-width:1.0416666666666667;"/><text fill="#343A40" font-family="Arial" font-size="12.5" lengthAdjust="spacing" textLength="121.875" x="295.3125" y="238.387">Load chat history and</text><text fill="#343A40" font-family="Arial" font-size="12.5" lengthAdjust="spacing" textLength="133.3333" x="295.3125" y="252.7608">interface to interact with</text><text fill="#343A40" font-family="Arial" font-size="12.5" lengthAdjust="spacing" textLength="107.2917" x="295.3125" y="267.1346">User1 and contract</text><polygon fill="#2FA4E7" points="484.8958,325.824,495.3125,329.9906,484.8958,334.1573,489.0625,329.9906" style="stroke:#2FA4E7;stroke-width:1.0416666666666667;"/><line style="stroke:#2FA4E7;stroke-width:3.125;" x1="67.1875" x2="491.1458" y1="329.9906" y2="329.9906"/><text fill="#343A40" font-family="Arial" font-size="12.5" lengthAdjust="spacing" textLength="118.75" x="79.6875" y="320.05">Click "View Contract"</text><line style="stroke:#2FA4E7;stroke-width:3.125;" x1="497.3958" x2="541.1458" y1="369.3644" y2="369.3644"/><line style="stroke:#2FA4E7;stroke-width:3.125;" x1="541.1458" x2="541.1458" y1="369.3644" y2="382.9061"/><line style="stroke:#2FA4E7;stroke-width:3.125;" x1="498.4375" x2="541.1458" y1="382.9061" y2="382.9061"/><polygon fill="#2FA4E7" points="508.8542,378.7394,498.4375,382.9061,508.8542,387.0728,504.6875,382.9061" style="stroke:#2FA4E7;stroke-width:1.0416666666666667;"/><text fill="#343A40" font-family="Arial" font-size="12.5" lengthAdjust="spacing" textLength="117.7083" x="509.8958" y="359.4238">Load contract details</text><path d="M25,398.5311 L302.0833,398.5311 L302.0833,414.9882 L291.6667,425.4049 L20.8333,425.4049 L20.8333,402.6978 A4.1667,4.1667 0 0 1 25,398.5311 " fill="#E9ECEF" style="stroke:#868E96;stroke-width:1.0416666666666667;"/><rect fill="none" height="590.3971" rx="4.1667" ry="4.1667" style="stroke:#2FA4E7;stroke-width:1.0416666666666667;" width="833.8542" x="20.8333" y="398.5311"/><text fill="#033C73" font-family="Arial" font-size="12.5" font-weight="bold" lengthAdjust="spacing" textLength="223.9583" x="41.6667" y="416.5059">Contract Module interaction for User1</text><polygon fill="#2FA4E7" points="484.8958,452.2786,495.3125,456.4453,484.8958,460.612,489.0625,456.4453" style="stroke:#2FA4E7;stroke-width:1.0416666666666667;"/><line style="stroke:#2FA4E7;stroke-width:3.125;" x1="67.1875" x2="491.1458" y1="456.4453" y2="456.4453"/><text fill="#343A40" font-family="Arial" font-size="12.5" lengthAdjust="spacing" textLength="113.5417" x="79.6875" y="446.5047">Click "End Contract"</text><path d="M35.4167,472.0703 L103.125,472.0703 L103.125,488.5274 L92.7083,498.9441 L31.25,498.9441 L31.25,476.237 A4.1667,4.1667 0 0 1 35.4167,472.0703 " fill="#E9ECEF" style="stroke:#868E96;stroke-width:1.0416666666666667;"/><rect fill="none" height="391.6545" rx="4.1667" ry="4.1667" style="stroke:#2FA4E7;stroke-width:1.0416666666666667;" width="813.0208" x="31.25" y="472.0703"/><text fill="#033C73" font-family="Arial" font-size="12.5" font-weight="bold" lengthAdjust="spacing" textLength="14.5833" x="52.0833" y="490.0452">alt</text><text fill="#343A40" font-family="Arial" font-size="12.5" font-weight="bold" lengthAdjust="spacing" textLength="143.75" x="123.9583" y="491.0868">[No pending milestones]</text><line style="stroke:#2FA4E7;stroke-width:3.125;" x1="497.3958" x2="541.1458" y1="539.15" y2="539.15"/><line style="stroke:#2FA4E7;stroke-width:3.125;" x1="541.1458" x2="541.1458" y1="539.15" y2="552.6917"/><line style="stroke:#2FA4E7;stroke-width:3.125;" x1="498.4375" x2="541.1458" y1="552.6917" y2="552.6917"/><polygon fill="#2FA4E7" points="508.8542,548.525,498.4375,552.6917,508.8542,556.8583,504.6875,552.6917" style="stroke:#2FA4E7;stroke-width:1.0416666666666667;"/><text fill="#343A40" font-family="Arial" font-size="12.5" lengthAdjust="spacing" textLength="148.9583" x="509.8958" y="529.2094">Show Confirmation Dialog</text><polygon fill="#2FA4E7" points="484.8958,587.8988,495.3125,592.0654,484.8958,596.2321,489.0625,592.0654" style="stroke:#2FA4E7;stroke-width:1.0416666666666667;"/><line style="stroke:#2FA4E7;stroke-width:3.125;" x1="67.1875" x2="491.1458" y1="592.0654" y2="592.0654"/><text fill="#343A40" font-family="Arial" font-size="12.5" lengthAdjust="spacing" textLength="91.6667" x="79.6875" y="582.1248">Click "Continue"</text><line style="stroke:#2FA4E7;stroke-width:3.125;" x1="497.3958" x2="541.1458" y1="631.4392" y2="631.4392"/><line style="stroke:#2FA4E7;stroke-width:3.125;" x1="541.1458" x2="541.1458" y1="631.4392" y2="644.9809"/><line style="stroke:#2FA4E7;stroke-width:3.125;" x1="498.4375" x2="541.1458" y1="644.9809" y2="644.9809"/><polygon fill="#2FA4E7" points="508.8542,640.8142,498.4375,644.9809,508.8542,649.1475,504.6875,644.9809" style="stroke:#2FA4E7;stroke-width:1.0416666666666667;"/><text fill="#343A40" font-family="Arial" font-size="12.5" lengthAdjust="spacing" textLength="132.2917" x="509.8958" y="621.4986">Show Feedback Dialog</text><polygon fill="#2FA4E7" points="484.8958,680.188,495.3125,684.3547,484.8958,688.5213,489.0625,684.3547" style="stroke:#2FA4E7;stroke-width:1.0416666666666667;"/><line style="stroke:#2FA4E7;stroke-width:3.125;" x1="67.1875" x2="491.1458" y1="684.3547" y2="684.3547"/><text fill="#343A40" font-family="Arial" font-size="12.5" lengthAdjust="spacing" textLength="143.75" x="79.6875" y="674.4141">Input feedback and rating</text><polygon fill="#2FA4E7" points="484.8958,719.5618,495.3125,723.7284,484.8958,727.8951,489.0625,723.7284" style="stroke:#2FA4E7;stroke-width:1.0416666666666667;"/><line style="stroke:#2FA4E7;stroke-width:3.125;" x1="67.1875" x2="491.1458" y1="723.7284" y2="723.7284"/><text fill="#343A40" font-family="Arial" font-size="12.5" lengthAdjust="spacing" textLength="113.5417" x="79.6875" y="713.7878">Click "End Contract"</text><polygon fill="#2FA4E7" points="675.5208,758.9355,685.9375,763.1022,675.5208,767.2689,679.6875,763.1022" style="stroke:#2FA4E7;stroke-width:1.0416666666666667;"/><line style="stroke:#2FA4E7;stroke-width:3.125;" x1="497.3958" x2="681.7708" y1="763.1022" y2="763.1022"/><text fill="#343A40" font-family="Arial" font-size="12.5" lengthAdjust="spacing" textLength="72.9167" x="509.8958" y="753.1616">Send update</text><line style="stroke:#2FA4E7;stroke-width:3.125;stroke-dasharray:2.0,2.0;" x1="688.0208" x2="731.7708" y1="802.476" y2="802.476"/><line style="stroke:#2FA4E7;stroke-width:3.125;stroke-dasharray:2.0,2.0;" x1="731.7708" x2="731.7708" y1="802.476" y2="816.0177"/><line style="stroke:#2FA4E7;stroke-width:3.125;stroke-dasharray:2.0,2.0;" x1="689.0625" x2="731.7708" y1="816.0177" y2="816.0177"/><polygon fill="#2FA4E7" points="699.4792,811.851,689.0625,816.0177,699.4792,820.1843,695.3125,816.0177" style="stroke:#2FA4E7;stroke-width:1.0416666666666667;"/><text fill="#343A40" font-family="Arial" font-size="12.5" lengthAdjust="spacing" textLength="126.0417" x="700.5208" y="792.5354">Update contract status</text><polygon fill="#2FA4E7" points="294.2708,851.2248,283.8542,855.3914,294.2708,859.5581,290.1042,855.3914" style="stroke:#2FA4E7;stroke-width:1.0416666666666667;"/><line style="stroke:#2FA4E7;stroke-width:3.125;" x1="288.0208" x2="686.9792" y1="855.3914" y2="855.3914"/><text fill="#343A40" font-family="Arial" font-size="12.5" lengthAdjust="spacing" textLength="69.7917" x="305.7292" y="845.4508">Notify User2</text><path d="M390.1042,878.3081 L457.8125,878.3081 L457.8125,894.7652 L447.3958,905.1819 L385.9375,905.1819 L385.9375,882.4748 A4.1667,4.1667 0 0 1 390.1042,878.3081 " fill="#E9ECEF" style="stroke:#868E96;stroke-width:1.0416666666666667;"/><rect fill="none" height="103.3285" rx="4.1667" ry="4.1667" style="stroke:#2FA4E7;stroke-width:1.0416666666666667;" width="228.125" x="385.9375" y="878.3081"/><text fill="#033C73" font-family="Arial" font-size="12.5" font-weight="bold" lengthAdjust="spacing" textLength="14.5833" x="406.7708" y="896.283">alt</text><text fill="#343A40" font-family="Arial" font-size="12.5" font-weight="bold" lengthAdjust="spacing" textLength="125" x="478.6458" y="897.3246">[Pending milestones]</text><line style="stroke:#2FA4E7;stroke-width:3.125;" x1="497.3958" x2="541.1458" y1="959.7616" y2="959.7616"/><line style="stroke:#2FA4E7;stroke-width:3.125;" x1="541.1458" x2="541.1458" y1="959.7616" y2="973.3032"/><line style="stroke:#2FA4E7;stroke-width:3.125;" x1="498.4375" x2="541.1458" y1="973.3032" y2="973.3032"/><polygon fill="#2FA4E7" points="508.8542,969.1366,498.4375,973.3032,508.8542,977.4699,504.6875,973.3032" style="stroke:#2FA4E7;stroke-width:1.0416666666666667;"/><text fill="#343A40" font-family="Arial" font-size="12.5" lengthAdjust="spacing" textLength="81.25" x="509.8958" y="935.4472">Show warning</text><text fill="#343A40" font-family="Arial" font-size="12.5" lengthAdjust="spacing" textLength="52.0833" x="509.8958" y="949.821">message</text><line style="stroke:#2FA4E7;stroke-width:3.125;" x1="282.8125" x2="326.5625" y1="1027.2603" y2="1027.2603"/><line style="stroke:#2FA4E7;stroke-width:3.125;" x1="326.5625" x2="326.5625" y1="1027.2603" y2="1040.802"/><line style="stroke:#2FA4E7;stroke-width:3.125;" x1="283.8542" x2="326.5625" y1="1040.802" y2="1040.802"/><polygon fill="#2FA4E7" points="294.2708,1036.6353,283.8542,1040.802,294.2708,1044.9687,290.1042,1040.802" style="stroke:#2FA4E7;stroke-width:1.0416666666666667;"/><text fill="#343A40" font-family="Arial" font-size="12.5" lengthAdjust="spacing" textLength="175" x="295.3125" y="1017.3197">Show contract ended message</text><polygon fill="#2FA4E7" points="270.3125,1076.0091,280.7292,1080.1758,270.3125,1084.3424,274.4792,1080.1758" style="stroke:#2FA4E7;stroke-width:1.0416666666666667;"/><line style="stroke:#2FA4E7;stroke-width:3.125;" x1="128.6458" x2="276.5625" y1="1080.1758" y2="1080.1758"/><text fill="#343A40" font-family="Arial" font-size="12.5" lengthAdjust="spacing" textLength="118.75" x="141.1458" y="1070.2352">Click "View Contract"</text><line style="stroke:#2FA4E7;stroke-width:3.125;" x1="497.3958" x2="541.1458" y1="1119.5496" y2="1119.5496"/><line style="stroke:#2FA4E7;stroke-width:3.125;" x1="541.1458" x2="541.1458" y1="1119.5496" y2="1133.0912"/><line style="stroke:#2FA4E7;stroke-width:3.125;" x1="498.4375" x2="541.1458" y1="1133.0912" y2="1133.0912"/><polygon fill="#2FA4E7" points="508.8542,1128.9246,498.4375,1133.0912,508.8542,1137.2579,504.6875,1133.0912" style="stroke:#2FA4E7;stroke-width:1.0416666666666667;"/><text fill="#343A40" font-family="Arial" font-size="12.5" lengthAdjust="spacing" textLength="117.7083" x="509.8958" y="1109.609">Load contract details</text><path d="M96.875,1148.7162 L373.9583,1148.7162 L373.9583,1165.1733 L363.5417,1175.59 L92.7083,1175.59 L92.7083,1152.8829 A4.1667,4.1667 0 0 1 96.875,1148.7162 " fill="#E9ECEF" style="stroke:#868E96;stroke-width:1.0416666666666667;"/><rect fill="none" height="329.5736" rx="4.1667" ry="4.1667" style="stroke:#2FA4E7;stroke-width:1.0416666666666667;" width="751.5625" x="92.7083" y="1148.7162"/><text fill="#033C73" font-family="Arial" font-size="12.5" font-weight="bold" lengthAdjust="spacing" textLength="223.9583" x="113.5417" y="1166.6911">Contract Module interaction for User2</text><polygon fill="#2FA4E7" points="484.8958,1202.4638,495.3125,1206.6305,484.8958,1210.7971,489.0625,1206.6305" style="stroke:#2FA4E7;stroke-width:1.0416666666666667;"/><line style="stroke:#2FA4E7;stroke-width:3.125;" x1="128.6458" x2="491.1458" y1="1206.6305" y2="1206.6305"/><text fill="#343A40" font-family="Arial" font-size="12.5" lengthAdjust="spacing" textLength="134.375" x="141.1458" y="1196.6899">Click "Leave Feedback"</text><line style="stroke:#2FA4E7;stroke-width:3.125;" x1="497.3958" x2="541.1458" y1="1246.0042" y2="1246.0042"/><line style="stroke:#2FA4E7;stroke-width:3.125;" x1="541.1458" x2="541.1458" y1="1246.0042" y2="1259.5459"/><line style="stroke:#2FA4E7;stroke-width:3.125;" x1="498.4375" x2="541.1458" y1="1259.5459" y2="1259.5459"/><polygon fill="#2FA4E7" points="508.8542,1255.3792,498.4375,1259.5459,508.8542,1263.7126,504.6875,1259.5459" style="stroke:#2FA4E7;stroke-width:1.0416666666666667;"/><text fill="#343A40" font-family="Arial" font-size="12.5" lengthAdjust="spacing" textLength="132.2917" x="509.8958" y="1236.0636">Show Feedback Dialog</text><polygon fill="#2FA4E7" points="484.8958,1294.753,495.3125,1298.9197,484.8958,1303.0863,489.0625,1298.9197" style="stroke:#2FA4E7;stroke-width:1.0416666666666667;"/><line style="stroke:#2FA4E7;stroke-width:3.125;" x1="128.6458" x2="491.1458" y1="1298.9197" y2="1298.9197"/><text fill="#343A40" font-family="Arial" font-size="12.5" lengthAdjust="spacing" textLength="143.75" x="141.1458" y="1288.9791">Input feedback and rating</text><polygon fill="#2FA4E7" points="484.8958,1334.1268,495.3125,1338.2935,484.8958,1342.4601,489.0625,1338.2935" style="stroke:#2FA4E7;stroke-width:1.0416666666666667;"/><line style="stroke:#2FA4E7;stroke-width:3.125;" x1="128.6458" x2="491.1458" y1="1338.2935" y2="1338.2935"/><text fill="#343A40" font-family="Arial" font-size="12.5" lengthAdjust="spacing" textLength="129.1667" x="141.1458" y="1328.3529">Click "Send Feedback"</text><polygon fill="#2FA4E7" points="675.5208,1373.5006,685.9375,1377.6672,675.5208,1381.8339,679.6875,1377.6672" style="stroke:#2FA4E7;stroke-width:1.0416666666666667;"/><line style="stroke:#2FA4E7;stroke-width:3.125;" x1="497.3958" x2="681.7708" y1="1377.6672" y2="1377.6672"/><text fill="#343A40" font-family="Arial" font-size="12.5" lengthAdjust="spacing" textLength="72.9167" x="509.8958" y="1367.7266">Send update</text><line style="stroke:#2FA4E7;stroke-width:3.125;stroke-dasharray:2.0,2.0;" x1="688.0208" x2="731.7708" y1="1417.041" y2="1417.041"/><line style="stroke:#2FA4E7;stroke-width:3.125;stroke-dasharray:2.0,2.0;" x1="731.7708" x2="731.7708" y1="1417.041" y2="1430.5827"/><line style="stroke:#2FA4E7;stroke-width:3.125;stroke-dasharray:2.0,2.0;" x1="689.0625" x2="731.7708" y1="1430.5827" y2="1430.5827"/><polygon fill="#2FA4E7" points="699.4792,1426.416,689.0625,1430.5827,699.4792,1434.7493,695.3125,1430.5827" style="stroke:#2FA4E7;stroke-width:1.0416666666666667;"/><text fill="#343A40" font-family="Arial" font-size="12.5" lengthAdjust="spacing" textLength="126.0417" x="700.5208" y="1407.1004">Update contract status</text><polygon fill="#2FA4E7" points="294.2708,1465.7898,283.8542,1469.9565,294.2708,1474.1231,290.1042,1469.9565" style="stroke:#2FA4E7;stroke-width:1.0416666666666667;"/><line style="stroke:#2FA4E7;stroke-width:3.125;" x1="288.0208" x2="686.9792" y1="1469.9565" y2="1469.9565"/><text fill="#343A40" font-family="Arial" font-size="12.5" lengthAdjust="spacing" textLength="69.7917" x="305.7292" y="1460.0159">Notify User1</text><!--SRC=[jP9FRvn03CNlV0gN-nwIOm-L4bggIc4LgKfFUt4PirWBCsZ6T9LlNm__bjsIAfSSa63yvltCipz9JIr1IRvl2EtEzTAmfIISs7ReiGL35VQDvCxA7bNwu1cRLVqtbgUZTxqrcMkSXtFDGac2fUZ7Io1_jtg_J_IISCaTMe6qe13mI50ue_WKC41HN4iovNerM6koQqtEde8IADRonoGHbeRWcpMmt5OuP1YqiQ4bs7rH4do6xmx4GLcZm9cbdfhKqYnuScZ6UiqHyWgelWVBLiXNM5AyFtn4pE1ni2CZ2ikfWGisYwvPm-K9qbzCvwN7DCcAHJ1Yv-uD2N8JafXp1pUHB7Hs5gebz4tWEfCq0S16OE-W8slO7g7b9YPfAMWDODNFpzeDdLRiMnn8NtKDt77GRQ8YXcrFwQPLJcJYvhnjyyDslK0rwsAONidsFyZRlvkn-MF4wZz2tndKxOmbFTpDjPVX-99t49G-BB9f5VPEk7eTLmIqg8PJXC_lo- -CtaRPmRRZuaycyLdlt21Ucj4g6PXlZFHP-U5xT7y1hfD-8ln3on2lY9lZlJPvUxIRi65ojwn_PlgEUMxFyWxY0Fu2]--></g></svg>