<?xml version="1.0" encoding="us-ascii" standalone="no"?><svg xmlns="http://www.w3.org/2000/svg" xmlns:xlink="http://www.w3.org/1999/xlink" contentStyleType="text/css" height="2020.8333px" preserveAspectRatio="none" style="width:1015px;height:2020px;background:#FFFFFF;" version="1.1" viewBox="0 0 1015 2020" width="1015.625px" zoomAndPan="magnify"><defs/><g><rect fill="none" height="46.873" id="_title" rx="4.1667" ry="4.1667" style="stroke:#BABDBF;stroke-width:1.0416666666666667;" width="230.2083" x="397.1354" y="20.8333"/><text fill="#2FA4E7" font-family="Arial" font-size="20.8333" font-weight="bold" lengthAdjust="spacing" textLength="207.2917" x="408.5938" y="51.8331">Milestones Use Case</text><rect fill="none" height="751.6398" rx="4.1667" ry="4.1667" style="stroke:#2FA4E7;stroke-width:1.0416666666666667;" width="983.8542" x="20.8333" y="398.5311"/><rect fill="none" height="313.739" rx="4.1667" ry="4.1667" style="stroke:#2FA4E7;stroke-width:1.0416666666666667;" width="963.0208" x="31.25" y="432.6965"/><rect fill="none" height="381.8604" rx="4.1667" ry="4.1667" style="stroke:#2FA4E7;stroke-width:1.0416666666666667;" width="957.8125" x="31.25" y="761.0189"/><rect fill="none" height="527.6876" rx="4.1667" ry="4.1667" style="stroke:#2FA4E7;stroke-width:1.0416666666666667;" width="915.1042" x="81.25" y="1378.0802"/><rect fill="none" height="235.8236" rx="4.1667" ry="4.1667" style="stroke:#2FA4E7;stroke-width:1.0416666666666667;" width="894.2708" x="91.6667" y="1412.2457"/><rect fill="none" height="235.8236" rx="4.1667" ry="4.1667" style="stroke:#2FA4E7;stroke-width:1.0416666666666667;" width="894.2708" x="91.6667" y="1662.6526"/><line style="stroke:#BABDBF;stroke-width:1.0416666666666667;stroke-dasharray:5.0,5.0;" x1="66.6667" x2="66.6667" y1="167.4967" y2="1923.4762"/><line style="stroke:#BABDBF;stroke-width:1.0416666666666667;stroke-dasharray:5.0,5.0;" x1="140.625" x2="140.625" y1="167.4967" y2="1923.4762"/><line style="stroke:#BABDBF;stroke-width:1.0416666666666667;stroke-dasharray:5.0,5.0;" x1="296.3542" x2="296.3542" y1="167.4967" y2="1923.4762"/><line style="stroke:#BABDBF;stroke-width:1.0416666666666667;stroke-dasharray:5.0,5.0;" x1="510.9375" x2="510.9375" y1="167.4967" y2="1923.4762"/><line style="stroke:#BABDBF;stroke-width:1.0416666666666667;stroke-dasharray:5.0,5.0;" x1="696.3542" x2="696.3542" y1="167.4967" y2="1923.4762"/><line style="stroke:#BABDBF;stroke-width:1.0416666666666667;stroke-dasharray:5.0,5.0;" x1="860.9375" x2="860.9375" y1="167.4967" y2="1923.4762"/><text fill="#2FA4E7" font-family="Arial" font-size="12.5" lengthAdjust="spacing" textLength="33.3333" x="46.875" y="159.6395">Client</text><ellipse cx="66.6667" cy="88.5396" fill="none" rx="8.3333" ry="8.3333" style="stroke:#2FA4E7;stroke-width:1.0416666666666667;"/><path d="M66.6667,96.873 L66.6667,124.998 M53.125,105.2063 L80.2083,105.2063 M66.6667,124.998 L53.125,140.623 M66.6667,124.998 L80.2083,140.623 " fill="none" style="stroke:#2FA4E7;stroke-width:1.0416666666666667;"/><text fill="#2FA4E7" font-family="Arial" font-size="12.5" lengthAdjust="spacing" textLength="33.3333" x="46.875" y="1939.3677">Client</text><ellipse cx="66.6667" cy="1956.5999" fill="none" rx="8.3333" ry="8.3333" style="stroke:#2FA4E7;stroke-width:1.0416666666666667;"/><path d="M66.6667,1964.9333 L66.6667,1993.0583 M53.125,1973.2666 L80.2083,1973.2666 M66.6667,1993.0583 L53.125,2008.6833 M66.6667,1993.0583 L80.2083,2008.6833 " fill="none" style="stroke:#2FA4E7;stroke-width:1.0416666666666667;"/><text fill="#2FA4E7" font-family="Arial" font-size="12.5" lengthAdjust="spacing" textLength="61.4583" x="107.2917" y="159.6395">Freelancer</text><ellipse cx="141.1458" cy="88.5396" fill="none" rx="8.3333" ry="8.3333" style="stroke:#2FA4E7;stroke-width:1.0416666666666667;"/><path d="M141.1458,96.873 L141.1458,124.998 M127.6042,105.2063 L154.6875,105.2063 M141.1458,124.998 L127.6042,140.623 M141.1458,124.998 L154.6875,140.623 " fill="none" style="stroke:#2FA4E7;stroke-width:1.0416666666666667;"/><text fill="#2FA4E7" font-family="Arial" font-size="12.5" lengthAdjust="spacing" textLength="61.4583" x="107.2917" y="1939.3677">Freelancer</text><ellipse cx="141.1458" cy="1956.5999" fill="none" rx="8.3333" ry="8.3333" style="stroke:#2FA4E7;stroke-width:1.0416666666666667;"/><path d="M141.1458,1964.9333 L141.1458,1993.0583 M127.6042,1973.2666 L154.6875,1973.2666 M141.1458,1993.0583 L127.6042,2008.6833 M141.1458,1993.0583 L154.6875,2008.6833 " fill="none" style="stroke:#2FA4E7;stroke-width:1.0416666666666667;"/><rect fill="none" height="39.3738" rx="4.1667" ry="4.1667" style="stroke:#2FA4E7;stroke-width:1.0416666666666667;" width="122.9167" x="234.8958" y="127.0813"/><text fill="#2FA4E7" font-family="Arial" font-size="12.5" lengthAdjust="spacing" textLength="97.9167" x="247.3958" y="151.3062">Message Module</text><rect fill="none" height="39.3738" rx="4.1667" ry="4.1667" style="stroke:#2FA4E7;stroke-width:1.0416666666666667;" width="122.9167" x="234.8958" y="1922.4345"/><text fill="#2FA4E7" font-family="Arial" font-size="12.5" lengthAdjust="spacing" textLength="97.9167" x="247.3958" y="1946.6593">Message Module</text><rect fill="none" height="39.3738" rx="4.1667" ry="4.1667" style="stroke:#2FA4E7;stroke-width:1.0416666666666667;" width="118.75" x="451.5625" y="127.0813"/><text fill="#2FA4E7" font-family="Arial" font-size="12.5" lengthAdjust="spacing" textLength="93.75" x="464.0625" y="151.3062">Contract Module</text><rect fill="none" height="39.3738" rx="4.1667" ry="4.1667" style="stroke:#2FA4E7;stroke-width:1.0416666666666667;" width="118.75" x="451.5625" y="1922.4345"/><text fill="#2FA4E7" font-family="Arial" font-size="12.5" lengthAdjust="spacing" textLength="93.75" x="464.0625" y="1946.6593">Contract Module</text><rect fill="none" height="39.3738" rx="4.1667" ry="4.1667" style="stroke:#2FA4E7;stroke-width:1.0416666666666667;" width="65.625" x="664.0625" y="127.0813"/><text fill="#2FA4E7" font-family="Arial" font-size="12.5" lengthAdjust="spacing" textLength="40.625" x="676.5625" y="151.3062">PayPal</text><rect fill="none" height="39.3738" rx="4.1667" ry="4.1667" style="stroke:#2FA4E7;stroke-width:1.0416666666666667;" width="65.625" x="664.0625" y="1922.4345"/><text fill="#2FA4E7" font-family="Arial" font-size="12.5" lengthAdjust="spacing" textLength="40.625" x="676.5625" y="1946.6593">PayPal</text><rect fill="none" height="39.3738" rx="4.1667" ry="4.1667" style="stroke:#2FA4E7;stroke-width:1.0416666666666667;" width="75" x="823.4375" y="127.0813"/><text fill="#2FA4E7" font-family="Arial" font-size="12.5" lengthAdjust="spacing" textLength="50" x="835.9375" y="151.3062">Firestore</text><rect fill="none" height="39.3738" rx="4.1667" ry="4.1667" style="stroke:#2FA4E7;stroke-width:1.0416666666666667;" width="75" x="823.4375" y="1922.4345"/><text fill="#2FA4E7" font-family="Arial" font-size="12.5" lengthAdjust="spacing" textLength="50" x="835.9375" y="1946.6593">Firestore</text><polygon fill="#2FA4E7" points="283.8542,204.7872,294.2708,208.9539,283.8542,213.1205,288.0208,208.9539" style="stroke:#2FA4E7;stroke-width:1.0416666666666667;"/><line style="stroke:#2FA4E7;stroke-width:3.125;" x1="66.6667" x2="290.1042" y1="208.9539" y2="208.9539"/><text fill="#343A40" font-family="Arial" font-size="12.5" lengthAdjust="spacing" textLength="147.9167" x="79.1667" y="199.0133">Go to chat with Freelancer</text><line style="stroke:#2FA4E7;stroke-width:3.125;" x1="296.3542" x2="340.1042" y1="277.0752" y2="277.0752"/><line style="stroke:#2FA4E7;stroke-width:3.125;" x1="340.1042" x2="340.1042" y1="277.0752" y2="290.6169"/><line style="stroke:#2FA4E7;stroke-width:3.125;" x1="297.3958" x2="340.1042" y1="290.6169" y2="290.6169"/><polygon fill="#2FA4E7" points="307.8125,286.4502,297.3958,290.6169,307.8125,294.7835,303.6458,290.6169" style="stroke:#2FA4E7;stroke-width:1.0416666666666667;"/><text fill="#343A40" font-family="Arial" font-size="12.5" lengthAdjust="spacing" textLength="121.875" x="308.8542" y="238.387">Load chat history and</text><text fill="#343A40" font-family="Arial" font-size="12.5" lengthAdjust="spacing" textLength="133.3333" x="308.8542" y="252.7608">interface to interact with</text><text fill="#343A40" font-family="Arial" font-size="12.5" lengthAdjust="spacing" textLength="134.375" x="308.8542" y="267.1346">Freelancer and contract</text><polygon fill="#2FA4E7" points="498.4375,325.824,508.8542,329.9906,498.4375,334.1573,502.6042,329.9906" style="stroke:#2FA4E7;stroke-width:1.0416666666666667;"/><line style="stroke:#2FA4E7;stroke-width:3.125;" x1="66.6667" x2="504.6875" y1="329.9906" y2="329.9906"/><text fill="#343A40" font-family="Arial" font-size="12.5" lengthAdjust="spacing" textLength="118.75" x="79.1667" y="320.05">Click "View Contract"</text><line style="stroke:#2FA4E7;stroke-width:3.125;" x1="510.9375" x2="554.6875" y1="369.3644" y2="369.3644"/><line style="stroke:#2FA4E7;stroke-width:3.125;" x1="554.6875" x2="554.6875" y1="369.3644" y2="382.9061"/><line style="stroke:#2FA4E7;stroke-width:3.125;" x1="511.9792" x2="554.6875" y1="382.9061" y2="382.9061"/><polygon fill="#2FA4E7" points="522.3958,378.7394,511.9792,382.9061,522.3958,387.0728,518.2292,382.9061" style="stroke:#2FA4E7;stroke-width:1.0416666666666667;"/><text fill="#343A40" font-family="Arial" font-size="12.5" lengthAdjust="spacing" textLength="117.7083" x="523.4375" y="359.4238">Load contract details</text><path d="M25,398.5311 L300,398.5311 L300,414.9882 L289.5833,425.4049 L20.8333,425.4049 L20.8333,402.6978 A4.1667,4.1667 0 0 1 25,398.5311 " fill="#E9ECEF" style="stroke:#868E96;stroke-width:1.0416666666666667;"/><rect fill="none" height="751.6398" rx="4.1667" ry="4.1667" style="stroke:#2FA4E7;stroke-width:1.0416666666666667;" width="983.8542" x="20.8333" y="398.5311"/><text fill="#033C73" font-family="Arial" font-size="12.5" font-weight="bold" lengthAdjust="spacing" textLength="221.875" x="41.6667" y="416.5059">Contract Module interaction for Client</text><path d="M35.4167,432.6965 L103.125,432.6965 L103.125,449.1536 L92.7083,459.5703 L31.25,459.5703 L31.25,436.8632 A4.1667,4.1667 0 0 1 35.4167,432.6965 " fill="#E9ECEF" style="stroke:#868E96;stroke-width:1.0416666666666667;"/><rect fill="none" height="313.739" rx="4.1667" ry="4.1667" style="stroke:#2FA4E7;stroke-width:1.0416666666666667;" width="963.0208" x="31.25" y="432.6965"/><text fill="#033C73" font-family="Arial" font-size="12.5" font-weight="bold" lengthAdjust="spacing" textLength="14.5833" x="52.0833" y="450.6714">alt</text><text fill="#343A40" font-family="Arial" font-size="12.5" font-weight="bold" lengthAdjust="spacing" textLength="138.5417" x="123.9583" y="451.7131">[Milestone NOT funded]</text><polygon fill="#2FA4E7" points="498.4375,495.6095,508.8542,499.7762,498.4375,503.9429,502.6042,499.7762" style="stroke:#2FA4E7;stroke-width:1.0416666666666667;"/><line style="stroke:#2FA4E7;stroke-width:3.125;" x1="66.6667" x2="504.6875" y1="499.7762" y2="499.7762"/><text fill="#343A40" font-family="Arial" font-size="12.5" lengthAdjust="spacing" textLength="127.0833" x="79.1667" y="489.8356">Click "Fund Milestone"</text><line style="stroke:#2FA4E7;stroke-width:3.125;" x1="510.9375" x2="554.6875" y1="539.15" y2="539.15"/><line style="stroke:#2FA4E7;stroke-width:3.125;" x1="554.6875" x2="554.6875" y1="539.15" y2="552.6917"/><line style="stroke:#2FA4E7;stroke-width:3.125;" x1="511.9792" x2="554.6875" y1="552.6917" y2="552.6917"/><polygon fill="#2FA4E7" points="522.3958,548.525,511.9792,552.6917,522.3958,556.8583,518.2292,552.6917" style="stroke:#2FA4E7;stroke-width:1.0416666666666667;"/><text fill="#343A40" font-family="Arial" font-size="12.5" lengthAdjust="spacing" textLength="126.0417" x="523.4375" y="529.2094">Show Payment Dialog</text><polygon fill="#2FA4E7" points="684.375,587.8988,694.7917,592.0654,684.375,596.2321,688.5417,592.0654" style="stroke:#2FA4E7;stroke-width:1.0416666666666667;"/><line style="stroke:#2FA4E7;stroke-width:3.125;" x1="510.9375" x2="690.625" y1="592.0654" y2="592.0654"/><text fill="#343A40" font-family="Arial" font-size="12.5" lengthAdjust="spacing" textLength="129.1667" x="523.4375" y="582.1248">Send Payment request</text><polygon fill="#2FA4E7" points="848.4375,627.2725,858.8542,631.4392,848.4375,635.6059,852.6042,631.4392" style="stroke:#2FA4E7;stroke-width:1.0416666666666667;"/><line style="stroke:#2FA4E7;stroke-width:3.125;" x1="696.875" x2="854.6875" y1="631.4392" y2="631.4392"/><text fill="#343A40" font-family="Arial" font-size="12.5" lengthAdjust="spacing" textLength="108.3333" x="709.375" y="621.4986">Payment Approved</text><line style="stroke:#2FA4E7;stroke-width:3.125;stroke-dasharray:2.0,2.0;" x1="860.9375" x2="904.6875" y1="685.1868" y2="685.1868"/><line style="stroke:#2FA4E7;stroke-width:3.125;stroke-dasharray:2.0,2.0;" x1="904.6875" x2="904.6875" y1="685.1868" y2="698.7284"/><line style="stroke:#2FA4E7;stroke-width:3.125;stroke-dasharray:2.0,2.0;" x1="861.9792" x2="904.6875" y1="698.7284" y2="698.7284"/><polygon fill="#2FA4E7" points="872.3958,694.5618,861.9792,698.7284,872.3958,702.8951,868.2292,698.7284" style="stroke:#2FA4E7;stroke-width:1.0416666666666667;"/><text fill="#343A40" font-family="Arial" font-size="12.5" lengthAdjust="spacing" textLength="91.6667" x="873.4375" y="660.8724">Milestone status</text><text fill="#343A40" font-family="Arial" font-size="12.5" lengthAdjust="spacing" textLength="103.125" x="873.4375" y="675.2462">updated to funded</text><polygon fill="#2FA4E7" points="307.8125,733.9355,297.3958,738.1022,307.8125,742.2689,303.6458,738.1022" style="stroke:#2FA4E7;stroke-width:1.0416666666666667;"/><line style="stroke:#2FA4E7;stroke-width:3.125;" x1="301.5625" x2="859.8958" y1="738.1022" y2="738.1022"/><text fill="#343A40" font-family="Arial" font-size="12.5" lengthAdjust="spacing" textLength="96.875" x="319.2708" y="728.1616">Notify Freelancer</text><path d="M35.4167,761.0189 L103.125,761.0189 L103.125,777.476 L92.7083,787.8927 L31.25,787.8927 L31.25,765.1855 A4.1667,4.1667 0 0 1 35.4167,761.0189 " fill="#E9ECEF" style="stroke:#868E96;stroke-width:1.0416666666666667;"/><rect fill="none" height="381.8604" rx="4.1667" ry="4.1667" style="stroke:#2FA4E7;stroke-width:1.0416666666666667;" width="957.8125" x="31.25" y="761.0189"/><text fill="#033C73" font-family="Arial" font-size="12.5" font-weight="bold" lengthAdjust="spacing" textLength="14.5833" x="52.0833" y="778.9937">alt</text><text fill="#343A40" font-family="Arial" font-size="12.5" font-weight="bold" lengthAdjust="spacing" textLength="187.5" x="123.9583" y="780.0354">[Milestone submitted or funded]</text><polygon fill="#2FA4E7" points="498.4375,823.9319,508.8542,828.0986,498.4375,832.2652,502.6042,828.0986" style="stroke:#2FA4E7;stroke-width:1.0416666666666667;"/><line style="stroke:#2FA4E7;stroke-width:3.125;" x1="66.6667" x2="504.6875" y1="828.0986" y2="828.0986"/><text fill="#343A40" font-family="Arial" font-size="12.5" lengthAdjust="spacing" textLength="121.875" x="79.1667" y="818.158">Click "Release funds"</text><polygon fill="#2FA4E7" points="848.4375,863.3057,858.8542,867.4723,848.4375,871.639,852.6042,867.4723" style="stroke:#2FA4E7;stroke-width:1.0416666666666667;"/><line style="stroke:#2FA4E7;stroke-width:3.125;" x1="510.9375" x2="854.6875" y1="867.4723" y2="867.4723"/><text fill="#343A40" font-family="Arial" font-size="12.5" lengthAdjust="spacing" textLength="76.0417" x="523.4375" y="857.5317">Send request</text><line style="stroke:#2FA4E7;stroke-width:3.125;stroke-dasharray:2.0,2.0;" x1="860.9375" x2="904.6875" y1="921.2199" y2="921.2199"/><line style="stroke:#2FA4E7;stroke-width:3.125;stroke-dasharray:2.0,2.0;" x1="904.6875" x2="904.6875" y1="921.2199" y2="934.7616"/><line style="stroke:#2FA4E7;stroke-width:3.125;stroke-dasharray:2.0,2.0;" x1="861.9792" x2="904.6875" y1="934.7616" y2="934.7616"/><polygon fill="#2FA4E7" points="872.3958,930.5949,861.9792,934.7616,872.3958,938.9282,868.2292,934.7616" style="stroke:#2FA4E7;stroke-width:1.0416666666666667;"/><text fill="#343A40" font-family="Arial" font-size="12.5" lengthAdjust="spacing" textLength="88.5417" x="873.4375" y="896.9055">Funds released</text><text fill="#343A40" font-family="Arial" font-size="12.5" lengthAdjust="spacing" textLength="75" x="873.4375" y="911.2793">to Freelancer</text><polygon fill="#2FA4E7" points="307.8125,969.9687,297.3958,974.1353,307.8125,978.302,303.6458,974.1353" style="stroke:#2FA4E7;stroke-width:1.0416666666666667;"/><line style="stroke:#2FA4E7;stroke-width:3.125;" x1="301.5625" x2="859.8958" y1="974.1353" y2="974.1353"/><text fill="#343A40" font-family="Arial" font-size="12.5" lengthAdjust="spacing" textLength="96.875" x="319.2708" y="964.1947">Notify Freelancer</text><polygon fill="#2FA4E7" points="498.4375,1009.3424,508.8542,1013.5091,498.4375,1017.6758,502.6042,1013.5091" style="stroke:#2FA4E7;stroke-width:1.0416666666666667;"/><line style="stroke:#2FA4E7;stroke-width:3.125;" x1="66.6667" x2="504.6875" y1="1013.5091" y2="1013.5091"/><text fill="#343A40" font-family="Arial" font-size="12.5" lengthAdjust="spacing" textLength="127.0833" x="79.1667" y="1003.5685">Click "Request refund"</text><polygon fill="#2FA4E7" points="848.4375,1048.7162,858.8542,1052.8829,848.4375,1057.0496,852.6042,1052.8829" style="stroke:#2FA4E7;stroke-width:1.0416666666666667;"/><line style="stroke:#2FA4E7;stroke-width:3.125;" x1="510.9375" x2="854.6875" y1="1052.8829" y2="1052.8829"/><text fill="#343A40" font-family="Arial" font-size="12.5" lengthAdjust="spacing" textLength="76.0417" x="523.4375" y="1042.9423">Send request</text><line style="stroke:#2FA4E7;stroke-width:3.125;stroke-dasharray:2.0,2.0;" x1="860.9375" x2="904.6875" y1="1121.0042" y2="1121.0042"/><line style="stroke:#2FA4E7;stroke-width:3.125;stroke-dasharray:2.0,2.0;" x1="904.6875" x2="904.6875" y1="1121.0042" y2="1134.5459"/><line style="stroke:#2FA4E7;stroke-width:3.125;stroke-dasharray:2.0,2.0;" x1="861.9792" x2="904.6875" y1="1134.5459" y2="1134.5459"/><polygon fill="#2FA4E7" points="872.3958,1130.3792,861.9792,1134.5459,872.3958,1138.7126,868.2292,1134.5459" style="stroke:#2FA4E7;stroke-width:1.0416666666666667;"/><text fill="#343A40" font-family="Arial" font-size="12.5" lengthAdjust="spacing" textLength="91.6667" x="873.4375" y="1082.3161">Milestone status</text><text fill="#343A40" font-family="Arial" font-size="12.5" lengthAdjust="spacing" textLength="60.4167" x="873.4375" y="1096.6899">updated to</text><text fill="#343A40" font-family="Arial" font-size="12.5" lengthAdjust="spacing" textLength="97.9167" x="873.4375" y="1111.0636">refund-requested</text><polygon fill="#2FA4E7" points="283.8542,1184.3363,294.2708,1188.503,283.8542,1192.6697,288.0208,1188.503" style="stroke:#2FA4E7;stroke-width:1.0416666666666667;"/><line style="stroke:#2FA4E7;stroke-width:3.125;" x1="141.1458" x2="290.1042" y1="1188.503" y2="1188.503"/><text fill="#343A40" font-family="Arial" font-size="12.5" lengthAdjust="spacing" textLength="119.7917" x="153.6458" y="1178.5624">Go to chat with Client</text><line style="stroke:#2FA4E7;stroke-width:3.125;" x1="296.3542" x2="340.1042" y1="1256.6243" y2="1256.6243"/><line style="stroke:#2FA4E7;stroke-width:3.125;" x1="340.1042" x2="340.1042" y1="1256.6243" y2="1270.166"/><line style="stroke:#2FA4E7;stroke-width:3.125;" x1="297.3958" x2="340.1042" y1="1270.166" y2="1270.166"/><polygon fill="#2FA4E7" points="307.8125,1265.9993,297.3958,1270.166,307.8125,1274.3327,303.6458,1270.166" style="stroke:#2FA4E7;stroke-width:1.0416666666666667;"/><text fill="#343A40" font-family="Arial" font-size="12.5" lengthAdjust="spacing" textLength="121.875" x="308.8542" y="1217.9362">Load chat history and</text><text fill="#343A40" font-family="Arial" font-size="12.5" lengthAdjust="spacing" textLength="133.3333" x="308.8542" y="1232.31">interface to interact with</text><text fill="#343A40" font-family="Arial" font-size="12.5" lengthAdjust="spacing" textLength="106.25" x="308.8542" y="1246.6838">Client and contract</text><polygon fill="#2FA4E7" points="498.4375,1305.3731,508.8542,1309.5398,498.4375,1313.7065,502.6042,1309.5398" style="stroke:#2FA4E7;stroke-width:1.0416666666666667;"/><line style="stroke:#2FA4E7;stroke-width:3.125;" x1="141.1458" x2="504.6875" y1="1309.5398" y2="1309.5398"/><text fill="#343A40" font-family="Arial" font-size="12.5" lengthAdjust="spacing" textLength="118.75" x="153.6458" y="1299.5992">Click "View Contract"</text><line style="stroke:#2FA4E7;stroke-width:3.125;" x1="510.9375" x2="554.6875" y1="1348.9136" y2="1348.9136"/><line style="stroke:#2FA4E7;stroke-width:3.125;" x1="554.6875" x2="554.6875" y1="1348.9136" y2="1362.4552"/><line style="stroke:#2FA4E7;stroke-width:3.125;" x1="511.9792" x2="554.6875" y1="1362.4552" y2="1362.4552"/><polygon fill="#2FA4E7" points="522.3958,1358.2886,511.9792,1362.4552,522.3958,1366.6219,518.2292,1362.4552" style="stroke:#2FA4E7;stroke-width:1.0416666666666667;"/><text fill="#343A40" font-family="Arial" font-size="12.5" lengthAdjust="spacing" textLength="117.7083" x="523.4375" y="1338.973">Load contract details</text><path d="M85.4167,1378.0802 L390.625,1378.0802 L390.625,1394.5374 L380.2083,1404.954 L81.25,1404.954 L81.25,1382.2469 A4.1667,4.1667 0 0 1 85.4167,1378.0802 " fill="#E9ECEF" style="stroke:#868E96;stroke-width:1.0416666666666667;"/><rect fill="none" height="527.6876" rx="4.1667" ry="4.1667" style="stroke:#2FA4E7;stroke-width:1.0416666666666667;" width="915.1042" x="81.25" y="1378.0802"/><text fill="#033C73" font-family="Arial" font-size="12.5" font-weight="bold" lengthAdjust="spacing" textLength="252.0833" x="102.0833" y="1396.0551">Contract Module interaction for Freelancer</text><path d="M95.8333,1412.2457 L163.5417,1412.2457 L163.5417,1428.7028 L153.125,1439.1195 L91.6667,1439.1195 L91.6667,1416.4124 A4.1667,4.1667 0 0 1 95.8333,1412.2457 " fill="#E9ECEF" style="stroke:#868E96;stroke-width:1.0416666666666667;"/><rect fill="none" height="235.8236" rx="4.1667" ry="4.1667" style="stroke:#2FA4E7;stroke-width:1.0416666666666667;" width="894.2708" x="91.6667" y="1412.2457"/><text fill="#033C73" font-family="Arial" font-size="12.5" font-weight="bold" lengthAdjust="spacing" textLength="14.5833" x="112.5" y="1430.2205">alt</text><text fill="#343A40" font-family="Arial" font-size="12.5" font-weight="bold" lengthAdjust="spacing" textLength="109.375" x="184.375" y="1431.2622">[Milestone funded]</text><polygon fill="#2FA4E7" points="498.4375,1475.1587,508.8542,1479.3254,498.4375,1483.492,502.6042,1479.3254" style="stroke:#2FA4E7;stroke-width:1.0416666666666667;"/><line style="stroke:#2FA4E7;stroke-width:3.125;" x1="141.1458" x2="504.6875" y1="1479.3254" y2="1479.3254"/><text fill="#343A40" font-family="Arial" font-size="12.5" lengthAdjust="spacing" textLength="137.5" x="153.6458" y="1469.3848">Click "Submit Milestone"</text><polygon fill="#2FA4E7" points="848.4375,1514.5325,858.8542,1518.6991,848.4375,1522.8658,852.6042,1518.6991" style="stroke:#2FA4E7;stroke-width:1.0416666666666667;"/><line style="stroke:#2FA4E7;stroke-width:3.125;" x1="510.9375" x2="854.6875" y1="1518.6991" y2="1518.6991"/><text fill="#343A40" font-family="Arial" font-size="12.5" lengthAdjust="spacing" textLength="76.0417" x="523.4375" y="1508.7585">Send request</text><line style="stroke:#2FA4E7;stroke-width:3.125;stroke-dasharray:2.0,2.0;" x1="860.9375" x2="904.6875" y1="1586.8205" y2="1586.8205"/><line style="stroke:#2FA4E7;stroke-width:3.125;stroke-dasharray:2.0,2.0;" x1="904.6875" x2="904.6875" y1="1586.8205" y2="1600.3621"/><line style="stroke:#2FA4E7;stroke-width:3.125;stroke-dasharray:2.0,2.0;" x1="861.9792" x2="904.6875" y1="1600.3621" y2="1600.3621"/><polygon fill="#2FA4E7" points="872.3958,1596.1955,861.9792,1600.3621,872.3958,1604.5288,868.2292,1600.3621" style="stroke:#2FA4E7;stroke-width:1.0416666666666667;"/><text fill="#343A40" font-family="Arial" font-size="12.5" lengthAdjust="spacing" textLength="91.6667" x="873.4375" y="1548.1323">Milestone status</text><text fill="#343A40" font-family="Arial" font-size="12.5" lengthAdjust="spacing" textLength="46.875" x="873.4375" y="1562.5061">updated</text><text fill="#343A40" font-family="Arial" font-size="12.5" lengthAdjust="spacing" textLength="68.75" x="873.4375" y="1576.8799">to submitted</text><polygon fill="#2FA4E7" points="307.8125,1635.5693,297.3958,1639.7359,307.8125,1643.9026,303.6458,1639.7359" style="stroke:#2FA4E7;stroke-width:1.0416666666666667;"/><line style="stroke:#2FA4E7;stroke-width:3.125;" x1="301.5625" x2="859.8958" y1="1639.7359" y2="1639.7359"/><text fill="#343A40" font-family="Arial" font-size="12.5" lengthAdjust="spacing" textLength="68.75" x="319.2708" y="1629.7953">Notify Client</text><path d="M95.8333,1662.6526 L163.5417,1662.6526 L163.5417,1679.1097 L153.125,1689.5264 L91.6667,1689.5264 L91.6667,1666.8193 A4.1667,4.1667 0 0 1 95.8333,1662.6526 " fill="#E9ECEF" style="stroke:#868E96;stroke-width:1.0416666666666667;"/><rect fill="none" height="235.8236" rx="4.1667" ry="4.1667" style="stroke:#2FA4E7;stroke-width:1.0416666666666667;" width="894.2708" x="91.6667" y="1662.6526"/><text fill="#033C73" font-family="Arial" font-size="12.5" font-weight="bold" lengthAdjust="spacing" textLength="14.5833" x="112.5" y="1680.6274">alt</text><text fill="#343A40" font-family="Arial" font-size="12.5" font-weight="bold" lengthAdjust="spacing" textLength="171.875" x="184.375" y="1681.6691">[Milestone refund-requested]</text><polygon fill="#2FA4E7" points="498.4375,1725.5656,508.8542,1729.7323,498.4375,1733.8989,502.6042,1729.7323" style="stroke:#2FA4E7;stroke-width:1.0416666666666667;"/><line style="stroke:#2FA4E7;stroke-width:3.125;" x1="141.1458" x2="504.6875" y1="1729.7323" y2="1729.7323"/><text fill="#343A40" font-family="Arial" font-size="12.5" lengthAdjust="spacing" textLength="115.625" x="153.6458" y="1719.7917">Click "Deliver again"</text><polygon fill="#2FA4E7" points="848.4375,1764.9394,858.8542,1769.106,848.4375,1773.2727,852.6042,1769.106" style="stroke:#2FA4E7;stroke-width:1.0416666666666667;"/><line style="stroke:#2FA4E7;stroke-width:3.125;" x1="510.9375" x2="854.6875" y1="1769.106" y2="1769.106"/><text fill="#343A40" font-family="Arial" font-size="12.5" lengthAdjust="spacing" textLength="76.0417" x="523.4375" y="1759.1654">Send request</text><line style="stroke:#2FA4E7;stroke-width:3.125;stroke-dasharray:2.0,2.0;" x1="860.9375" x2="904.6875" y1="1837.2274" y2="1837.2274"/><line style="stroke:#2FA4E7;stroke-width:3.125;stroke-dasharray:2.0,2.0;" x1="904.6875" x2="904.6875" y1="1837.2274" y2="1850.769"/><line style="stroke:#2FA4E7;stroke-width:3.125;stroke-dasharray:2.0,2.0;" x1="861.9792" x2="904.6875" y1="1850.769" y2="1850.769"/><polygon fill="#2FA4E7" points="872.3958,1846.6024,861.9792,1850.769,872.3958,1854.9357,868.2292,1850.769" style="stroke:#2FA4E7;stroke-width:1.0416666666666667;"/><text fill="#343A40" font-family="Arial" font-size="12.5" lengthAdjust="spacing" textLength="91.6667" x="873.4375" y="1798.5392">Milestone status</text><text fill="#343A40" font-family="Arial" font-size="12.5" lengthAdjust="spacing" textLength="46.875" x="873.4375" y="1812.913">updated</text><text fill="#343A40" font-family="Arial" font-size="12.5" lengthAdjust="spacing" textLength="68.75" x="873.4375" y="1827.2868">to submitted</text><polygon fill="#2FA4E7" points="307.8125,1885.9762,297.3958,1890.1428,307.8125,1894.3095,303.6458,1890.1428" style="stroke:#2FA4E7;stroke-width:1.0416666666666667;"/><line style="stroke:#2FA4E7;stroke-width:3.125;" x1="301.5625" x2="859.8958" y1="1890.1428" y2="1890.1428"/><text fill="#343A40" font-family="Arial" font-size="12.5" lengthAdjust="spacing" textLength="68.75" x="319.2708" y="1880.2022">Notify Client</text><!--SRC=[nLHDRzim3BtxLt2vvm_iCA1ruLsMh6YtdN9XRIOMeaYkH3V8ln_fZrZUagv3CUpWWyodnyT7KX-ufWD1IQ6rX6xfMxR6KHRtnZKOy00LRR6rN7Z7QnJeJJ1ea_WJbljTyAshSczzW6DjcB8CIvP3RWqv7Wv58BBe95ScLzcKfa77i5XHZBWZMFbAH2m08wnMSqWksOEmf9XyZhd7qxq8ItyL9b2KpAJmuZRBsB2LFCRgRqSHlaU27AFexPN2yfFaXe_msGDxA6jaE1gkK-qI7r5VF5Ozg3QQw0JeAjWuuvZ25ajIakwWsZkYZPkeEdGvb9Oeo9LRZkKU5ZyC7M4iVv7bgpEWJpuQKn6ZiJ7JLZJmYrzd3SOxs4vz0K3Ban-m_leDjj99gYG4S5bH8O3fpg97Jh8UQt_KPXpqwftCYjybaBvBWY8X6L61dbjXws0zGA75hR2Da9kc2Vvbq2MHvGYOn4T6RgCOt3OLCbNgVLACNXhQjlPijgUafneNa6ZwpPBOFXqCAvtOzaTl7aYsI6PAWJ6rfjFQ5PqMcnQYjaQ9TWGwH28_cRetbd1TM9TL-5NQtobxtUADwpcNm_NE7tLIlomHU6srXbbyxreDTSzMQfxztw_Lh5_pEKedyQggnsxOBY_Nk_hKJTDvbAyCq_bHkBG75vhyMYLtPCsBld0xDEu_bg7VJm00]--></g></svg>