<svg transform="scale(1)" id="_0491_phone_maintenance" xmlns="http://www.w3.org/2000/svg" xmlns:xlink="http://www.w3.org/1999/xlink" viewBox="0 0 500 500" class="show_show__wrapper__graphic__5Waiy "><title>React</title><defs><style>.cls-1{opacity:.1;}.cls-1,.cls-2,.cls-3{isolation:isolate;}.cls-1,.cls-2,.cls-3,.cls-4,.cls-5,.cls-6,.cls-7,.cls-8,.cls-9,.cls-10,.cls-11,.cls-12,.cls-13,.cls-14{stroke-width:0px;}.cls-1,.cls-14{fill:#020202;}.cls-2{opacity:.18;}.cls-2,.cls-3,.cls-13{fill:#059e96;}.cls-3{opacity:.35;}.cls-15{fill:none;stroke:url(#linear-gradient);stroke-miterlimit:10;stroke-width:.82px;}.cls-16{opacity:.19;}.cls-4{fill:url(#linear-gradient-4);}.cls-5{fill:url(#linear-gradient-2);}.cls-6{fill:url(#linear-gradient-3);}.cls-7{fill:#282328;}.cls-8{fill:#231f20;}.cls-9{fill:#e0a194;}.cls-10{fill:#633a33;}.cls-11{fill:#fff;}.cls-12{fill:#ffb4a3;}</style><linearGradient id="linear-gradient" x1="3977.29" y1="2607.8" x2="4196.56" y2="2432.67" gradientTransform="translate(4663.49 3185.55) rotate(-174.66) scale(1.07 1) skewX(4.95)" gradientUnits="userSpaceOnUse"><stop offset="0" stop-color="#fff"></stop><stop offset="1" stop-color="#cbcbcb"></stop></linearGradient><linearGradient id="linear-gradient-2" x1="4065.29" y1="2671.33" x2="4065.17" y2="2656.67" gradientTransform="translate(4663.49 3185.55) rotate(-174.66) scale(1.07 1) skewX(4.95)" xlink:href="#linear-gradient"></linearGradient><linearGradient id="linear-gradient-3" x1="4102.17" y1="2679.67" x2="4102.98" y2="2668.93" gradientTransform="translate(-162.48 5415.84) rotate(-114.89) scale(1.07 .99) skewX(4.9)" xlink:href="#linear-gradient"></linearGradient><linearGradient id="linear-gradient-4" x1="5344.06" y1="2788.07" x2="5196.05" y2="2689.67" gradientTransform="translate(-215.84 6215.51) rotate(-114.25)" gradientUnits="userSpaceOnUse"><stop offset="0" stop-color="#231f20"></stop><stop offset=".13" stop-color="#231f20" stop-opacity=".69"></stop><stop offset=".25" stop-color="#231f20" stop-opacity=".32"></stop><stop offset="1" stop-color="#231f20" stop-opacity="0"></stop></linearGradient></defs><g id="background"><path class="cls-2" d="M321.88,46.3c103.81-13.09,139.42,69.32,145.35,98.29,13.82,67.57-4.83,92.99-6.15,118.77-1.41,27.73,34.6,46.25,34.6,74.05-.17,29.98-12.02,58.71-33.03,80.09-29.54,29.79-73.25,41.01-115.13,43.2-41.88,2.19-83.91-3.28-125.8-1.03-39.67,2.13-243.11-37.05-208.26-221.25,9.5-50.27,90.76-63.47,133.44-97.17,34.26-27.14,65.41-81.13,174.98-94.96Z"></path><ellipse class="cls-3" cx="263.64" cy="393.82" rx="49.21" ry="184.75" transform="translate(-140.06 642.08) rotate(-87.79)"></ellipse></g><g id="phone"><path class="cls-13" d="M233.31,94.81v269.99c0,11.66,10.1,22.12,22.54,23.34l120.47,11.86c12.43,1.22,22.53-7.24,22.53-18.92V111.09c0-11.68-10.1-22.13-22.53-23.35l-120.47-11.86c-12.44-1.22-22.54,7.25-22.54,18.93ZM244.85,96.09c0-7.19,6.22-12.42,13.89-11.66l16.97,1.68v1.59c.25,4.86,4.05,8.79,8.89,9.21l64.72,6.41c4.91.47,8.88-2.86,8.88-7.46v-1.59l17.53,1.72c7.69.76,13.89,7.2,13.89,14.39v269.23c0,7.19-6.22,12.41-13.89,11.65l-117-11.53c-7.69-.76-13.89-7.19-13.89-14.39V96.09Z"></path><path class="cls-11" d="M227.65,99.79v269.99c0,11.66,10.1,22.12,22.54,23.34l120.47,11.86c12.43,1.22,22.53-7.24,22.53-18.92V116.07c0-11.68-10.1-22.13-22.53-23.35l-120.47-11.84c-12.44-1.23-22.54,7.24-22.54,18.92ZM239.18,101.08c0-7.19,6.22-12.42,13.89-11.66l16.97,1.68v1.59c.25,4.86,4.05,8.79,8.89,9.21l64.72,6.41c4.91.47,8.88-2.86,8.88-7.46v-1.59l17.52,1.72c7.69.76,13.89,7.2,13.89,14.39v269.23c0,7.19-6.22,12.41-13.89,11.65l-117-11.53c-7.69-.76-13.89-7.19-13.89-14.39V101.08Z"></path><path class="cls-15" d="M239.14,101.13v269.22c0,7.2,6.22,13.64,13.89,14.39l117,11.53c7.69.76,13.89-4.46,13.89-11.65V115.39c0-7.19-6.22-13.64-13.89-14.39l-17.53-1.74v1.6c0,4.6-3.97,7.93-8.88,7.46l-64.72-6.41c-4.85-.42-8.64-4.35-8.89-9.21v-1.55l-16.97-1.68c-7.68-.76-13.89,4.47-13.89,11.66Z"></path><path class="cls-11" d="M239.14,101.13v269.22c0,7.2,6.22,13.64,13.89,14.39l117,11.53c7.69.76,13.89-4.46,13.89-11.65V115.39c0-7.19-6.22-13.64-13.89-14.39l-17.53-1.74v1.6c0,4.6-3.97,7.93-8.88,7.46l-64.72-6.41c-4.85-.42-8.64-4.35-8.89-9.21v-1.55l-16.97-1.68c-7.68-.76-13.89,4.47-13.89,11.66Z"></path><path class="cls-2" d="M383.93,115.39v269.21c0,7.19-6.22,12.41-13.89,11.66l-116.63-11.53h-.37c-7.69-.76-13.89-7.19-13.89-14.39V101.13c0-7.19,6.22-12.42,13.89-11.65l16.98,1.65v1.6c.24,4.86,4.03,8.8,8.88,9.21l1.28.13,63.43,6.24c4.91.47,8.89-2.86,8.89-7.46v-1.61l17.56,1.74c1.4.13,2.78.46,4.09.97,5.69,2.07,9.56,7.38,9.78,13.43Z"></path><path class="cls-2" d="M383.93,115.39v269.21c0,7.19-6.22,12.41-13.89,11.66l-116.63-11.53h0c-5.64-2.22-9.74-7.55-9.74-13.41V102.15c0-7.2,6.22-12.42,13.88-11.66l12.47,1.28,4.51.44v1.61c.13,3.62,2.33,6.85,5.65,8.3,1.02.48,2.11.78,3.23.9l64.72,6.41c4.91.47,8.89-2.87,8.89-7.46v-1.7l17.1,1.69c5.7,2.06,9.58,7.37,9.8,13.43Z"></path><polygon class="cls-5" points="302.43 98.4 324.68 100.59 324.68 98.74 302.43 96.55 302.43 98.4"></polygon><ellipse class="cls-6" cx="296.57" cy="96.65" rx="2.2" ry="2.49" transform="translate(63.46 303.91) rotate(-59.69)"></ellipse></g><g id="character"><path class="cls-10" d="M101.74,220.92c-1.2-2.24-3.26-3.9-5.72-4.58-4.92-1.28-9.36,1.82-11.87,5.83-1.47,2.35-2.45,5.13-4.58,6.88-1.93,1.37-4.1,2.33-6.41,2.85-5.37,1.67-10.62,4.27-14.3,8.52-1.14,1.18-1.91,2.66-2.22,4.27-.29,2.33,1.01,4.69.56,7-.5,2.56-2.97,4.24-4.38,6.41-1.97,3.32-1.78,7.5.5,10.62,2.34,3.04,6.02,4.73,9.86,4.55,3.8-.23,7.38-1.9,10-4.67,5.54-5.68,6.98-14.88,13.57-19.3,1.79-1.2,4-2.11,4.88-4.08.63-1.38.42-2.99.68-4.47.45-2.59,2.2-4.76,4.64-5.74,3.84-1.47,7.92-.17,9.43-5.13.68-2.18-.13-4.56-2-5.87-.45-.23-.88-.51-1.28-.83-.46-.53-.81-1.14-1.04-1.81-.18-.17-.26-.31-.33-.46Z"></path><path class="cls-11" d="M134.07,247.13l-.14-.12.44.14-.29-.03Z"></path><path class="cls-12" d="M133.38,340.02c.15,1.78.7,3.5,1.59,5.05,1.06,1.41,2.52,2.47,4.19,3.04,3.6,1.34,7.58,1.25,11.11-.27.49-.16.9-.49,1.18-.92.14-.35.18-.74.09-1.12-.53-1.99-1.78-3.7-3.51-4.81-1.72-1.09-3.24-2.46-4.51-4.05-2.1-3.2-1.96-12.39-8.18-10.16-5.2,1.87-2.58,9.48-1.96,13.24Z"></path><path class="cls-7" d="M97.91,298.37c4.89-1.1,9.84-1.9,14.83-2.4,8.74-.86,15.14,1.28,19.4,9.28,3.84,7.28,7.86,14.64,9.89,22.63.47,1.88.82,4-.17,5.68-1.45,2.47-5.13,2.67-7.69,1.18s-3.95-4.1-5.42-6.57c-2.56-4.18-6.93-14.48-12.03-14.44-6.81,0-13.52,4.79-20.19,6.04-.68.22-1.43.15-2.05-.21-.44-.33-4.91.22-5.13-.32-1.5-5.13,1.91-11.6,1.69-16.97-.07-.55,0-1.1.23-1.6.5-.64,1.22-1.07,2.02-1.19,1.6-.38,3.1-.81,4.6-1.1Z"></path><path class="cls-13" d="M133.24,346.26s-.63,2.35.64,3.51,13.66,6.92,20.7.21c7.04-6.72-11.3-5.2-11.3-5.2l-10.04,1.49Z"></path><path class="cls-11" d="M133.05,340.96c.69-.44,1.59-.32,2.14.28,1.74,1.55,4.16,2.11,6.41,1.46,2.45-.91,3.1-3.95,4.36-4.11s8.64,4.7,9.32,7.1-2.56,4.63-6.27,5.33-12.64-.87-14.51-2.65c-1.67-2.08-2.21-4.85-1.45-7.41Z"></path><path class="cls-12" d="M116.52,359.18c-.53,1.7-.67,3.5-.44,5.27.44,1.71,1.39,3.24,2.73,4.4,2.82,2.61,6.54,4.03,10.38,3.96.51.04,1.02-.1,1.44-.4.27-.27.45-.62.51-1,.26-2.04-.25-4.1-1.44-5.78-1.15-1.67-2.02-3.51-2.56-5.46-.73-3.76,2.88-12.21-3.72-12.5-5.59-.31-6.04,7.79-6.91,11.51Z"></path><path class="cls-8" d="M99.5,307.19c4.94.83,9.82,1.97,14.62,3.4,8.42,2.56,13.51,6.97,14.44,15.96.86,8.2,1.72,16.52.56,24.68-.27,1.92-.76,4.01-2.29,5.19-2.28,1.74-5.81.5-7.52-1.81-1.72-2.31-2.1-5.29-2.56-8.14-.72-4.82-.92-16.03-5.65-17.94-8.04-3.23-17.3.83-25-3.43-2.77-1.42-5.35-3.18-7.69-5.24-2.33-2.08-3.97-4.82-4.72-7.86-.3-1.6-.37-3.24-.19-4.86.08-1.34.29-2.67.64-3.97.46-1.5.7-1.28,2.24-1.06,2.56.37,5.13.92,7.69,1.53,5.23,1.22,10.27,2.73,15.43,3.56Z"></path><path class="cls-13" d="M114.03,364.9s-1.47,1.94-.74,3.5,10.01,11.53,19.07,8.04c9.06-3.5-8.47-9.11-8.47-9.11l-9.86-2.42Z"></path><path class="cls-11" d="M115.85,359.95c.8-.15,1.6.3,1.87,1.08,1.03,2.11,3.07,3.54,5.4,3.78,2.56.09,4.37-2.47,5.59-2.15s6.22,7.69,5.93,10.11-4.09,3.32-7.82,2.56c-3.73-.76-11.37-5.6-12.42-7.96-.77-2.56-.22-5.34,1.45-7.42Z"></path><path class="cls-11" d="M124.3,278.61c-.36,2-1.22,3.69-3.05,4.06-.15.01-.31.01-.46,0-3.31.26-7.25-2.7-9.95-5.2-1.12-1.04-2.18-2.14-3.18-3.29l2.56-21.61,13.78,17.94c.54,2.67.64,5.4.29,8.1Z"></path><path class="cls-11" d="M138.09,274.6c-2.42,2.67-5.27,4.9-8.45,6.6-2.28,1.18-4.83,1.77-7.39,1.7-.34-.01-.67-.09-.97-.23-.53-.23-.98-.62-1.28-1.12-.91-1.39-1.36-3.03-1.28-4.69.33-4.33,5.31-6.27,5.31-6.27,0,0,11.02-2.11,12.23-1.41.65.38,1.13,1.95,1.44,3.31.26,1.13.41,2.1.41,2.1Z"></path><path class="cls-1" d="M138.09,274.6c-2.42,2.67-5.27,4.9-8.45,6.6-2.28,1.18-4.83,1.77-7.39,1.7-.34-.01-.67-.09-.97-.23-.15.01-.31.01-.46,0-3.31.26-7.25-2.7-9.95-5.2h0l1.78-6.41c1.69,2.23,3.74,4.17,6.06,5.74,1.63,1.14,3.58,1.75,5.58,1.74.54-.03,1.07-.12,1.59-.28,4.17-1.43,8.13-3.39,11.8-5.83.26,1.19.41,2.17.41,2.17Z"></path><path class="cls-12" d="M135.68,263.47c-.83.6-1.44,1.44-1.77,2.41-.08.5-.08,1.01,0,1.51.04.46.13.92.28,1.36.25.52.58.99.97,1.41l.9,1.04c.1.14.23.26.38.35.34.12.73,0,.95-.28.21-.28.36-.6.42-.95.53-1.79,1.99-4.67,1.68-6.55-.35-2.27-2.69-1.31-3.82-.29Z"></path><path class="cls-11" d="M110.97,277.48c-.13,1-.12,2.05-.24,3.06-.64,5.59-2.65,11.18-1.64,16.85.42,1.25.42,2.6,0,3.84-.59.94-1.5,1.64-2.56,1.96-5.24,2.1-11.02,2.24-16.66,2.36-4.24.09-10.25.62-13.91-2.1-1.53-1.15-1.87-3-2.18-4.84-.8-5.95-.96-11.96-.5-17.94,0-.78.08-1.56.13-2.35.32-5.38.85-10.74,1.59-16.07.55-3.84,1.36-8.04,4.24-10.66,3.84-3.49,10.66-5.29,15.73-5.61,1.64-.13,3.3-.02,4.91.32,2.27.65,4.41,1.67,6.33,3.04,2.32,1.5,4.38,2.79,5.29,5.37.99,2.96,1.55,6.05,1.68,9.18.11,2.93-.19,5.86-.88,8.7-.31,1.4-.85,2.77-1.15,4.15-.09.23-.13.49-.17.74Z"></path><path class="cls-1" d="M84.4,306.35c-1.68.28-5.23-1.65-6.41-2.01-.72-.23-1.28-.68-2.06-.95-3.59-1.36-2.78-11.8-2.81-14.64-.08-7.5-.63-15.38.17-22.75.18-2.88.86-5.71,2-8.36,1.17-2.67,3.47-4.69,6.28-5.49.54-.17,1.11-.17,1.65,0,2.19.85,2.22,4.61,2.38,6.41.26,2.83.9,5.82,3.09,7.81,5.34,4.86,15.56,2.96,21.99,2.68.58-.08,1.18.01,1.7.27.77.61,1.02,1.67.62,2.56-.4.85-.9,1.65-1.49,2.38-1.87,2.86-1.9,6.52-3.15,9.7-1.69,3.78-4.6,6.88-8.27,8.82-3.64,1.9-7.43,3.51-11.32,4.83-.87.28-1.69.71-2.41,1.28-.87.85-1.4,2-1.47,3.22-.1.78.6,3.26.24,3.77-.16.26-.44.43-.74.46Z"></path><rect class="cls-13" x="62.92" y="271.21" width="110.26" height="22.36" transform="translate(-184.61 236.82) rotate(-58.75)"></rect><rect class="cls-4" x="78.36" y="277.31" width="79.77" height="9.56" rx="4.11" ry="4.11" transform="translate(-184.26 236.84) rotate(-58.75)"></rect><path class="cls-12" d="M103.61,242.27c-.67.57-1.53.88-2.41.87-.74,0-1.48-.08-2.2-.22l-.41-.08c-.1-.03-.2-.03-.29,0-.1.07-.17.18-.18.31-.34,1.44-.54,2.91-.6,4.38h0v.81c.02.28-.04.57-.18.82-.24.28-.58.45-.95.47-.67.14-1.35.17-2.02.1-1.42-.32-2.74-.97-3.84-1.91.4-2.49.56-5.01.5-7.54-.09-3.26-.54-6.56.19-9.74.35-2.91,2.99-4.99,5.9-4.64.28.03.55.09.82.16,2.31.23,4.51,1.12,6.33,2.56.54.54.81,1.29.74,2.05.09,1.28.14,2.56.13,3.84s-.1,2.95-.26,4.42c0,1.22-.45,2.39-1.26,3.31Z"></path><path class="cls-9" d="M99,242.95l-.41-.08c-.1-.03-.2-.03-.29,0-.1.07-.17.18-.18.31-.34,1.44-.54,2.91-.6,4.38h0c-2.56-1.17-3.94-3.97-3.32-6.72,1.52.85,3.12,1.55,4.78,2.06l.03.04Z"></path><path class="cls-12" d="M118.52,257.87l.49-.58c.21-.24.53-.53.81-.37s.27.58.51.76c.13.08.28.13.44.13,1.37.09,2.72.3,4.05.63.82.15,1.49.75,1.73,1.55.06.56-.03,1.13-.27,1.64-.38,1.35-1.1,2.57-2.09,3.56-.87.64-1.86,1.11-2.91,1.38-.9.23-1.77.6-2.56,1.09-1.04.51-1.87,1.4-2.9,1.96-1.28.84-3.01.49-3.85-.8-.7-1.06-.59-2.45.26-3.39l1.7-2.02,4.59-5.54Z"></path><path class="cls-11" d="M80.49,252.21h0c4.33-.97,8.62,1.74,9.6,6.07l4.78,21.2c.98,4.33-1.74,8.63-6.07,9.6h0c-4.33.97-8.62-1.74-9.6-6.07l-4.78-21.2c-.98-4.33,1.74-8.63,6.07-9.6Z"></path><path class="cls-11" d="M93.13,270.28l18.72-7.5,5.84,8.48s-24.8,19.66-31.22,17.94c-6.42-1.72-2.83-8.25-2.83-8.25,0,0-1.58-7.65,9.48-10.68Z"></path><path class="cls-10" d="M99.16,231.03c-1.36.42-2.86.37-4.18.9-1.32.53-2.47,2.02-1.87,3.32-.49-.46-1.41,0-1.54.63-.05.69.31,1.35.92,1.67l-1.68,2.56c-.13.25-.32.45-.56.59-.25.09-.52.09-.77,0-1.16-.34-2.1-1.2-2.56-2.32-.45-1.12-.7-2.31-.73-3.51-.15-2.27-.15-4.55,0-6.82,0-1.1.22-2.18.63-3.2.66-1.18,1.64-2.15,2.83-2.79,2.54-1.59,5.59-2.15,8.52-1.56,2.17.51,5.61,2.5,5.96,5s-3.02,4.95-4.97,5.55Z"></path><path class="cls-13" d="M165.27,240.17c-9.23,6.33-21.85,3.98-28.19-5.25-6.33-9.23-3.98-21.85,5.25-28.19,4.18-2.87,9.28-4.07,14.3-3.36l-4.81,7.96-5.41,8.97,14.24,8.63,5.46-9.04,4.6-7.6c6.08,9.22,3.66,21.62-5.45,27.88Z"></path><path class="cls-13" d="M93.04,354.83c-4.31,2.33-9.33,3-14.1,1.88l12.56-16.38-13.23-10.14-12.6,16.44-.08-.13c-5.28-9.87-1.56-22.16,8.32-27.44,9.87-5.28,22.16-1.56,27.44,8.32,5.28,9.87,1.56,22.16-8.32,27.44,0,0,0,0,0,0h0Z"></path></g><g id="gear"><g class="cls-16" id="Q83r0t"><path class="cls-14" d="M255.37,369.73c-1.81-.13-3.51-.95-4.73-2.29-.92-1-1.81-2.05-2.76-3.02-1.62-2.02-4.35-2.79-6.78-1.9-2.49.91-.78-.21-.85,2.56v4.27c.05,3.33-2.61,6.06-5.94,6.11-.25,0-.5,0-.74-.04-2.56-.18-5.15-.38-7.77-.62-3.82-.34-6.76-3.54-6.75-7.38v-4.27c-.02-2.6-1.55-4.96-3.92-6.02-2.11-1.23-4.78-.93-6.55.76-.95.83-1.82,1.74-2.76,2.56-2.81,2.56-6.86,2.17-9.61-.83-1.91-2.08-3.84-4.17-5.69-6.28-2.78-3.13-2.77-7.14,0-9.83.88-.85,1.81-1.64,2.67-2.56,1.81-1.69,2.35-4.35,1.35-6.61-.8-2.46-2.96-4.22-5.54-4.5-1.38-.18-2.77-.21-4.15-.37-3.99-.32-7-3.77-6.77-7.77v-7.57c-.21-3.32,2.31-6.18,5.63-6.4.17-.01.34-.01.51-.01,1.42,0,2.86.15,4.28.27,2.58.39,5.08-1.08,6-3.52,1.06-2.44.47-4.93-1.61-7.27-.85-.95-1.72-1.87-2.56-2.83-2.54-2.63-2.54-6.79,0-9.42,2.02-1.99,4.09-3.92,6.22-5.77,2.8-2.27,6.9-1.88,9.23.87.96,1.03,1.87,2.11,2.86,3.13,1.6,1.91,4.22,2.61,6.56,1.77,2.36-.73,3.94-2.96,3.84-5.43v-3.99c.1-4.27,2.91-6.86,7.07-6.55l7.23.58c3.94.26,6.99,3.55,6.96,7.5v3.84c-.11,2.7,1.4,5.2,3.84,6.34,2.23,1.3,5.06.92,6.87-.92.86-.81,1.69-1.63,2.56-2.42,2.76-2.43,6.96-2.16,9.39.6.05.05.09.1.13.16,1.99,2.13,3.95,4.29,5.88,6.47,2.66,2.66,2.66,6.97,0,9.62h0c-.94.91-1.94,1.76-2.86,2.68-1.69,1.61-2.23,4.08-1.36,6.24.65,2.42,2.65,4.25,5.13,4.67,1.46.28,2.95.31,4.42.45,3.72.17,6.61,3.29,6.49,7.01.09,2.9.09,5.79,0,8.68-.13,4.11-3.43,9.28-7.46,8.97-1.28-.09-8.32-1.28-9.27,1.15s.29,3.93,2.08,5.99c.92,1.06,1.92,2.08,2.85,3.14,2.65,2.67,2.65,6.97,0,9.64-1.92,1.88-3.84,3.72-5.87,5.56-1.35,1.4-4.47,4.77-7.75,4.82ZM201.81,319.98c0,15.91,12.38,29.71,27.82,30.95,12.56.1,23.47-8.57,23.45-24.35.07-15.44-11.82-28.29-27.22-29.41-15.47-1.29-24.03,6.93-24.06,22.81Z"></path></g><g id="Q83r0t-2"><path class="cls-13" d="M254.8,368.87c-1.81-.12-3.51-.94-4.73-2.28-.92-1-1.81-2.05-2.76-3.04-1.62-2.02-4.35-2.77-6.78-1.88-2.4.79-3.97,3.09-3.84,5.61v4.27c.05,3.33-2.61,6.06-5.94,6.11-.25,0-.5,0-.74-.04-2.56-.18-5.15-.38-7.77-.62-3.82-.34-6.76-3.54-6.75-7.38v-4.27c-.02-2.6-1.55-4.96-3.92-6.02-2.11-1.24-4.78-.93-6.55.76-.95.83-1.82,1.74-2.76,2.56-2.81,2.56-6.86,2.17-9.61-.83-1.91-2.09-3.84-4.17-5.69-6.28-2.78-3.13-2.77-7.14,0-9.83.88-.85,1.81-1.64,2.67-2.56,1.82-1.69,2.36-4.35,1.35-6.61-.8-2.46-2.96-4.22-5.54-4.5-1.38-.18-2.77-.21-4.14-.37-4-.31-7.01-3.76-6.78-7.77v-7.57c-.21-3.32,2.31-6.18,5.63-6.4.17-.01.34-.01.51-.01,1.42,0,2.86.15,4.28.27,2.58.39,5.08-1.08,6-3.52,1.06-2.44.47-4.93-1.61-7.27-.85-.95-1.72-1.87-2.56-2.83-2.53-2.63-2.53-6.8,0-9.43,2.02-1.97,4.09-3.91,6.22-5.77,2.81-2.26,6.9-1.86,9.23.88.96,1.03,1.87,2.11,2.86,3.13,1.6,1.91,4.22,2.61,6.56,1.77,2.36-.73,3.94-2.96,3.84-5.43v-3.99c.1-4.27,2.91-6.87,7.07-6.55,2.41.19,4.82.37,7.23.58,3.94.26,6.99,3.55,6.96,7.5v3.84c-.11,2.7,1.4,5.2,3.84,6.34,2.23,1.3,5.06.92,6.87-.92.86-.81,1.69-1.63,2.56-2.42,2.76-2.43,6.96-2.16,9.39.6.05.05.09.1.13.16,1.99,2.13,3.95,4.29,5.88,6.41,2.66,2.66,2.66,6.97,0,9.62h0c-.94.91-1.92,1.76-2.86,2.68-1.69,1.61-2.23,4.08-1.36,6.24.65,2.42,2.65,4.25,5.13,4.67,1.46.28,2.95.29,4.42.45,3.72.17,6.61,3.29,6.49,7.01.09,2.9.09,5.79,0,8.68-.13,4.11-2.67,6.41-6.69,6.09-1.28-.09-2.56-.24-3.84-.28-2.41-.16-4.62,1.34-5.37,3.64-.96,2.29-.45,4.93,1.28,6.7.92,1.06,1.92,2.08,2.85,3.13,2.65,2.67,2.65,6.98,0,9.65-1.92,1.88-3.84,3.72-5.87,5.56-1.25,1.27-3,1.93-4.78,1.78ZM198.25,322.16c0,15.89,12.39,29.71,27.82,30.95,15.43,1.24,27.94-10.66,27.94-26.48s-12.5-29.62-27.8-30.86c-15.3-1.24-27.89,10.51-27.97,26.39Z"></path></g><g class="cls-16" id="Q83r0t-3"><path class="cls-14" d="M306.09,313.49c-.92-.06-1.79-.48-2.41-1.17-.47-.51-.92-1.05-1.4-1.55-.83-1.02-2.22-1.41-3.46-.96-1.28.46-.4-.1-.44,1.28v2.18c.02,1.71-1.35,3.1-3.06,3.12-.12,0-.23,0-.35-.02l-3.96-.32c-1.94-.2-3.42-1.82-3.45-3.77v-2.18c-.01-1.32-.79-2.52-2-3.06-1.08-.63-2.44-.48-3.35.38-.47.42-.92.88-1.4,1.28-1.41,1.24-3.57,1.11-4.81-.31-.03-.04-.07-.08-.1-.12-.97-1.06-1.95-2.13-2.91-3.2-1.38-1.34-1.42-3.55-.08-4.93.03-.03.05-.06.08-.08l1.36-1.28c.92-.87,1.19-2.22.68-3.37-.4-1.26-1.51-2.17-2.82-2.31-.7-.09-1.41-.1-2.11-.18-2.02-.2-3.54-1.94-3.46-3.97v-3.84c-.1-1.7,1.19-3.15,2.89-3.25.08,0,.17,0,.25,0,.72,0,1.45.08,2.18.14,1.32.2,2.59-.55,3.06-1.79.53-1.29.2-2.77-.83-3.7-.42-.49-.87-.96-1.28-1.45-1.29-1.34-1.29-3.47,0-4.81,1.03-1.01,2.09-2,3.17-2.95,1.43-1.14,3.51-.95,4.7.45.5.53.96,1.08,1.46,1.59.81.98,2.15,1.34,3.35.91,1.21-.37,2.02-1.5,1.97-2.77v-2.04c-.12-1.74,1.2-3.24,2.93-3.36.22-.02.45,0,.67.03l3.69.28c2.01.15,3.56,1.83,3.55,3.84v1.96c-.05,1.37.72,2.64,1.96,3.24,1.14.66,2.59.47,3.51-.47.44-.41.86-.83,1.28-1.28,1.4-1.24,3.54-1.11,4.78.29.03.03.05.06.08.1,1.01,1.09,2.02,2.18,3.01,3.29,1.35,1.36,1.35,3.55,0,4.91-.47.47-.97.9-1.45,1.37-.87.81-1.14,2.08-.69,3.18.32,1.22,1.32,2.15,2.56,2.38.74.14,1.5.15,2.24.23,1.9.08,3.38,1.68,3.31,3.58.05,1.47.05,2.94,0,4.42-.06,2.1-1.74,4.73-3.84,4.6-.67,0-4.26-.64-4.74.58s.15,2.01,1.06,3.06c.47.54.99,1.05,1.46,1.59,1.34,1.37,1.34,3.56,0,4.92-.99.96-2,1.9-3,2.83-.59.73-2.18,2.45-3.86,2.47ZM278.78,288.12c-.01,8.12,6.11,14.94,14.19,15.79,6.41,0,11.97-4.37,11.97-12.44.03-7.87-6.04-14.42-13.89-15-7.88-.64-12.25,3.55-12.27,11.65Z"></path></g><g id="Q83r0t-4"><path class="cls-13" d="M305.81,313.06c-.93-.06-1.79-.47-2.41-1.17-.47-.51-.92-1.04-1.41-1.54-.83-1.03-2.22-1.42-3.46-.97-1.22.41-2.03,1.58-1.96,2.87v2.17c.03,1.69-1.31,3.09-3,3.12-.14,0-.27,0-.4-.02l-3.96-.31c-1.95-.17-3.44-1.81-3.43-3.77v-2.18c-.02-1.33-.8-2.52-2-3.08-1.08-.62-2.43-.46-3.33.4-.49.42-.94.88-1.41,1.28-1.42,1.24-3.57,1.1-4.81-.32-.03-.04-.07-.08-.1-.12-.97-1.05-1.95-2.11-2.9-3.2-1.38-1.34-1.42-3.55-.08-4.93.03-.03.05-.06.08-.08.45-.42.91-.83,1.36-1.28.92-.87,1.2-2.23.68-3.38-.4-1.26-1.51-2.16-2.82-2.29-.7-.09-1.41-.1-2.11-.18-2.02-.2-3.54-1.94-3.46-3.97v-3.84c-.11-1.69,1.18-3.14,2.86-3.25.09,0,.18,0,.26,0,.72,0,1.45.08,2.18.13,1.31.2,2.59-.54,3.06-1.78.53-1.29.2-2.77-.82-3.72-.44-.47-.88-.95-1.28-1.45-1.29-1.34-1.29-3.47,0-4.81,1.04-1.01,2.09-1.99,3.18-2.93,1.43-1.15,3.52-.95,4.7.45.49.53.95,1.08,1.45,1.59.81.97,2.15,1.33,3.35.9,1.22-.36,2.03-1.5,1.99-2.77v-2.02c-.11-1.75,1.22-3.26,2.97-3.37.21-.01.43,0,.64.02l3.68.29c2.01.15,3.56,1.83,3.55,3.84v1.97c-.06,1.37.71,2.64,1.95,3.23,1.14.67,2.58.48,3.51-.46.44-.41.86-.83,1.28-1.28,1.4-1.23,3.54-1.1,4.78.3.02.03.05.05.07.08,1.03,1.09,2.02,2.19,3.01,3.31,1.35,1.36,1.35,3.55,0,4.91-.49.46-.99.9-1.46,1.36-.86.82-1.13,2.09-.69,3.19.32,1.22,1.32,2.15,2.56,2.38.75.11,1.5.18,2.26.22,1.9.09,3.37,1.69,3.31,3.59v4.42c.11,1.62-1.12,3.03-2.75,3.13-.23.01-.45,0-.67-.03-.65,0-1.28-.13-1.97-.14-1.23-.08-2.36.68-2.74,1.86-.48,1.16-.23,2.51.65,3.41.47.55.99,1.06,1.46,1.6,1.35,1.36,1.35,3.56,0,4.92-.99.96-2,1.9-3,2.83-.63.62-1.49.93-2.37.87ZM276.96,289.23c-.03,8.14,6.1,14.98,14.19,15.84,7.25.6,13.62-4.8,14.21-12.05.04-.49.05-.97.04-1.46-.04-8.08-6.14-14.85-14.17-15.74-7.21-.64-13.58,4.69-14.22,11.9-.04.5-.06,1-.05,1.5Z"></path></g></g><g id="screen"><polygon class="cls-11" points="447.36 263.48 334.5 253.08 334.5 173.27 447.36 183.68 447.36 263.48"></polygon><polygon class="cls-11" points="276.96 216.04 164.1 205.63 164.1 125.82 276.96 136.24 276.96 216.04"></polygon><path class="cls-11" d="M410.1,210.21l-114.22-10.54v-81.16l114.22,10.53v81.17ZM297.24,198.42l111.5,10.29v-78.44l-111.5-10.28v78.43Z"></path></g></svg>