<svg transform="scale(1.3)" id="_0686_Work_From_Home_2" xmlns="http://www.w3.org/2000/svg" xmlns:xlink="http://www.w3.org/1999/xlink" viewBox="-75 0 645 525" class="show_show__wrapper__graphic__5Waiy "><title>React</title><defs><style>.cls-1{fill:url(#linear-gradient);}.cls-1,.cls-2,.cls-3,.cls-4,.cls-5,.cls-6,.cls-7,.cls-8,.cls-9,.cls-10,.cls-11,.cls-12,.cls-13,.cls-14,.cls-15,.cls-16,.cls-17,.cls-18,.cls-19,.cls-20,.cls-21,.cls-22,.cls-23{stroke-width:0px;}.cls-2{isolation:isolate;opacity:.18;}.cls-2,.cls-23{fill:#059e96;}.cls-3{fill:url(#linear-gradient-11);}.cls-4{fill:url(#linear-gradient-12);}.cls-5{fill:url(#linear-gradient-13);}.cls-6{fill:url(#linear-gradient-10);}.cls-7{fill:url(#linear-gradient-17);}.cls-8{fill:url(#linear-gradient-16);}.cls-9{fill:url(#linear-gradient-15);}.cls-10{fill:url(#linear-gradient-18);}.cls-11{fill:url(#linear-gradient-14);}.cls-12{fill:url(#linear-gradient-4);}.cls-13{fill:url(#linear-gradient-2);}.cls-14{fill:url(#linear-gradient-3);}.cls-15{fill:url(#linear-gradient-8);}.cls-16{fill:url(#linear-gradient-9);}.cls-17{fill:url(#linear-gradient-7);}.cls-18{fill:url(#linear-gradient-5);}.cls-19{fill:url(#linear-gradient-6);}.cls-20{fill:#f3b6a5;}.cls-21{fill:#231f20;}.cls-22{fill:#fff;}</style><linearGradient id="linear-gradient" x1="434.25" y1="334.37" x2="391.29" y2="318.59" gradientUnits="userSpaceOnUse"><stop offset="0" stop-color="#221f20"></stop><stop offset=".08" stop-color="#221f20" stop-opacity=".69"></stop><stop offset=".21" stop-color="#221f20" stop-opacity=".32"></stop><stop offset="1" stop-color="#221f20" stop-opacity="0"></stop></linearGradient><linearGradient id="linear-gradient-2" x1="371.97" y1="337.65" x2="437.08" y2="319.19" xlink:href="#linear-gradient"></linearGradient><linearGradient id="linear-gradient-3" x1="356.41" y1="370.01" x2="415.56" y2="376.3" xlink:href="#linear-gradient"></linearGradient><linearGradient id="linear-gradient-4" x1="3107.06" y1="-79.04" x2="3720.29" y2="540.72" gradientTransform="translate(3846.17) rotate(-180) scale(1 -1)" xlink:href="#linear-gradient"></linearGradient><linearGradient id="linear-gradient-5" x1="404.2" y1="365.82" x2="148.57" y2="298.85" gradientUnits="userSpaceOnUse"><stop offset="0" stop-color="#221f20"></stop><stop offset=".08" stop-color="#221f20" stop-opacity=".69"></stop><stop offset=".11" stop-color="#221f20" stop-opacity=".6"></stop><stop offset=".25" stop-color="#221f20" stop-opacity=".25"></stop><stop offset=".45" stop-color="#221f20" stop-opacity=".06"></stop><stop offset="1" stop-color="#221f20" stop-opacity="0"></stop></linearGradient><linearGradient id="linear-gradient-6" x1="3610.45" y1="472.76" x2="3583.39" y2="160.93" gradientTransform="translate(3846.17) rotate(-180) scale(1 -1)" xlink:href="#linear-gradient-5"></linearGradient><linearGradient id="linear-gradient-7" x1="238.61" y1="323.47" x2="258.7" y2="816.87" xlink:href="#linear-gradient-5"></linearGradient><linearGradient id="linear-gradient-8" x1="3666.28" y1="309.26" x2="3650.82" y2="516.08" gradientTransform="translate(3846.17) rotate(-180) scale(1 -1)" xlink:href="#linear-gradient-5"></linearGradient><linearGradient id="linear-gradient-9" x1="3640.34" y1="353.93" x2="3636.85" y2="400.59" gradientTransform="translate(3846.17) rotate(-180) scale(1 -1)" xlink:href="#linear-gradient-5"></linearGradient><linearGradient id="linear-gradient-10" x1="3634.07" y1="340.56" x2="3624.99" y2="462.07" gradientTransform="translate(3846.17) rotate(-180) scale(1 -1)" xlink:href="#linear-gradient-5"></linearGradient><linearGradient id="linear-gradient-11" x1="3632.63" y1="356.58" x2="3759.43" y2="356.58" gradientTransform="translate(3846.17) rotate(-180) scale(1 -1)" gradientUnits="userSpaceOnUse"><stop offset="0" stop-color="#fff"></stop><stop offset="1" stop-color="#fff" stop-opacity="0"></stop></linearGradient><linearGradient id="linear-gradient-12" x1="343.08" y1="443.46" x2="306.58" y2="247.22" gradientUnits="userSpaceOnUse"><stop offset="0" stop-color="#221f20"></stop><stop offset=".2" stop-color="#221f20" stop-opacity=".69"></stop><stop offset=".23" stop-color="#221f20" stop-opacity=".6"></stop><stop offset=".35" stop-color="#221f20" stop-opacity=".25"></stop><stop offset=".52" stop-color="#221f20" stop-opacity=".06"></stop><stop offset="1" stop-color="#221f20" stop-opacity="0"></stop></linearGradient><linearGradient id="linear-gradient-13" x1="270.27" y1="362.11" x2="399.76" y2="385.18" xlink:href="#linear-gradient-12"></linearGradient><linearGradient id="linear-gradient-14" x1="354.58" y1="440.51" x2="359.42" y2="302.09" xlink:href="#linear-gradient-12"></linearGradient><linearGradient id="linear-gradient-15" x1="273.67" y1="446.49" x2="304.93" y2="288.53" xlink:href="#linear-gradient-12"></linearGradient><linearGradient id="linear-gradient-16" x1="289.41" y1="365.14" x2="347.71" y2="420.8" xlink:href="#linear-gradient-12"></linearGradient><linearGradient id="linear-gradient-17" x1="297.28" y1="352.87" x2="324.21" y2="356.21" xlink:href="#linear-gradient-12"></linearGradient><linearGradient id="linear-gradient-18" x1="266.67" y1="364.8" x2="293.19" y2="381.69" xlink:href="#linear-gradient-12"></linearGradient></defs><path class="cls-2" id="background" d="M466.42,380.55c10.83-15.76,18.98-33.37,23.75-51.89,25.77-99.99-53.05-186.05-133.76-232.92-42.56-24.72-95.9-35.35-141.6-17.06-28.35,11.34-51.38,32.55-76.35,50.12-25.53,17.97-53.51,32.38-78.18,51.52C18.42,212.8.6,253.44,5.7,306.02c4.21,43.33,22.54,84.68,50.36,118.02,25.4,30.44,75.3,38.52,113.06,31.85,30.75-5.43,59.4-21.12,90.55-23.21,40.58-2.73,81.07,17.94,120.96,10,13.47-2.68,26.15-8.56,37.78-15.86,18.96-11.9,35.33-27.82,48.01-46.27Z"></path><g id="plan"><path class="cls-23" d="M406.6,316.75c8.22,19.62,10.88,37.21,5.92,39.28-4.95,2.08-15.64-12.14-23.86-31.76-8.22-19.62-5.92-39.28-5.92-39.28,0,0,15.64,12.14,23.86,31.76Z"></path><path class="cls-1" d="M406.6,316.75c8.22,19.62,10.88,37.21,5.92,39.28-4.95,2.08-15.64-12.14-23.86-31.76-8.22-19.62-5.92-39.28-5.92-39.28,0,0,15.64,12.14,23.86,31.76Z"></path><path class="cls-23" d="M422.33,316.75c-8.22,19.62-10.88,37.21-5.92,39.28,4.95,2.08,15.64-12.14,23.86-31.76,8.22-19.62,5.92-39.28,5.92-39.28,0,0-15.64,12.14-23.86,31.76Z"></path><path class="cls-13" d="M422.33,316.75c-8.22,19.62-10.88,37.21-5.92,39.28,4.95,2.08,15.64-12.14,23.86-31.76,8.22-19.62,5.92-39.28,5.92-39.28,0,0-15.64,12.14-23.86,31.76Z"></path><path class="cls-23" d="M423.63,312.29c0,21.27-4.35,38.52-9.73,38.52s-9.73-17.24-9.73-38.52,9.73-38.52,9.73-38.52c0,0,9.73,17.24,9.73,38.52Z"></path><path class="cls-22" d="M390.62,349.28h48.81v31.98c0,13.47-10.94,24.4-24.4,24.4h0c-13.47,0-24.4-10.94-24.4-24.4v-31.98h0Z"></path><path class="cls-14" d="M390.62,349.28h48.81v31.98c0,13.47-10.94,24.4-24.4,24.4h0c-13.47,0-24.4-10.94-24.4-24.4v-31.98h0Z"></path></g><g id="character"><g id="character_1"><path class="cls-21" d="M325.95,415.54c.38-.53.74-1.07,1.09-1.63h-.01c-.35.55-.7,1.1-1.07,1.63Z"></path><path class="cls-21" d="M240.58,413.89h86.39c-.66-.39-9.03-5.21-20.43-9.7-.72-.28-1.42-.55-2.15-.83h-.01c-.72-.27-1.44-.53-2.18-.8-4.1-1.47-8.47-2.83-12.95-3.89-3.36-.8-6.76-1.43-10.16-1.82-7.54-.88-14.98-.55-21.49,1.82-4.32,1.58-8.23,4.07-11.47,7.72-2.04,2.3-3.88,4.8-5.54,7.49Z"></path><path class="cls-20" d="M286.01,330.75c-.54,1.43-1.53,2.64-2.62,3.72-3.96,3.94-9.16,6.43-14.5,8.07-5.34,1.64-10.88,2.49-16.36,3.6-6.96,1.42-13.83,3.26-20.69,5.09-4.18,1.12-8.38,2.24-12.4,3.85-4.94,1.98-8.81,4.59-12.85,7.99-.97.81-1.95,1.63-3.12,2.13-1.54.66-3.27.69-4.94.63-3.03-.11-6.05-.5-9.04-1.02-2.03-.35-4.18-.76-6.12-.06-3.72,1.35-5.02,5.98-8.12,8.43-.76.6-2.02.99-2.6.21-.27-.37-.26-.88-.23-1.34.11-1.67.35-3.33.72-4.96-1.5,1.68-3.16,3.23-4.94,4.62-.78.61-2.07,1.13-2.6.3-.25-.39-.18-.89-.09-1.35,1.79-8.71,7.15-16.63,14.59-21.52.77-.49,1.56-.97,2.41-1.32,1.98-.81,4.17-.89,6.29-.97,3-.1,6-.15,9-.3,11.24-.58,20.85-4.81,26.83-7.79,11.62-5.82,23.25-11.62,34.88-17.43-.41-2.11-.81-4.23-1.22-6.34,7.46-1.32,14.85-3.26,22.08-5.49,1.49,3.91,2.98,7.83,4.47,11.74,1.16,3.06,2.32,6.45,1.18,9.52Z"></path><path class="cls-21" d="M250.59,251.58c-1.07,2.07-2.76,4.13-5.08,4.35-1.2.11-2.4-.3-3.61-.27-2.9.06-5.21,2.64-6.1,5.4-.72,2.25-.69,4.84.56,6.85s3.91,3.19,6.11,2.33c-.26,2.37,1.53,4.58,3.69,5.58s4.62,1.07,7,1.12c.52.01,1.06.02,1.56-.16,1.52-.56,1.96-2.61,3.37-3.4,2.91,2.27,6.53,3.61,10.21,3.8,1.21.06,2.46,0,3.54-.54.94-.46,1.68-1.24,2.39-2.01,2.05-2.24,4.07-4.69,4.78-7.65.83-3.46-.3-7.16-2.26-10.12-3.71-5.6-9.9-8.7-15.57-11.93-1.42-.81-7.31-5.25-8.13-4.27-.66.79-.28,4.38-.54,5.58-.4,1.85-1.05,3.65-1.92,5.34Z"></path><path class="cls-23" d="M263.41,266.85s-16.92,6.64-19.01,7.93c-6.28,3.86-15.01,4.97-18.19,11.95-4.38,9.63-6.11,20.51-4.96,31.03,1.89,17.3,11.35,33.96,8.61,51.15-.91,5.69-3.13,11.12-3.98,16.82-.21,1.39-.32,2.85.13,4.18,3.08,9.1,19.64,7.47,26.92,8.09l10.48-131.14Z"></path><path class="cls-21" d="M246.59,316.18c-.15,1.59-.26,3.19-.34,4.79-.46,10.23.68,21.08,3.36,30.93.29,1.06.54,2.15.76,3.23.09.39.17.78.23,1.19.06.25.1.52.15.77.06.32.1.65.16.97.09.53.17,1.05.23,1.58.05.35.09.69.13,1.04.18,1.42.31,2.85.38,4.28-.01.03,0,.08,0,.12.09,1.64.1,3.29.07,4.93-.07,2.62-.29,5.24-.69,7.84-.12.78-.24,1.57-.4,2.35-.07.39-.14.78-.23,1.18-.08.38-.16.77-.25,1.17-.4,1.77-.89,3.51-1.47,5.22-.39,1.14-.82,2.26-1.29,3.37-.24.55-.5,1.1-.75,1.64-.17.36-.36.72-.54,1.06-.17.32-.35.65-.53.97-.21.38-.43.75-.66,1.12-.28.45-.57.89-.85,1.33-.32.47-.66.95-.99,1.42-2.25,3.2-4.69,6.29-5.85,10.01-.01.03-.02.08-.03.12-.09.29-.17.58-.24.88-.08.32-.14.65-.2.95-.05.31-.09.61-.12.92-.02.29-.03.58-.03.85v.1c0,.25.01.51.03.76.01.14.03.28.06.42,0,.07.01.14.02.21.05.28.09.55.16.83-.06-.28-.12-.55-.15-.83h90.27s.05.02.05.02c-.35.55-.7,1.1-1.07,1.63.38-.53.74-1.07,1.1-1.65.08-.14.16-.29.25-.43.17-.3.35-.61.51-.92.39-.77.72-1.59.87-2.46.44-2.57-.67-5.14-1.62-7.58-.48-1.26-.94-2.53-1.34-3.82-.12-.37-.23-.74-.33-1.12-.23-.75-.44-1.51-.63-2.27-.23-.87-.44-1.74-.62-2.62-.14-.69-.28-1.39-.4-2.08-.15-.83-.29-1.67-.4-2.5-.02-.14-.03-.28-.06-.42-.13-.89-.23-1.78-.31-2.67,0-.09-.01-.18-.02-.28-.08-.93-.15-1.88-.2-2.82v-.14c-.05-.98-.07-1.96-.07-2.94,0-1.39.05-2.76.13-4.12.08-1.36.22-2.71.38-4.06.03-.21.06-.42.08-.62.03-.25.07-.5.1-.74.06-.44.13-.89.21-1.34.09-.53.18-1.06.29-1.59.01-.06.02-.13.03-.2.38-2.04.82-4.06,1.3-6.07.24-1.04.5-2.07.77-3.11,1.34-5.15,2.9-10.2,4.39-15.28.28-.9.54-1.81.81-2.72.05-.18.1-.38.16-.58.27-.91.53-1.84.78-2.76.14-.52.28-1.05.43-1.58.06-.22.12-.44.18-.66,0-.02,0-.03.01-.07l.66-2.56c.1-.44.21-.88.31-1.32.48-2.07.94-4.13,1.32-6.23.09-.52.18-1.04.28-1.57.17-1.06.32-2.12.46-3.19.07-.53.14-1.07.2-1.6.18-1.62.31-3.26.39-4.89.06-1.21.06-2.46.01-3.74-.35-9.14-3.44-19.45-8.74-27.69-.66-1.03-1.23-2.49-2.11-3.33-.96-.93-2.58-1.57-3.72-2.27-2.6-1.6-5.19-3.22-7.76-4.85-1.93-1.23-3.86-2.46-5.78-3.71-.85-.55-1.69-1.19-2.59-1.66-.78-.4-1.76-.58-2.48-1.06-3.3-2.2-7.98-3.01-11.81-3.17-4.51-.19-9.06-.19-13.53.57-6,1.02-11.93,3.51-16.01,8.02-1.35,1.48-2.36,3.16-3.5,4.8-.92,1.32-2.48,2.19-3.19,3.67-2.14,4.41-3.14,9.29-4.21,14.04-1.83,8.14-3.55,16.34-4.33,24.63Z"></path><path class="cls-12" d="M246.36,342.48c.22.5.43.99.62,1.49.02.05.03.09.06.14.2.49.38.97.57,1.45.2.52.38,1.04.57,1.56.18.53.36,1.05.52,1.58.17.53.33,1.06.48,1.59s.3,1.06.44,1.6c.29,1.06.54,2.15.76,3.23.08.39.16.8.23,1.19.06.25.1.52.15.77.06.32.1.65.16.97.08.53.16,1.05.23,1.58.05.35.09.69.13,1.04.17,1.42.3,2.85.38,4.28-.01.03,0,.08,0,.12.08,1.64.1,3.29.05,4.93-.06,2.62-.29,5.24-.68,7.83h.01c1.1.45,2.26.76,3.44.98,1.02.2,2.07.33,3.09.45,6.58.73,13.23.66,19.77,1.59.23.03.45.07.68.1,6.33.98,12.64,3.04,17.43,7.25,3.19,2.79,5.32,6.43,6.22,10.46.23.97.37,1.95.45,2.97.02.31.05.61.08.92.05.45.09.91.15,1.36.4,3.34,1.04,6.58,1.24,9.96h23.39s.05.02.05.02c0-.01.01-.01.01-.02h.01c.08-.14.16-.29.25-.43.17-.3.35-.61.51-.92.39-.77.72-1.59.87-2.46.44-2.57-.67-5.14-1.62-7.58-.48-1.26-.94-2.53-1.34-3.82-.12-.37-.23-.74-.33-1.12-.23-.75-.44-1.51-.63-2.27-.23-.87-.44-1.74-.62-2.62-.14-.69-.28-1.39-.4-2.08-.15-.83-.29-1.67-.4-2.5-.02-.14-.03-.28-.06-.42-.13-.89-.23-1.78-.31-2.67,0-.09-.01-.18-.02-.28-.08-.93-.15-1.88-.2-2.82v-.14c-.05-.98-.07-1.96-.07-2.94,0-1.39.05-2.76.13-4.12.08-1.36.22-2.71.38-4.06.03-.21.06-.42.08-.62.03-.25.07-.5.1-.74.07-.45.14-.89.22-1.34.09-.53.18-1.06.28-1.59.01-.06.02-.13.03-.2.39-2.04.83-4.06,1.3-6.07.25-1.04.51-2.08.77-3.11,1.34-5.15,2.9-10.2,4.39-15.28.28-.9.54-1.81.81-2.72.05-.18.1-.38.16-.58.27-.91.53-1.84.78-2.76.14-.52.28-1.05.43-1.57h0c.06-.23.12-.45.18-.67,0-.02,0-.03.01-.05t0-.02l.66-2.56c.1-.44.21-.88.31-1.32.48-2.07.94-4.13,1.32-6.23.09-.52.18-1.04.28-1.56t0-.01c.17-1.06.32-2.12.46-3.19-.23-.09-.47-.17-.7-.27-3.32-1.25-6.65-2.49-9.97-3.74-5.03-1.88-10.05-3.76-15.08-5.64.05,2.02,0,4.05-.15,6.11h0c-.24,3.79-.81,7.56-1.81,11.19-2.48,9.02-15.54,13.79-23.71,15.48-2.92.6-5.88,1.09-8.83,1.42-6.05.74-12.14.94-18.22.62-3.66-.18-7.31-.57-10.92-1.13Z"></path><path class="cls-23" d="M294.12,260.35s-21.85,30.7-19.92,62.11c1.93,31.41,5.8,87.65,5.8,87.65l55.76-15.41s-2.08-52.7-3.15-58.04,11.17-49.06-1.07-57.48-36.53-23.46-37.41-18.82Z"></path><path class="cls-18" d="M315.36,308.8s-2.51,27.03-12.98,32.61-15.9,25.36-15.9,25.36l6.18,3.88h42.06l-5.97-58.63-13.4-3.21Z"></path><path class="cls-20" d="M286.6,264.74c-4.35,4.43-9.24,8.38-15.21,9.71-1.66.37-3.71.37-4.68-1.02-.47-.67-.57-1.52-.64-2.33-.43-4.88.33-9.47-1.79-14.05-1.2-2.6-3.33-3.01-5.71-2.85-2.05.12-4.26.69-6.23.69-2.94,0-5.76-1.07-7.98-2.99-2.83-2.57-3.55-6.85-3.83-10.76-.45-4.88-.67-9.86-.67-14.67,0-4.29.22-8.63.59-12.91.27-2.76.36-4.87,2.57-6.77,6.09-4.7,13.41-7.57,21.09-8.27,5.76-.64,12.12.1,16.43,4,2.96,3.05,4.94,6.94,5.62,11.13,1.01,6.15,1.14,10.85-.26,16.86-.86,3.74-3.89,8.48-3.43,12.34s3.06,8.17,4.97,11.64c.85,1.54,1.69,3.08,2.54,4.62.23.41.46.88.37,1.34-.07.35-.32.62-.56.89-1.04,1.14-2.1,2.28-3.19,3.4Z"></path><path class="cls-21" d="M240.2,216.98c-2.9-1.07-5.7-4.36-6.37-7.37s-.07-6.21,1.22-9.01c3.85-8.36,14.24-13.08,23.06-10.48,1.66.49,3.25,1.2,4.93,1.61,2.81.7,5.75.54,8.65.68,6.01.3,11.94,1.91,17.35,4.55,2.77,1.35,5.47,3.01,7.39,5.42,2.86,3.58,3.68,8.37,3.77,12.95s-.44,9.18.12,13.72c.58,4.66-.08,8.7,4.3,11.95,1.03-1.81,3.6-2.02,5.6-1.43,3.17.94,5.88,3.43,6.9,6.57s.25,6.85-2.09,9.19c-.46.46-.99.88-1.28,1.46-.37.72-.34,1.57-.42,2.38-.27,2.62-1.93,5.05-4.27,6.25s-5.29,1.12-7.57-.19c-2.91,3.61-8.49,4.08-12.76,2.27s-7.49-5.4-10.42-8.99c-4.22-5.17-6.48-11.13-8.11-17.55-.79-3.14-1.3-6.38-1.06-9.61.3-4.17,1.81-8.19,2-12.37.09-1.83-.13-3.81-1.33-5.21-1.28-1.5-3.32-1.04-4.86-2.08-1.2-.81-1.77-2.28-3.15-2.89-1.64-.73-3.33-1.24-5.12-1.3-14.92-.52-16.41,6.27-16.5,9.48Z"></path><path class="cls-20" d="M267.34,263.53c-.21-.13-.4-.31-.57-.49-1.6-1.68-1.52-3.94-2.48-6-1.2-2.6-3.33-3.01-5.71-2.87,0,0,10.21-3.63,11.68-6.94-.11.25.4,1.42.46,1.7.31,1.4.49,2.84.52,4.28.04,1.9-.16,3.81-.7,5.63-.32,1.07-.82,2.01-1.26,3.02-.28.64-.26,1.95-1.25,1.9-.25-.01-.47-.1-.68-.24Z"></path></g><path class="cls-23" d="M344.5,309.79c1.53,3.82,3.19,7.59,4.59,11.46.56,1.54.78,2.99,1.14,4.53.39,1.68,1.43,3.05.8,4.86-.37,1.05-1.22,1.87-2.12,2.53-5,3.67-11.68,3.65-17.84,4.39-3.05.37-6.17.95-9.15.21-.92-.23-1.85-.62-2.42-1.38-.35-.47-.52-1.04-.69-1.59-2.89-9.43-8.73-20.76-6.34-30.87,2.51-10.6,13.19-24.61,20.96-22.91.49.11,1.56,3.58,1.75,4.01,1.56,3.66,3.06,7.34,4.5,11.05,1.76,4.52,3.05,9.28,4.82,13.72Z"></path><path class="cls-20" d="M342.95,357.96c-.81,1.29-2.03,2.28-3.31,3.12-4.67,3.07-10.26,4.47-15.82,5.01-5.56.54-11.16.27-16.75.26-7.1,0-14.2.43-21.29.86-4.32.26-8.66.52-12.92,1.3-5.24.95-9.55,2.74-14.19,5.26-1.11.6-2.24,1.21-3.48,1.47-1.64.34-3.34.02-4.97-.37-2.95-.71-5.83-1.7-8.66-2.8-1.92-.75-3.94-1.58-5.99-1.28-3.91.58-6.11,4.86-9.64,6.64-.87.44-2.18.57-2.59-.31-.19-.42-.08-.91.04-1.36.44-1.61,1.01-3.19,1.7-4.72-1.81,1.35-3.74,2.53-5.76,3.54-.89.44-2.25.69-2.61-.23-.17-.43,0-.91.18-1.34,3.49-8.18,10.33-14.87,18.59-18.18.85-.33,1.72-.64,2.62-.81,2.1-.4,4.26-.04,6.36.31,2.96.5,5.91,1.05,8.88,1.5,11.13,1.67,21.39-.55,27.85-2.28,12.55-3.38,25.1-6.75,37.66-10.12.02-2.15.05-4.31.07-6.46,7.57.19,15.2-.23,22.73-.97.68,4.13,1.36,8.27,2.04,12.4.53,3.23.99,6.78-.74,9.56Z"></path></g><g id="table"><polygon class="cls-22" points="406.27 370.01 143.41 370.01 52.56 398.67 431.4 398.67 406.27 370.01"></polygon><polygon class="cls-19" points="406.45 370.01 143.58 370.01 52.74 398.67 431.57 398.67 406.45 370.01"></polygon><rect class="cls-22" x="52.57" y="398.67" width="378.83" height="15.21"></rect><rect class="cls-17" x="52.57" y="398.67" width="378.83" height="15.21"></rect></g><g id="laptop"><path class="cls-23" d="M213.55,395.44l40.6-17.99c3.46-1.53,3.03-6.44-.6-6.9l-66.11-8.51-66.42,24.36,92.53,9.04h0Z"></path><path class="cls-15" d="M207.44,392.09l36.7-16.26c3.13-1.38,2.74-5.82-.54-6.24l-59.75-7.69-60.04,22.02,83.63,8.17h0Z"></path><polygon class="cls-16" points="220.3 368.45 211.06 372.69 193.67 370.06 201.51 366.2 220.3 368.45"></polygon><polygon class="cls-6" points="198.35 372.69 231.05 377.85 206.03 390.89 198.35 372.69"></polygon><path class="cls-23" d="M213.55,395.44l-37.21-71.24c-.91-1.73-2.67-2.83-4.7-2.92l-81.17-3.55c-2.63-.12-4.54,2.7-3.35,4.95l33.9,63.73,92.53,9.04h0Z"></path><path class="cls-3" d="M213.55,395.44l-37.21-71.24c-.91-1.73-2.67-2.83-4.7-2.92l-81.17-3.55c-2.63-.12-4.54,2.7-3.35,4.95l33.9,63.73,92.53,9.04h0Z"></path><ellipse class="cls-22" cx="141.77" cy="355.71" rx="5.85" ry="6.88" transform="translate(-231.37 269.73) rotate(-55.29)"></ellipse></g><g id="cat"><path class="cls-23" d="M297.93,349.7c10.5-4.69,22.81-1.59,34.09-3.85,3.96-.79,7.75-2.24,11.65-3.26,8.94-2.34,18.83-2.28,27.04,1.98,3.83,1.99,7.16,4.97,9.57,8.55,6.59,9.82,5.31,22.99-5.17,29.61-4.01,2.53-8.8,3.6-13.53,3.89s-9.48-.15-14.21-.41c-6.52-.36-13.17-.37-19.43,1.47-.52.15-1.07.32-1.58.15-.94-.3-1.22-1.55-.95-2.49s.93-1.74,1.29-2.65.35-2.14-.47-2.69c-.44,1.38-1.19,2.79-2.52,3.39-.65.29-1.38.36-2.07.58-1.94.63-3.25,2.4-4.86,3.66-2.78,2.17-6.29.76-8.97-.84-2.44-1.46-5.35-2.11-8.18-1.82-.49.05-1.01.14-1.39.47-.67.58-.61,1.6-.87,2.44-.44,1.46-1.91,2.43-3.4,2.73s-3.05.05-4.55-.21c-1.43-.24-3.76-.83-3.69-2.71.05-1.49,1.72-2.43,1.83-4.16.18-2.63-2.04-4.72-3.19-7.09-1.04-2.17-1.2-4.64-1.33-7.04-.14-2.44-.51-5.51.44-7.84.62-1.53,2.02-2.16,3.18-3.24,3.54-3.31,6.74-6.58,11.26-8.59Z"></path><path class="cls-4" d="M297.93,351.47c10.5-4.69,22.81-1.59,34.09-3.85,7.86-1.58,15.02-3.93,23.18-2.47,5.07.91,10.01,2.99,13.83,6.45s6.44,8.36,6.64,13.51c.27,7.08-3.93,13.66-9.15,18.45-5.99,5.5-11.52,4.83-19.16,4.4-6.52-.36-13.17-.37-19.43,1.47-.52.15-1.07.32-1.58.15-.94-.3-1.22-1.55-.95-2.49s.93-1.74,1.29-2.65.35-2.14-.47-2.69c-.44,1.38-1.19,2.79-2.52,3.39-.65.29-1.38.36-2.07.58-1.94.63-3.25,2.4-4.86,3.66-2.78,2.17-6.29.76-8.97-.84-2.44-1.46-5.35-2.11-8.18-1.82-.49.05-1.01.14-1.39.47-.67.58-.61,1.6-.87,2.44-.44,1.46-1.91,2.43-3.4,2.73s-3.05.05-4.55-.21c-1.43-.24-3.76-.83-3.69-2.71.05-1.49,1.72-2.43,1.83-4.16.18-2.63-2.04-4.72-3.19-7.09-1.04-2.17-1.2-4.64-1.33-7.04-.14-2.44-.51-5.51.44-7.84.62-1.53,2.02-2.16,3.18-3.24,3.54-3.31,6.74-6.58,11.26-8.59Z"></path><path class="cls-5" d="M318.94,374.2c2.61-1.87,5.5-3.31,8.37-4.74-2.83-.53-5.67-1.06-8.43-1.87-.97-.29-1.95-.62-2.75-1.23-.8-.62-1.37-1.48-1.92-2.33-.85-1.3-1.7-2.61-2.56-3.91-.2,4.42-.39,8.85-.59,13.27-.06,1.31.18,6.02,2.48,5.69.88-.13,1.78-1.75,2.39-2.35.93-.93,1.95-1.77,3.02-2.53Z"></path><path class="cls-23" d="M375.55,356.43c1.11,2.24.81,4.99-.28,7.24s-2.9,4.07-4.8,5.7c-2.29,1.95-4.83,3.7-7.72,4.56-2.85.84-5.87.77-8.84.8-5.17.05-10.41.43-15.29,2.16s-9.38,4.96-11.75,9.56c-.69,1.33-1.11,3.13-.04,4.17.72.7,1.84.75,2.84.75,3.87.02,7.73.03,11.6.05,9.43.04,18.96.07,28.15-2.02,1.74-.39,3.47-.87,5.05-1.68,3.66-1.88,6.24-5.46,7.65-9.32,2.35-6.44,3.97-15.08.45-20.96"></path><path class="cls-11" d="M344.9,383.23c-.9,1.4-2.07,2.62-3.43,3.58,1.92-1.18,4.19-1.78,6.45-1.7l-.91,1.1c3.11-1.53,6.33-2.83,9.63-3.87l-2.39,3.46c4.69-3.29,11.02-3.16,16.03-5.92l-2.99,3.7c1.99-1.03,4-2.07,5.68-3.55,2.08-1.83,3.55-4.24,4.82-6.7,2.01-3.91,3.55-8.06,4.59-12.34,1.29,1.09,1.7,2.9,1.84,4.58.47,5.48-1.08,11.11-4.27,15.59s-8.01,7.77-13.35,9.12c-3.74.95-7.65.95-11.51.97-7.49.04-14.99.17-22.48.38-1.3.04-4.9.3-2.91-1.79,1.3-1.36,2.96-2.5,4.58-3.43s3.37-1.69,5.17-2.23c.9-.27,1.82-.49,2.74-.65.35-.06,2.57-.09,2.71-.31Z"></path><path class="cls-23" d="M315.37,375.34c-.37,2.24-1.88,4.16-2.29,6.39-.21,1.14-.14,2.34-.6,3.39-.51,1.15-1.59,1.94-2.68,2.57-.34.2-.68.38-1.04.56-1.64.8-3.45,1.29-5.23.96-1.28-.24-2.44-.9-3.71-1.21-1.71-.43-3.5-.22-5.26-.35-3.39-.25-6.6-1.78-9.23-3.92-2.64-2.14-4.75-4.86-6.58-7.72-.22-.34-.45-.7-.78-.93-.35-.25-.78-.35-1.2-.45-3.46-.83-6.69-2.58-9.27-5.02-.9-.85-1.79-1.98-1.55-3.19.06-.3.17-.58.34-.82,0-.01.02-.03.02-.04.2-.28.44-.52.72-.73.15-.12.32-.23.49-.33.38-.23.8-.43,1.19-.61,1.36-.62,2.75-1.24,4.23-1.46,1.69-.25,3.67.24,5.28-.19,2.32-.62,3.64-1.84,5.48-3.25,2.56-1.97,5.55-3.38,8.71-4.09.63-.14,1.28-.26,1.87-.54.67-.33,1.21-.84,1.74-1.36,3.39-3.32,6.84-7.17,11.53-7.93,3.05,4.09,4.44,9.38,3.79,14.43-.1.78-.25,1.59-.03,2.34.18.6.58,1.11.92,1.64,1.24,1.9,1.86,4.14,2.46,6.34.49,1.8.99,3.67.68,5.52Z"></path><path class="cls-9" d="M308.76,388.25c-1.64.8-3.45,1.29-5.23.96-1.28-.24-2.44-.9-3.71-1.21-1.71-.43-3.5-.22-5.26-.35-3.39-.25-6.6-1.78-9.23-3.92-2.64-2.14-4.75-4.86-6.58-7.72-.22-.34-.45-.7-.78-.93-.35-.25-.78-.35-1.2-.45-3.46-.83-6.69-2.58-9.27-5.02-.9-.85-1.79-1.98-1.55-3.19.06-.3.17-.58.34-.82,0-.01.02-.03.02-.04.23-.26.47-.5.72-.73.14-.13.29-.26.45-.38.01.02.02.03.04.05,1.28,2.04,3.66,3.14,6.02,3.64,1.87.4,3.84.51,5.51,1.42,2.15,1.17,3.43,3.42,4.8,5.45,1.04,1.52,2.18,2.96,3.43,4.31.8.86,1.66,1.7,2.72,2.21,1.72.82,3.74.66,5.65.83,3.5.3,6.26,1.84,9.09,3.78,1.23.84,2.67,1.42,4.02,2.11Z"></path><path class="cls-8" d="M300.05,384.21c.32.2.62.43.88.68,1.25,1.23,2.51,2.7,4.3,3.12.83.2,1.7.15,2.55.09.62-.04,1.26-.09,1.81-.38,1.56-.84,1.69-2.55.98-4.01-.4-.83-.97-1.57-1.37-2.4-.71-1.48-.83-3.23-.33-4.8.37-1.17,1.07-2.22,1.37-3.4-2.07,1.81-2.49,5.14-1.45,7.59.16.38.35.74.45,1.14.47,1.89-2.22,2.78-3.49,3.39-1.23.59-2.69,1.21-3.9.27-.4-.31-.73-.7-1.1-1.05-1.47-1.39-3.56-2.09-5.58-1.88,1.54.37,3.46.76,4.87,1.64Z"></path><path class="cls-7" d="M305.81,350.14c.27-.49.57-.99,1.03-1.32s1.11-.45,1.59-.15c.43.27.62.79.77,1.27.92,2.92,1.54,6.03.96,9.04-.06.29-.13.6-.35.81-.4.39-1.06.24-1.58.03-1.41-.57-4.14-1.96-4.48-3.63-.17-.84.35-1.96.61-2.74.39-1.14.88-2.25,1.45-3.31Z"></path><path class="cls-10" d="M276.95,368.33c-1.4-.88-3.2-.58-4.86-.61-1.16-.03-2.3-.23-3.44-.44-.1.81.3,1.62.87,2.2s1.31.98,2.03,1.36c1.42.76,2.84,1.52,4.26,2.29,1.12.6,3.09.81,3.06-.98-.02-1.3-.83-3.13-1.93-3.82Z"></path></g><g id="window"><rect class="cls-23" x="334.72" y="133.35" width="53.89" height="64.46"></rect><rect class="cls-23" x="395.28" y="133.35" width="53.89" height="64.46"></rect><rect class="cls-23" x="334.72" y="204.07" width="53.89" height="64.46"></rect><rect class="cls-23" x="395.28" y="204.07" width="53.89" height="64.46"></rect></g></svg>