<svg transform="scale(1)" id="_0173_revenue_2" xmlns="http://www.w3.org/2000/svg" xmlns:xlink="http://www.w3.org/1999/xlink" viewBox="0 0 500 500" class="show_show__wrapper__graphic__5Waiy "><title>React</title><defs><style>.cls-1{fill:url(#linear-gradient);}.cls-1,.cls-2,.cls-3,.cls-4,.cls-5,.cls-6,.cls-7,.cls-8,.cls-9,.cls-10,.cls-11,.cls-12,.cls-13,.cls-14,.cls-15,.cls-16,.cls-17,.cls-18,.cls-19,.cls-20,.cls-21,.cls-22,.cls-23,.cls-24,.cls-25{stroke-width:0px;}.cls-2{fill:url(#linear-gradient-11);}.cls-3{fill:url(#linear-gradient-12);}.cls-4{fill:url(#linear-gradient-13);}.cls-5{fill:url(#linear-gradient-10);}.cls-6{fill:url(#linear-gradient-17);}.cls-7{fill:url(#linear-gradient-16);}.cls-8{fill:url(#linear-gradient-19);}.cls-9{fill:url(#linear-gradient-15);}.cls-10{fill:url(#linear-gradient-21);}.cls-11{fill:url(#linear-gradient-18);}.cls-12{fill:url(#linear-gradient-14);}.cls-13{fill:url(#linear-gradient-20);}.cls-26,.cls-22{opacity:.24;}.cls-14{fill:url(#linear-gradient-4);}.cls-15{fill:url(#linear-gradient-2);}.cls-16{fill:url(#linear-gradient-3);}.cls-17{fill:url(#linear-gradient-8);}.cls-18{fill:url(#linear-gradient-9);}.cls-19{fill:url(#linear-gradient-7);}.cls-20{fill:url(#linear-gradient-5);}.cls-21{fill:url(#linear-gradient-6);}.cls-22{isolation:isolate;}.cls-22,.cls-25{fill:#059e96;}.cls-23{fill:#fff;}.cls-24{fill:#ffb4a3;}</style><linearGradient id="linear-gradient" x1="290.09" y1="3725.8" x2="279.44" y2="3242.03" gradientTransform="translate(-33.73 3938.91) scale(1 -1)" gradientUnits="userSpaceOnUse"><stop offset="0" stop-color="#231f20" stop-opacity="0"></stop><stop offset="1" stop-color="#231f20"></stop></linearGradient><linearGradient id="linear-gradient-2" x1="333.6" y1="3659.61" x2="482.64" y2="3632.41" gradientTransform="translate(-3369.07 695.87) rotate(78.5) scale(1 -1)" xlink:href="#linear-gradient"></linearGradient><linearGradient id="linear-gradient-3" x1="355.58" y1="3749.19" x2="313.89" y2="3728.34" gradientTransform="translate(-33.73 3938.91) scale(1 -1)" xlink:href="#linear-gradient"></linearGradient><linearGradient id="linear-gradient-4" x1="274.18" y1="3496.11" x2="334.98" y2="3786.91" gradientTransform="translate(-31 3954.29) scale(1 -1)" gradientUnits="userSpaceOnUse"><stop offset="0" stop-color="#fff" stop-opacity="0"></stop><stop offset=".95" stop-color="#fff"></stop></linearGradient><linearGradient id="linear-gradient-5" x1="125.99" y1="3675.48" x2="125.11" y2="3725.16" xlink:href="#linear-gradient"></linearGradient><linearGradient id="linear-gradient-6" x1="124.81" y1="3756.68" x2="204.76" y2="3756.68" xlink:href="#linear-gradient"></linearGradient><linearGradient id="linear-gradient-7" x1="152.38" y1="3799.99" x2="190.9" y2="3718.1" xlink:href="#linear-gradient"></linearGradient><linearGradient id="linear-gradient-8" x1="156.6" y1="3773.05" x2="173.49" y2="3773.05" xlink:href="#linear-gradient"></linearGradient><linearGradient id="linear-gradient-9" x1="-931.84" y1="3851.36" x2="-851.9" y2="3851.36" gradientTransform="translate(-990.86 3870.9) rotate(31.36) scale(1 -1)" xlink:href="#linear-gradient"></linearGradient><linearGradient id="linear-gradient-10" x1="-904.29" y1="3894.65" x2="-865.77" y2="3812.76" gradientTransform="translate(-990.86 3870.9) rotate(31.36) scale(1 -1)" xlink:href="#linear-gradient"></linearGradient><linearGradient id="linear-gradient-11" x1="-880.25" y1="3856.15" x2="-872.66" y2="3848.55" gradientTransform="translate(-990.86 3870.9) rotate(31.36) scale(1 -1)" xlink:href="#linear-gradient"></linearGradient><linearGradient id="linear-gradient-12" x1="-900.06" y1="3867.71" x2="-883.16" y2="3867.71" gradientTransform="translate(-990.86 3870.9) rotate(31.36) scale(1 -1)" xlink:href="#linear-gradient"></linearGradient><linearGradient id="linear-gradient-13" x1="2015.44" y1="2021.32" x2="2095.38" y2="2021.32" gradientTransform="translate(1398.98 2948.98) rotate(-64.97) scale(1 -1)" xlink:href="#linear-gradient"></linearGradient><linearGradient id="linear-gradient-14" x1="2042.94" y1="2064.59" x2="2081.46" y2="1982.7" gradientTransform="translate(1398.98 2948.98) rotate(-64.97) scale(1 -1)" xlink:href="#linear-gradient"></linearGradient><linearGradient id="linear-gradient-15" x1="2067.04" y1="2026.07" x2="2074.63" y2="2018.48" gradientTransform="translate(1398.98 2948.98) rotate(-64.97) scale(1 -1)" xlink:href="#linear-gradient"></linearGradient><linearGradient id="linear-gradient-16" x1="2047.21" y1="2037.63" x2="2064.11" y2="2037.63" gradientTransform="translate(1398.98 2948.98) rotate(-64.97) scale(1 -1)" xlink:href="#linear-gradient"></linearGradient><linearGradient id="linear-gradient-17" x1="334.14" y1="3622.41" x2="356.34" y2="3622.41" xlink:href="#linear-gradient"></linearGradient><linearGradient id="linear-gradient-18" x1="357.37" y1="3641.62" x2="390.19" y2="3656.4" xlink:href="#linear-gradient"></linearGradient><linearGradient id="linear-gradient-19" x1="367.77" y1="3651.6" x2="280.61" y2="3619.14" xlink:href="#linear-gradient"></linearGradient><linearGradient id="linear-gradient-20" x1="1470.32" y1="2425.22" x2="1494.44" y2="2436.09" gradientTransform="translate(-1134.71 2746.95) scale(1 -1)" xlink:href="#linear-gradient"></linearGradient><linearGradient id="linear-gradient-21" x1="376.62" y1="3608.45" x2="367.6" y2="3627.9" xlink:href="#linear-gradient"></linearGradient></defs><g id="background"><path class="cls-22" d="M495.85,303.03c-1.64,25.03-8.04,51.63-26.88,68.24-16.04,14.15-38.22,18.56-57.28,28.26-17.33,8.86-32.92,22.37-49.53,32.49-1.76,1.1-3.56,2.14-5.36,3.15-9.95,5.52-20.38,9.52-31.88,10.37-4.91.33-9.84.17-14.72-.47-.78-.1-1.54-.19-2.33-.35-5.95-.82-11.84-2.08-17.74-3.27-27.25-5.59-54.79-9.67-82.48-12.22-2.96-.32-5.95-.57-8.91-.83-1.26-.13-2.49-.21-3.74-.31-14.22-1.11-29.34-.64-44.09-1.77-1.82-.12-3.64-.28-5.48-.47-6.91-.63-13.75-1.92-20.42-3.85-38.5-11.5-72.19-58.8-92.85-90.48C13.54,302.83-.83,267.41,10.02,234.99c8.26-24.58,29.24-42.22,46.42-61.61,26.95-30.44,46.78-68.34,80.93-90.37,43.4-28.05,99.43-24.02,150.88-18.94,20.64,2.02,42,4.28,59.8,14.87,20.58,12.22,33.47,33.69,48.81,52.11,30.91,37.08,75.17,65.24,91.81,110.55,7.18,19.5,8.5,40.71,7.18,61.41Z"></path><path class="cls-22" d="M454.53,323.48c-1.32,20.21-6.48,41.67-21.68,55.06-12.95,11.42-30.8,14.98-46.2,22.8-14.01,7.15-26.57,18.06-39.97,26.21-1.42.9-2.89,1.73-4.31,2.54-8.04,4.46-16.45,7.7-25.73,8.36-3.96.27-7.94.14-11.88-.38-.64-.08-1.24-.15-1.88-.28-4.81-.66-9.56-1.68-14.31-2.65-21.99-4.5-44.21-7.8-66.55-9.87-2.39-.25-4.81-.45-7.2-.65-1.01-.11-2-.18-3.02-.26-11.46-.89-23.67-.51-35.57-1.42-1.48-.1-2.95-.22-4.42-.38-5.58-.52-11.1-1.57-16.48-3.13-31.05-9.28-58.29-47.44-74.94-72.98-15.02-23.1-26.62-51.71-17.85-77.87,6.66-19.85,23.59-34.07,37.45-49.69,21.74-24.56,37.75-55.12,65.3-72.91,35.04-22.63,80.21-19.38,121.73-15.29,16.64,1.64,33.88,3.47,48.25,12,16.6,9.87,27,27.2,39.38,42.05,24.94,29.93,60.64,52.65,74.12,89.21,5.76,15.69,6.82,32.81,5.76,49.51Z"></path><path class="cls-1" d="M362.19,338.6c-1.76,7.08-.89,16.86-.89,16.86l.86,76.56c-1.76,1.1-3.56,2.14-5.36,3.15-9.95,5.52-20.38,9.52-31.88,10.37-5.68.37-11.39.1-17.01-.78h0v-64.49c0-6.6-4.56-12.32-10.99-13.78-21.07-4.81-65.38-14.69-69.07-14.35-4.88.44-12.89,11.55-17.77,17.74s-3.32,11.3-3.32,11.3l.91,48.05c-2.96-.32-5.95-.57-8.91-.83-1.26-.13-2.49-.21-3.74-.31-14.22-1.11-29.34-.64-44.09-1.77l-3.4-37.15,1.93-13.67s-.1-17.39-2.33-24.48c-2.23-7.08-.89-10.21-.89-15.09s42.16-20.39,42.16-20.39l-3.19-12.88s-33.28,8.88-38.6,8.01c-5.32-.88-2.2-9.33-2.2-9.33l50.57-47.89,10.65,38.12s-4,17.33,1.32,25.74c5.32,8.41,12.42,2.2,14.62-.43,2.2-2.64,9.7-7,9.7-7l25.36-90.15s70.08-3.12,82.86-3.59c12.78-.47,15.6,9.36,16.04,11.13s-7.53,26.63-9.32,40.79c-1.79,14.17,5.78,17.33,5.78,17.33,18.64,17.7,11.99,46.09,10.19,53.21Z"></path></g><g id="data_clipboard"><rect class="cls-25" x="204.49" y="220.97" width="157.49" height="110.59" rx="9.54" ry="9.54" transform="translate(-43.95 498.73) rotate(-78.5)"></rect><rect class="cls-15" x="204.49" y="220.97" width="157.49" height="110.59" rx="9.54" ry="9.54" transform="translate(-43.95 498.73) rotate(-78.5)"></rect><rect class="cls-25" x="202.28" y="219.64" width="157.49" height="110.59" rx="9.54" ry="9.54" transform="translate(-44.42 495.5) rotate(-78.5)"></rect><path class="cls-25" d="M288.48,189.2l20.87,4.25c6.53,1.33,10.75,7.7,9.42,14.24h0l-.83,4.07h0l-44.56-9.07h0l.83-4.06c1.32-6.53,7.69-10.76,14.23-9.43.01,0,.03,0,.04,0Z"></path><path class="cls-16" d="M288.48,189.2l20.87,4.25c6.53,1.33,10.75,7.7,9.42,14.24h0l-.83,4.07h0l-44.56-9.07h0l.83-4.06c1.32-6.53,7.69-10.76,14.23-9.43.01,0,.03,0,.04,0Z"></path><polygon class="cls-14" points="311.04 352.64 223.26 334.79 251.73 198.26 339.51 216.11 311.04 352.64"></polygon><path class="cls-23" d="M286.78,188.87l20.87,4.25c6.53,1.33,10.75,7.7,9.42,14.24h0l-.83,4.1h0l-44.53-9.06h0l.83-4.1c1.33-6.53,7.7-10.75,14.24-9.42Z"></path><path class="cls-25" d="M334.38,227.57l-80.2-16.32,1.23-6.06,80.2,16.31-1.23,6.07ZM256,210.05l77.16,15.69.66-2.98-77.16-15.69-.66,2.98Z"></path><path class="cls-25" d="M325.6,270.71l-80.2-16.31,7.33-36.05,80.2,16.31-7.33,36.05ZM247.19,253.19l77.16,15.69,6.74-33.01-77.16-15.7-6.74,33.02Z"></path><path class="cls-25" d="M330.71,245.61l-80.2-16.31,2.22-10.94,80.2,16.31-2.22,10.94ZM252.33,228.09l77.16,15.69,1.61-7.9-77.17-15.7-1.6,7.91Z"></path><path class="cls-25" d="M280.55,260.81l-18.75-3.85,7.19-35.34,18.75,3.85-7.19,35.34ZM263.63,256.82l15.71,3.2,6.57-33.33-15.71-3.2-6.57,33.33Z"></path><path class="cls-25" d="M312.09,267.22l-18.76-3.85,7.19-35.34,18.75,3.85-7.18,35.34ZM295.17,262.22l15.71,3.2,6.58-32.32-15.71-3.2-6.58,32.32Z"></path><path class="cls-25" d="M319.78,290.97l-79.22-16.11,1.69-8.35,79.23,16.1-1.7,8.36ZM242.39,273.64l76.19,15.54,1.08-5.31-76.19-15.49-1.08,5.27Z"></path><path class="cls-25" d="M320.53,302.29l-84.76-17.24,1.37-6.74,84.76,17.24-1.37,6.74ZM237.57,283.84l81.71,16.61.75-3.68-81.71-16.62-.75,3.69Z"></path><path class="cls-25" d="M251.55,296.88l-16.87-3.47,1.09-5.31,16.9,3.44-1.12,5.35ZM236.47,292.23l13.87,2.82.46-2.27-13.86-2.82-.47,2.27Z"></path><rect class="cls-25" x="282.63" y="272.16" width=".89" height="58.83" transform="translate(-68.88 518.84) rotate(-78.5)"></rect><path class="cls-25" d="M249.88,305.07l-16.91-3.44,1.09-5.31,16.9,3.45-1.08,5.3ZM234.8,300.42l13.87,2.83.46-2.28-13.86-2.82-.47,2.27Z"></path><rect class="cls-25" x="280.96" y="280.4" width=".89" height="58.83" transform="translate(-78.3 523.8) rotate(-78.5)"></rect><path class="cls-25" d="M248.2,313.31l-16.91-3.44,1.09-5.31,16.9,3.44-1.08,5.31ZM233.12,308.66l13.87,2.82.46-2.27-13.86-2.82-.47,2.27Z"></path><rect class="cls-25" x="279.28" y="288.64" width=".89" height="58.83" transform="translate(-87.71 528.75) rotate(-78.5)"></rect></g><g id="wallet"><path class="cls-25" d="M65.26,256.3s4.66-8.42,6.43-10.87,30.6-14.85,30.6-14.85c0,0-10.87,12.64-12.86,13.52-1.99.89-24.17,12.2-24.17,12.2Z"></path><path class="cls-25" d="M71.85,251.87c-3.94,1.84-8.36,4.26-9.18,8.54,4.39-1.43,8.66,2.32,11.71,5.78l9.18,10.08c.36.49.86.86,1.42,1.09.73.12,1.48,0,2.14-.36,9.63-3.95,19.18-8.09,28.68-12.42,1.23-.56,2.61-1.28,2.96-2.6.16-.99,0-2-.47-2.89-2.78-7.12-7.33-31.89-17.6-28-4.16,1.59-7.7,7.63-11.01,10.45-5.35,4.48-11.59,7.42-17.83,10.33Z"></path><path class="cls-20" d="M88.95,246.47c2.19-1.16,4.43-2.36,5.96-4.29,1.37-1.75,2.04-3.95,3.24-5.78s3.33-3.48,5.5-2.97c1.43.49,2.66,1.46,3.46,2.75,4.18,5.53,6.9,12.02,7.91,18.88-9.81-1.12-19.25,3.4-28.22,7.59-3.17,1.49-6.74,2.98-10.07,1.93-2.35-.75-4.24-2.67-5.94-4.38-2.7-2.69-1.61-3.22,1.47-4.81l16.69-8.91Z"></path></g><g id="calculator"><rect class="cls-25" x="131.75" y="211.58" width="69.35" height="88.59" rx="7.04" ry="7.04" transform="translate(-45.77 36.46) rotate(-11)"></rect><rect class="cls-25" x="123.06" y="206.98" width="73.21" height="34.73" rx="5.65" ry="5.65" transform="translate(-39.87 34.59) rotate(-11)"></rect><rect class="cls-23" x="126.92" y="212.97" width="65.03" height="19.24" rx="3.75" ry="3.75" transform="translate(-39.54 34.51) rotate(-11)"></rect><rect class="cls-23" x="136.29" y="249.84" width="13.81" height="10.28" rx="1.94" ry="1.94" transform="translate(-46.02 32.01) rotate(-11)"></rect><rect class="cls-23" x="151.42" y="246.9" width="13.81" height="10.28" rx="1.94" ry="1.94" transform="translate(-45.18 34.84) rotate(-11)"></rect><rect class="cls-23" x="166.53" y="243.95" width="13.81" height="10.28" rx="1.94" ry="1.94" transform="translate(-44.34 37.67) rotate(-11)"></rect><rect class="cls-23" x="138.61" y="261.72" width="13.81" height="10.28" rx="1.94" ry="1.94" transform="translate(-48.25 32.67) rotate(-11)"></rect><rect class="cls-23" x="153.73" y="258.78" width="13.81" height="10.28" rx="1.94" ry="1.94" transform="translate(-47.41 35.5) rotate(-11)"></rect><rect class="cls-23" x="168.85" y="255.85" width="13.81" height="10.28" rx="1.94" ry="1.94" transform="translate(-46.57 38.33) rotate(-11)"></rect><rect class="cls-23" x="140.91" y="273.61" width="13.81" height="10.28" rx="1.94" ry="1.94" transform="translate(-50.47 33.33) rotate(-11)"></rect><rect class="cls-23" x="156.04" y="270.68" width="13.81" height="10.28" rx="1.94" ry="1.94" transform="translate(-49.63 36.16) rotate(-11)"></rect><rect class="cls-23" x="171.16" y="267.73" width="13.81" height="10.28" rx="1.94" ry="1.94" transform="translate(-48.79 38.99) rotate(-11)"></rect><rect class="cls-23" x="143.22" y="285.5" width="13.81" height="10.28" rx="1.94" ry="1.94" transform="translate(-52.7 33.99) rotate(-11)"></rect><rect class="cls-23" x="158.34" y="282.56" width="13.81" height="10.28" rx="1.94" ry="1.94" transform="translate(-51.86 36.82) rotate(-11)"></rect><rect class="cls-23" x="173.47" y="279.62" width="13.81" height="10.28" rx="1.94" ry="1.94" transform="translate(-51.02 39.65) rotate(-11)"></rect><rect class="cls-23" x="181.93" y="240.95" width="13.72" height="7.91" rx="1.94" ry="1.94" transform="translate(-43.26 40.52) rotate(-11)"></rect><rect class="cls-23" x="183.56" y="249.32" width="13.72" height="7.95" rx="1.94" ry="1.94" transform="translate(-44.83 40.99) rotate(-11)"></rect><rect class="cls-23" x="185.24" y="257.94" width="13.72" height="7.95" rx="1.94" ry="1.94" transform="translate(-46.45 41.47) rotate(-11)"></rect><rect class="cls-23" x="186.92" y="266.57" width="13.72" height="7.95" rx="1.94" ry="1.94" transform="translate(-48.06 41.95) rotate(-11)"></rect><rect class="cls-23" x="189" y="275.59" width="13.72" height="11.35" rx="1.94" ry="1.94" transform="translate(-50.07 42.54) rotate(-11)"></rect><path class="cls-25" d="M151.55,230.8l-.2-.96,1.03-1.48c2.48-3.51,3.56-5.32,3.22-7.13-.11-1.2-1.17-2.08-2.37-1.96-.16.01-.32.05-.47.1-.93.22-1.75.75-2.33,1.51l-.75-1.04c.79-.99,1.9-1.67,3.15-1.93,1.82-.53,3.72.51,4.25,2.32.04.14.07.29.1.43.43,2.2-.82,4.3-2.89,7.23l-.78,1.08h0l5.37-1.05.27,1.34-7.6,1.55Z"></path><path class="cls-25" d="M161.71,227.62c.44-.06.87-.16,1.29-.31.91-.3,1.7-.88,2.27-1.65.72-1.02,1.06-2.25.96-3.49h-.06c-.53.97-1.47,1.65-2.56,1.84-1.91.42-3.79-.79-4.21-2.7-.02-.09-.04-.18-.05-.27-.53-2.25.86-4.5,3.11-5.02.04-.01.09-.02.14-.03,2.44-.48,4.35,1.2,4.95,4.26.52,2.05.17,4.23-.96,6.02-.77,1.08-1.87,1.87-3.14,2.26-.47.18-.96.31-1.46.39l-.28-1.3ZM160.94,220.63c.1,1.29,1.22,2.26,2.52,2.17.1,0,.19-.02.28-.04.96-.16,1.76-.82,2.11-1.72.06-.2.06-.41,0-.62-.4-2.04-1.46-3.46-3.16-3.13-1.35.24-2.13,1.62-1.75,3.34h0Z"></path><path class="cls-25" d="M175.84,213.6l.21,1.07-3.07,11.94-1.67.33,3.1-11.55h0l-5.84,1.15-.31-1.47,7.58-1.45Z"></path><path class="cls-25" d="M179.88,223.31c.9.32,1.86.4,2.8.23,2.08-.41,2.46-1.87,2.25-2.89-.35-1.67-2-2.09-3.56-1.79l-.9.18-.24-1.21.9-.18c1.17-.23,2.55-1.13,2.27-2.54-.19-.96-.96-1.68-2.45-1.4-.85.2-1.62.64-2.23,1.26l-.65-1.1c.8-.78,1.8-1.31,2.89-1.53,2.36-.46,3.71.72,3.99,2.18.24,1.33-.43,2.66-1.65,3.25h0c1.57-.08,2.97,1,3.28,2.54.38,1.93-.79,3.85-3.66,4.45-1.09.23-2.22.17-3.27-.19l.24-1.26Z"></path></g><g id="money"><path class="cls-25" d="M91.08,169.15s.96,6.43,1.99,8.42,13.2,21.51,14.97,21.74,61.77-29.72,61.77-29.72l1.22-4.44-79.95,3.99Z"></path><path class="cls-21" d="M91.08,169.15s.96,6.43,1.99,8.42,13.2,21.51,14.97,21.74,61.77-29.72,61.77-29.72l1.22-4.44-79.95,3.99Z"></path><circle class="cls-25" cx="376.45" cy="238.15" r="13.6"></circle><circle class="cls-25" cx="372.14" cy="207.62" r="13.6"></circle><path class="cls-25" d="M156.41,137.94c6.14,8.33,11.06,17.49,14.62,27.21-15.62,7.98-43.56,21.33-59.38,28.88-.95.59-2.06.85-3.17.74-1.25-.26-2.11-1.38-2.89-2.43-4.22-6.04-8.27-12.23-12.13-18.58-2.39-3.9-3.99-4.89.07-7.52,3.08-2,6.4-3.71,9.63-5.43,13.12-7.01,39.11-18.38,53.25-22.88Z"></path><path class="cls-19" d="M97.29,171.35s2.99-2.89,3.34-5.66l48.31-22.27s5.98,2.77,8.39,1.85l7.7,14.44s-1.59,3.37-1.59,5.42l-47.85,23.43s-5.41-.58-8.16-.12l-10.15-17.09Z"></path><path class="cls-23" d="M150.25,178.54c-.18.41-.5.74-.91.91-2.27,1.27-4.67,2.29-7.15,3.06-.68.24-1.4.33-2.12.28-.11-.01-.21-.04-.31-.09-1.42-.39-2.27-1.93-2.89-3.31-3.38-7.09-6.74-14.18-10.09-21.27-.28-.6-.82-1.54-1.39-2.58l-.15-.25c-.79-1.31-1.43-2.71-1.93-4.16-.06-.09-.09-.19-.1-.29-.05-.08-.08-.16-.09-.25-.18-.51-.18-1.06,0-1.57.72-1.55,7.78-3.19,9.39-3.75.48-.21.99-.29,1.51-.25.62.15,1.16.51,1.55,1.01,2.73,2.89,4.31,6.64,5.82,10.33,2.87,7.06,5.76,14.12,8.66,21.18.16.31.22.66.18,1Z"></path><path class="cls-25" d="M428.79,339.66c-12.54-8.33-26.34-14.58-40.88-18.49-.96-.27-2.19-.49-2.98.17-.54.59-.85,1.36-.88,2.17-1.32,9.3-2.64,18.6-3.95,27.92-.2.82-.16,1.67.13,2.46.6,1.21,2.13,1.56,3.45,1.82,10.85,2.13,20.84,7.41,28.7,15.18,2.89,2.89,6.74,6.35,10.42,4.66,2.95-1.35,3.63-5.14,3.94-8.36l2.43-25.89"></path><path class="cls-17" d="M139.76,182.7c-1.42-.39-2.27-1.93-2.89-3.31-3.38-7.09-6.74-14.18-10.09-21.27-.28-.6-.82-1.54-1.39-2.58l-.15-.25c-1.14-2.49-1.93-4.13-1.93-4.13h0c-.02-.1-.06-.2-.1-.29-.05-.08-.08-.16-.09-.25-.26-.57-.44-1.39,0-1.57.75-.29,2.48,1.64,2.48,1.64l13.48,29.52.66,2.49Z"></path><path class="cls-25" d="M224.52,86.07s-2.49,6.02-2.68,8.24c-.18,2.22.07,25.24,1.47,26.35s68.21,6.74,68.21,6.74l3.35-3.15-70.36-38.18Z"></path><path class="cls-18" d="M224.52,86.07s-2.49,6.02-2.68,8.24c-.18,2.22.07,25.24,1.47,26.35s68.21,6.74,68.21,6.74l3.35-3.15-70.36-38.18Z"></path><path class="cls-25" d="M296.56,93.42c.9,10.3.34,20.67-1.67,30.8-17.5-1.32-48.29-4.46-65.75-6.23-1.12.02-2.21-.32-3.12-.98-.96-.87-1.08-2.27-1.16-3.54-.48-7.4-.72-14.8-.72-22.22,0-4.58-.86-6.26,3.98-6.39,3.67-.11,7.39.17,11.05.38,14.86.83,42.95,4.68,57.39,8.18Z"></path><path class="cls-5" d="M228.68,91.18s4.05-.9,5.78-3.09l52.85,6.11s3.67,5.48,6.21,5.95l-.96,16.36s-3.11,2.02-4.2,3.79l-53-4.93s-4.32-3.3-6.92-4.34l.25-19.86Z"></path><path class="cls-23" d="M270.16,124.87c-.36.26-.81.38-1.25.31-2.6-.1-5.18-.47-7.7-1.11-.69-.16-1.34-.45-1.93-.86-.09-.07-.16-.15-.22-.25-1.02-1.06-.96-2.82-.75-4.33.81-7.81,1.65-15.6,2.45-23.41.07-.65.11-1.74.16-2.89v-.3c.01-1.53.19-3.06.53-4.55-.01-.1.01-.2.07-.29,0-.09,0-.18.05-.26.12-.53.42-1,.85-1.33,1.42-.96,8.3,1.33,9.96,1.68.52.06,1.01.26,1.42.57.45.45.73,1.04.8,1.67.85,3.85.22,7.92-.4,11.86-1.21,7.49-2.42,15-3.63,22.54-.04.35-.18.68-.41.94Z"></path><path class="cls-2" d="M259.21,120.57l11.61,1.56c-.15,1.02-.41,2.01-.79,2.96-.35.34-8.07-.31-9.88-1.7s-1.69-2.75-1.69-2.75l.75-.07Z"></path><path class="cls-3" d="M259.04,122.96c-1.02-1.06-.96-2.82-.75-4.33.81-7.81,1.65-15.6,2.45-23.41.07-.65.11-1.74.16-2.89v-.3c.33-2.71.54-4.5.54-4.5h0s0-.16.07-.29c0-.09,0-.18.05-.26.08-.62.35-1.42.85-1.33.79.14,1.27,2.69,1.27,2.69l-3.85,32.23-.79,2.4Z"></path><path class="cls-25" d="M408.39,262.09s6.25,1.81,8.48,1.75c2.23-.06,25.08-2.89,25.99-4.37.91-1.48-.8-68.54-.8-68.54l-3.5-2.98-30.17,74.14Z"></path><path class="cls-4" d="M408.39,262.09s6.25,1.81,8.48,1.75c2.23-.06,25.08-2.89,25.99-4.37.91-1.48-.8-68.54-.8-68.54l-3.5-2.98-30.17,74.14Z"></path><path class="cls-25" d="M407.75,189.68c10.13-2.03,20.51-2.61,30.8-1.73.63,17.54.9,48.49,1.07,66.03.13,1.11-.11,2.23-.67,3.19-.76,1.02-2.15,1.33-3.4,1.55-7.3,1.28-14.63,2.34-22,3.16-4.54.51-6.12,1.54-6.79-3.24-.51-3.63-.64-7.36-.85-11.02-.76-14.85-.08-43.14,1.84-57.93Z"></path><path class="cls-12" d="M413.01,257.41s-1.35-3.93-3.71-5.41l.25-53.2s5.04-4.25,5.23-6.83l16.36-.88s2.35,2.89,4.24,3.75l.96,53.27s-2.81,4.66-3.56,7.35l-19.77,1.94Z"></path><path class="cls-23" d="M441.93,212.45c.3.33.46.77.44,1.21.19,2.59.11,5.2-.26,7.78-.07.71-.29,1.4-.64,2.03-.05.09-.13.17-.21.24-.96,1.13-2.7,1.24-4.23,1.23-7.85,0-15.69.08-23.54.13-.66,0-1.75.09-2.89.16h-.3c-1.52.15-3.06.15-4.58,0-.1.03-.2.03-.3,0-.09.02-.18.02-.27,0-.54-.07-1.03-.31-1.42-.69-1.09-1.31.41-8.39.58-10.1.01-.52.16-1.02.41-1.47.4-.49.95-.83,1.57-.96,3.75-1.27,7.85-1.1,11.83-.91,7.58.38,15.18.77,22.8,1.13.34-.03.68.05.98.22Z"></path><path class="cls-9" d="M438.87,223.82l.26-11.71c1.03.04,2.04.19,3.03.46.38.3.59,8.05-.6,10s-2.55,1.99-2.55,1.99l-.14-.74Z"></path><path class="cls-7" d="M441.26,223.72c-.96,1.13-2.7,1.24-4.23,1.23-7.85,0-15.69.08-23.54.13-.66,0-1.75.09-2.89.16h-5.14c-.09.02-.18.02-.27,0-.62,0-1.44-.18-1.42-.69.07-.81,2.54-1.56,2.54-1.56l32.46.27,2.47.45Z"></path><g class="cls-26"><path class="cls-25" d="M334.56,176.46v-9.14c-12.51-1.01-19.79-8.14-20.83-17.8h9.16c1.36,6.24,5.83,9.86,11.67,10.76v-24.33c-13.85-4.01-19.25-9.04-19.25-18.39,0-10.16,8.12-16.89,19.25-17.6v-6.83h5.93v6.93c13.85,1.31,18.29,9.95,18.95,16.19h-8.95c-1.15-4.12-3.65-8.14-10-9.25v21.92c15.94,4.42,20.52,10.85,20.52,19.8,0,11.16-7.7,17.69-20.52,18.6v9.14h-5.93ZM334.56,127.2v-20.41c-7.5.61-10.2,4.93-10.2,9.75s2.4,8.03,10.2,10.66ZM340.49,137.65v22.72c7.19-.7,11.04-4.22,11.04-10.75,0-5.33-2.4-9.05-11.04-11.97Z"></path></g><path class="cls-23" d="M337.43,175.76v-9.15c-12.51-.96-19.78-8.13-20.82-17.79h9.16c1.35,6.24,5.82,9.86,11.66,10.76v-24.33c-13.84-4.01-19.25-9.04-19.25-18.39,0-10.16,8.12-16.89,19.25-17.6v-6.83h5.94v6.93c13.85,1.31,18.29,9.95,18.95,16.19h-8.95c-1.16-4.12-3.65-8.14-10-9.25v21.92c15.93,4.42,20.51,10.85,20.51,19.8,0,11.16-7.7,17.69-20.51,18.59v9.15h-5.94ZM337.43,126.51v-20.41c-7.5.61-10.2,4.93-10.2,9.75s2.4,8.04,10.2,10.65h0ZM343.37,136.96v22.72c7.19-.7,11.03-4.23,11.03-10.75,0-5.33-2.39-9.05-11.03-11.97Z"></path><g class="cls-26"><path class="cls-25" d="M233.99,180.11v-5.91c-8.07-.65-12.77-5.27-13.48-11.49h5.92c.72,3.71,3.77,6.52,7.53,6.95v-15.72c-8.94-2.59-12.44-5.84-12.44-11.88,0-6.56,5.25-10.91,12.44-11.36v-4.42h3.85v4.49c8.95.84,11.84,6.42,12.24,10.45h-5.78c-.66-3.17-3.25-5.57-6.46-5.98v14.15c10.29,2.89,13.25,7.02,13.25,12.79,0,7.21-4.98,11.43-13.25,12.01v5.91h-3.83ZM233.99,148.35v-13.19c-4.81.39-6.59,3.18-6.59,6.3s1.51,5.15,6.59,6.84v.05ZM237.84,155.09v14.63c4.65-.45,7.13-2.72,7.13-6.94-.02-3.45-1.57-5.84-7.15-7.73l.02.04Z"></path></g><path class="cls-23" d="M235.84,179.66v-5.91c-8.07-.64-12.77-5.26-13.48-11.49h5.91c.72,3.71,3.78,6.53,7.54,6.95v-15.71c-8.94-2.6-12.45-5.84-12.45-11.88,0-6.56,5.25-10.91,12.45-11.37v-4.41h3.85v4.5c8.95.85,11.84,6.43,12.24,10.45h-5.78c-.67-3.16-3.26-5.55-6.46-5.97v14.15c10.29,2.89,13.25,7.01,13.25,12.78,0,7.21-4.98,11.44-13.25,12.01v5.91l-3.83-.03ZM235.84,147.9v-13.23c-4.81.39-6.59,3.19-6.59,6.3s1.58,5.2,6.59,6.88v.05ZM239.7,154.63v14.67c4.64-.45,7.13-2.72,7.13-6.95-.02-3.47-1.56-5.87-7.15-7.75l.02.03Z"></path><g class="cls-26"><path class="cls-25" d="M170.95,137.55v-5c-6.82-.56-10.81-4.46-11.38-9.72h5.01c.61,3.14,3.19,5.52,6.37,5.87v-13.29c-7.57-2.19-10.53-4.94-10.53-10.05,0-5.54,4.44-9.23,10.53-9.63v-3.72h3.24v3.78c7.57.71,10.01,5.44,10.36,8.85h-4.9c-.56-2.68-2.75-4.7-5.46-5.05v11.97c8.66,2.42,11.2,5.93,11.2,10.82,0,6.09-4.21,9.63-11.2,10.16v5h-3.24ZM170.95,110.6v-11.11c-4.1.33-5.57,2.69-5.57,5.32s1.31,4.36,5.57,5.82v-.04ZM174.19,116.3v12.42c3.93-.39,6.03-2.31,6.03-5.88,0-2.87-1.3-4.9-6.03-6.5v-.04Z"></path></g><path class="cls-23" d="M172.52,137.16v-5c-6.82-.55-10.81-4.45-11.38-9.72h5.01c.61,3.14,3.19,5.53,6.37,5.88v-13.29c-7.57-2.19-10.52-4.95-10.52-10.05,0-5.55,4.44-9.23,10.52-9.63v-3.73h3.24v3.79c7.57.71,10.01,5.44,10.36,8.84h-4.89c-.56-2.67-2.76-4.7-5.47-5.04v11.97c8.66,2.42,11.21,5.94,11.21,10.83,0,6.09-4.22,9.63-11.21,10.16v5h-3.24ZM172.52,110.26v-11.16c-4.1.33-5.57,2.7-5.57,5.33s1.32,4.39,5.57,5.82ZM175.76,115.97v12.46c3.93-.38,6.04-2.3,6.04-5.87,0-2.96-1.31-5-6.04-6.58Z"></path></g><g id="hand"><path class="cls-6" d="M309.18,279.87c-.7,3.39-4.25,5.4-5.73,8.53-.72,1.87-1.07,3.86-1.03,5.86l-1.88,44.01c-.22,5.03-.41,10.21,1.26,14.97,1.67,4.76,5.67,9.04,10.68,9.5,1.56.17,3.14-.17,4.5-.96,2.96-1.82,3.62-5.78,3.95-9.19,2.11-22.25,1.88-44.65,1.17-66.98.03-2.05-.24-4.09-.8-6.05-1.1-3.16-4.93-7.97-8.25-9.04-5.82-1.92-3.3,6.35-3.88,9.36Z"></path><path class="cls-24" d="M314.3,277.45c.42,2.45,2.59,4.13,4.67,5.28,5.3,2.89,11.47,4.52,15.53,9.27,4.01,4.9,4.87,11.65,2.22,17.39-.45.91-1.12,1.86-2.09,1.93-.84-.03-1.63-.38-2.22-.96-5.88-4.77-10-11.37-11.69-18.75-.48-2.11-.82-4.37-2.14-6.03-2.13-2.68-6.25-2.63-8.66-.47-2.42,2.16,8.11,51.21,6.85,67.32-.13,1.58-.27,3.29.51,4.68.37.62.85,1.15,1.42,1.59,4.31,3.5,10.37,3.39,15.15,1.15s8.57-6.29,12.15-10.34c2.51-2.69,4.74-5.63,6.67-8.76,5.48-9.46,5.78-21.72,3.32-32.86-1.97-8.85-5.65-17.44-11.34-24.31-4.4-5.47-10.24-9.61-16.86-11.96-4.18-1.36-14.8-1.79-13.51,5.83Z"></path><rect class="cls-23" x="315.46" y="353.41" width="37.66" height="7.43"></rect><path class="cls-25" d="M356.8,360.72l5.36,71.3c-9.95,5.52-25.74,12.67-37.24,13.48-4.91.33-9.84.17-14.72-.47v-84.3h46.6Z"></path><path class="cls-24" d="M212.05,316.48c3.02-4.32,7.7-8.66,12.83-7.56.84.11,1.6.55,2.1,1.23.68,1.1.13,2.51-.43,3.68l-10.29,21.37c-1.07,2.36-2.3,4.64-3.68,6.82-5.86,8.82-16.46,14.1-20.83,23.74-2.74,6.06-3.06,13.8-8.43,17.73-2.89,2.14-6.74,2.58-10.39,2.65-3.02.05-6.03-.12-9.03-.5-1.71-.13-3.38-.61-4.9-1.42-2.09-1.48-3.51-3.73-3.94-6.26-.4-2.5-.62-5.03-.64-7.57-.88-13.31-8-25.62-8.83-38.95-.31-4.95.96-10.87,5.48-12.82,1.59-.67,3.4-.76,4.91-1.58,1.86-.96,3.14-3,5.17-3.56s4.43.51,6.32-.47c1.68-.87,2.34-3.04,3.99-3.99,1.8-1.04,4.05-.26,6.12-.24,5.07.06,9.05-4.57,10.68-9.37,1.63-4.79,1.67-10,3.12-14.85.8-2.64,2.63-5.55,5.37-5.43,1.99.09,3.57,1.87,4.09,3.79.38,1.96.37,3.97-.05,5.92-1.38,9.98-2.15,20.03-2.32,30.1-.06,3.7.12,10.18,5.24,7.2,3.67-2.17,5.95-6.26,8.35-9.67Z"></path><rect class="cls-23" x="149.4" y="375.51" width="45.23" height="8.4"></rect><path class="cls-25" d="M198.74,382.92v45.46c-1.26-.13-2.49-.21-3.74-.31-15.98-1.23-33.12-.51-49.56-2.24v-42.91h53.31Z"></path><path class="cls-25" d="M315.02,268.14c-.31-.23-.68-.36-1.07-.38-.59.11-1.08.52-1.3,1.08-1.41,2.71-.22,6,.96,8.82l9.96,23.4c3.16,7.42,6.35,14.9,10.99,21.49.56,1.03,1.52,1.8,2.65,2.13.76.08,1.52-.13,2.14-.59,1.93-1.28,2.71-3.8,2.56-6.11-.29-2.3-.94-4.54-1.93-6.63-3.1-7.7-6.09-14.44-9.87-21.7-3.99-7.73-7.28-16.74-15.1-21.5Z"></path><path class="cls-11" d="M315.02,268.14c-.31-.23-.68-.36-1.07-.38-.59.11-1.08.52-1.3,1.08-1.41,2.71-.22,6,.96,8.82l9.96,23.4c3.16,7.42,6.35,14.9,10.99,21.49.56,1.03,1.52,1.8,2.65,2.13.76.08,1.52-.13,2.14-.59,1.93-1.28,2.71-3.8,2.56-6.11-.29-2.3-.94-4.54-1.93-6.63-3.1-7.7-6.09-14.44-9.87-21.7-3.99-7.73-7.28-16.74-15.1-21.5Z"></path><path class="cls-8" d="M318.03,284.56c1.45,1.82,3.11,3.47,4.94,4.91,3.69,3.18,7.37,6.58,9.63,11.11.85,1.82,1.61,3.68,2.27,5.58.3.78.78,1.69,1.54,1.67.76-.96.48-2.44.14-3.66-1.08-4.04-2.5-7.99-4.25-11.79-2.59-5.18-5.59-10.15-8.97-14.85-.97-1.53-2.08-2.96-3.33-4.27-.56-.66-1.34-1.08-2.19-1.18-1.85,0-3.41,2.89-3.23,4.74.29,2.63,1.99,5.75,3.46,7.75Z"></path><path class="cls-24" d="M325.1,271.31s-7.25-1.11-9.24,1.34c-1.99,2.44-.08,9.39,6.28,11.75,3.92,1.47,7.65,3.43,11.09,5.83,0,0-4.28-17.42-8.12-18.92Z"></path><ellipse class="cls-13" cx="338.19" cy="320.57" rx="4.3" ry="2.66" transform="translate(-127.13 295.79) rotate(-40.42)"></ellipse><path class="cls-25" d="M336.25,320.94s1.13-2.34,3.22-1.99l3.22,6.26s.26,5.64-3.56,1.93l-2.87-6.19Z"></path><path class="cls-10" d="M336.25,320.94s1.13-2.34,3.22-1.99l3.22,6.26s.26,5.64-3.56,1.93l-2.87-6.19Z"></path></g></svg>