<svg transform="scale(1)" id="_0608_Office_Chat1_" xmlns="http://www.w3.org/2000/svg" xmlns:xlink="http://www.w3.org/1999/xlink" viewBox="0 0 500 500" class="show_show__wrapper__graphic__5Waiy "><title>React</title><defs><style>.cls-1{fill:url(#linear-gradient);}.cls-1,.cls-2,.cls-3,.cls-4,.cls-5,.cls-6,.cls-7,.cls-8,.cls-9,.cls-10,.cls-11,.cls-12,.cls-13,.cls-14,.cls-15,.cls-16,.cls-17,.cls-18,.cls-19,.cls-20,.cls-21,.cls-22,.cls-23,.cls-24,.cls-25,.cls-26,.cls-27{stroke-width:0px;}.cls-2{opacity:.18;}.cls-2,.cls-24,.cls-25{isolation:isolate;}.cls-2,.cls-27{fill:#059e96;}.cls-3{fill:url(#linear-gradient-11);}.cls-4{fill:url(#linear-gradient-12);}.cls-5{fill:url(#linear-gradient-13);}.cls-6{fill:url(#linear-gradient-10);}.cls-7{fill:url(#linear-gradient-17);}.cls-8{fill:url(#linear-gradient-16);}.cls-9{fill:url(#linear-gradient-19);}.cls-10{fill:url(#linear-gradient-23);}.cls-11{fill:url(#linear-gradient-21);}.cls-12{fill:url(#linear-gradient-18);}.cls-13{fill:url(#linear-gradient-14);}.cls-14{fill:url(#linear-gradient-22);}.cls-15{fill:url(#linear-gradient-20);}.cls-16{fill:url(#linear-gradient-4);}.cls-17{fill:url(#linear-gradient-2);}.cls-18{fill:url(#linear-gradient-3);}.cls-19{fill:url(#linear-gradient-8);}.cls-20{fill:url(#linear-gradient-9);}.cls-21{fill:url(#linear-gradient-7);}.cls-22{fill:url(#linear-gradient-5);}.cls-23{fill:url(#linear-gradient-6);}.cls-24{fill:url(#linear-gradient-24);}.cls-24,.cls-25{opacity:.41;}.cls-25{fill:url(#linear-gradient-15);}.cls-26{fill:#fff;}</style><linearGradient id="linear-gradient" x1="-113.93" y1="4092.27" x2="-372.77" y2="3396.06" gradientTransform="translate(468 4022) scale(1 -1)" gradientUnits="userSpaceOnUse"><stop offset="0" stop-color="#231f20"></stop><stop offset=".08" stop-color="#231f20" stop-opacity=".69"></stop><stop offset=".21" stop-color="#231f20" stop-opacity=".32"></stop><stop offset="1" stop-color="#231f20" stop-opacity="0"></stop></linearGradient><linearGradient id="linear-gradient-2" x1="-76" y1="4061.43" x2="-235.48" y2="3709.15" xlink:href="#linear-gradient"></linearGradient><linearGradient id="linear-gradient-3" x1="-150.6" y1="3946.08" x2="-314.07" y2="3506.41" xlink:href="#linear-gradient"></linearGradient><linearGradient id="linear-gradient-4" x1="-235.23" y1="3796.1" x2="-331.21" y2="3537.93" xlink:href="#linear-gradient"></linearGradient><linearGradient id="linear-gradient-5" x1="-299.25" y1="3652.93" x2="-321.89" y2="3592.04" xlink:href="#linear-gradient"></linearGradient><linearGradient id="linear-gradient-6" x1="37.57" y1="3719.07" x2="-77.96" y2="3642.05" xlink:href="#linear-gradient"></linearGradient><linearGradient id="linear-gradient-7" x1="-76.37" y1="3712.87" x2="41.66" y2="3566.37" xlink:href="#linear-gradient"></linearGradient><linearGradient id="linear-gradient-8" x1="-71.66" y1="3702.75" x2="21.54" y2="3587.08" xlink:href="#linear-gradient"></linearGradient><linearGradient id="linear-gradient-9" x1="-283.14" y1="3950.56" x2="-241.11" y2="3904.06" xlink:href="#linear-gradient"></linearGradient><linearGradient id="linear-gradient-10" x1="-269.16" y1="3950.56" x2="-227.13" y2="3904.06" xlink:href="#linear-gradient"></linearGradient><linearGradient id="linear-gradient-11" x1="-289.81" y1="3957.38" x2="-143.84" y2="3795.89" xlink:href="#linear-gradient"></linearGradient><linearGradient id="linear-gradient-12" x1="-187.5" y1="4015.88" x2="-183.93" y2="3912.34" xlink:href="#linear-gradient"></linearGradient><linearGradient id="linear-gradient-13" x1="-209.42" y1="3969.44" x2="-206.15" y2="3904.28" xlink:href="#linear-gradient"></linearGradient><linearGradient id="linear-gradient-14" x1="-169.1" y1="3971.47" x2="-165.83" y2="3906.31" xlink:href="#linear-gradient"></linearGradient><linearGradient id="linear-gradient-15" x1="-169.63" y1="3967.46" x2="-68.83" y2="3567.54" xlink:href="#linear-gradient"></linearGradient><linearGradient id="linear-gradient-16" x1="-155.53" y1="3887.46" x2="-112.68" y2="3766.07" gradientTransform="translate(468 4022) scale(1 -1)" gradientUnits="userSpaceOnUse"><stop offset="0" stop-color="#fff"></stop><stop offset="1" stop-color="#fff" stop-opacity="0"></stop></linearGradient><linearGradient id="linear-gradient-17" x1="-225.82" y1="3873.74" x2="-79.84" y2="3712.25" xlink:href="#linear-gradient"></linearGradient><linearGradient id="linear-gradient-18" x1="-134.83" y1="3933.39" x2="-131.26" y2="3829.85" xlink:href="#linear-gradient"></linearGradient><linearGradient id="linear-gradient-19" x1="-156.76" y1="3886.95" x2="-153.48" y2="3821.8" xlink:href="#linear-gradient"></linearGradient><linearGradient id="linear-gradient-20" x1="-116.44" y1="3888.98" x2="-113.17" y2="3823.82" xlink:href="#linear-gradient"></linearGradient><linearGradient id="linear-gradient-21" x1="-214.74" y1="3873.07" x2="-209.66" y2="3819.73" xlink:href="#linear-gradient"></linearGradient><linearGradient id="linear-gradient-22" x1="-200.1" y1="3874.46" x2="-195.02" y2="3821.12" xlink:href="#linear-gradient"></linearGradient><linearGradient id="linear-gradient-23" x1="-206.8" y1="3873.82" x2="-201.72" y2="3820.48" xlink:href="#linear-gradient"></linearGradient><linearGradient id="linear-gradient-24" x1="-257.23" y1="3947.03" x2="-154.25" y2="3538.47" xlink:href="#linear-gradient"></linearGradient></defs><path class="cls-2" id="background" d="M394.56,201.29c-23.89-49.41,1.59-113.69-59.73-140.97-38.45-17.11-93.37-15.13-132.34-1.84-58.16,19.85-107.26,64.35-133.61,119.88-26.34,55.52-29.85,121.29-10.49,179.62,3.47,10.46,7.72,20.83,14.49,29.53,6.96,8.96,16.29,15.77,25.92,21.77,68.62,42.81,154.28,48.38,234.76,40.32,26.34-2.64,53.03-6.74,76.85-18.29,30.06-14.56,54.18-40.98,65.95-72.24,5.6-14.88,8.48-31.19,5.31-46.76-9.52-46.74-66.33-68.08-87.09-111.02h-.02Z"></path><g id="laptop"><path class="cls-27" d="M23.15,401.68l291.58,40.07s3.97,2.38,5.55,0c1.58-2.38,48.45-88.46,48.45-88.46v-10.71L18.19,384.28l4.95,17.41h0Z"></path><path class="cls-27" d="M134.34,313.18l229.19,22.36c4.22.41,6.55,5.09,4.35,8.7l-48.04,78.86c-1.18,1.94-3.39,3-5.63,2.71L23.02,388.51c-5.39-.69-6.9-7.8-2.24-10.61l103.03-62.32c3.17-1.91,6.86-2.75,10.55-2.4h-.02Z"></path><path class="cls-1" d="M134.34,313.18l229.19,22.36c4.22.41,6.55,5.09,4.35,8.7l-48.04,78.86c-1.18,1.94-3.39,3-5.63,2.71L23.02,388.51c-5.39-.69-6.9-7.8-2.24-10.61l103.03-62.32c3.17-1.91,6.86-2.75,10.55-2.4h-.02Z"></path><path class="cls-27" d="M129.77,304.53l34.96-157.16c1.02-4.6,5.22-7.88,10.05-7.84l234.1,1.64c6.52.05,11.32,5.95,9.88,12.15l-40.55,174.97c-1.13,4.86-5.76,8.15-10.84,7.72l-228.5-19.44c-6.13-.52-10.39-6.17-9.09-12.03h-.01Z"></path><path class="cls-27" d="M124.81,304.53l34.96-157.16c1.02-4.6,5.22-7.88,10.05-7.84l234.1,1.64c6.52.05,11.32,5.95,9.88,12.15l-40.55,174.97c-1.13,4.86-5.76,8.15-10.84,7.72l-228.5-19.44c-6.13-.52-10.39-6.17-9.09-12.03h-.01Z"></path><path class="cls-17" d="M413.79,153.31l-11.46,49.44-29.09,125.53c-1.13,4.85-5.76,8.15-10.84,7.72l-228.51-19.44c-6.12-.53-10.39-6.17-9.08-12.03l34.95-157.16c1.03-4.61,5.22-7.88,10.05-7.85l234.1,1.64c1.98,0,3.8.57,5.34,1.5,3.51,2.16,5.54,6.33,4.54,10.65h0Z"></path><polygon class="cls-26" points="171.2 147.8 404.91 147.8 359.75 326.31 133.98 303.1 171.2 147.8"></polygon><polygon class="cls-18" points="122.47 322.74 357.52 344.76 331.93 383.44 74.27 353.09 122.47 322.74"></polygon><polygon class="cls-16" points="144.77 366.69 237.32 376.69 215.9 409.62 109.02 395.72 144.77 366.69"></polygon><path class="cls-22" d="M129.46,402.14s1.35,3.91,4.52,4.9c3.17.99,41.06,5.75,41.06,5.75,0,0,5.38.58,5.77-4.07l-51.34-6.58h-.01Z"></path></g><g id="coffee"><path class="cls-26" d="M442.75,344.93v27.09c0,12.64-8.01,23.42-19.23,27.52-3.14,1.15-6.53,1.78-10.07,1.78-16.18,0-29.3-13.12-29.3-29.3v-27.09c0-12.25,9.93-22.19,22.19-22.19h14.22c12.26,0,22.19,9.94,22.19,22.19Z"></path><path class="cls-23" d="M442.75,344.93v27.09c0,12.64-8.01,23.42-19.23,27.52-14.27-1.95-25.26-14.19-25.26-29.01v-27.09c0-9.43,5.9-17.5,14.2-20.7h8.1c12.26,0,22.19,9.94,22.19,22.19h0Z"></path><path class="cls-21" d="M435.4,336.97c0,1.51-.63,2.95-1.78,4.25-3.28,3.77-10.81,6.4-19.57,6.4s-16.29-2.63-19.57-6.4c-1.15-1.3-1.78-2.74-1.78-4.25,0-5.89,9.56-10.66,21.35-10.66s21.35,4.77,21.35,10.66Z"></path><path class="cls-19" d="M433.62,341.22c-3.28,3.77-10.81,6.4-19.57,6.4s-16.29-2.63-19.57-6.4c3.29-3.77,10.81-6.4,19.57-6.4s16.28,2.63,19.57,6.4Z"></path></g><g id="bubble_1"><path class="cls-26" d="M345.02,63.75v35.22c0,6.87-5.57,12.43-12.43,12.43h-31.95l-7.12,13.27-5.08-13.27h-111.27c-6.88,0-12.45-5.57-12.45-12.43v-35.22c0-6.87,5.57-12.43,12.45-12.43h155.41c6.87,0,12.43,5.57,12.43,12.43h0Z"></path><circle class="cls-27" cx="197.96" cy="81.75" r="19.64"></circle><circle class="cls-20" cx="190.73" cy="77.94" r="2.37"></circle><circle class="cls-6" cx="204.72" cy="77.94" r="2.37"></circle><path class="cls-3" d="M187.25,86.32h22.44s-1.3,7.12-11.22,7.11c-9.93,0-11.22-7.11-11.22-7.11Z"></path><rect class="cls-4" x="242.47" y="72.82" width="80.83" height="5.12"></rect><rect class="cls-5" x="242.47" y="85.44" width="35.78" height="5.12"></rect><rect class="cls-13" x="282.89" y="85.44" width="35.78" height="5.12"></rect></g><g id="bubble_2"><path class="cls-25" d="M413.79,153.31l-11.46,49.44h-104.41l-5.08,13.27-7.12-13.27h-31.95c-6.87,0-12.43-5.57-12.43-12.43v-35.23c0-6.86,5.56-12.43,12.43-12.43h155.48c3.51,2.16,5.54,6.33,4.54,10.65Z"></path><path class="cls-27" d="M233.17,147.65v35.22c0,6.87,5.57,12.43,12.43,12.43h31.95l7.12,13.27,5.08-13.27h111.27c6.88,0,12.45-5.57,12.45-12.43v-35.22c0-6.87-5.57-12.43-12.45-12.43h-155.41c-6.87,0-12.43,5.57-12.43,12.43h0Z"></path><path class="cls-8" d="M233.17,147.65v35.22c0,6.87,5.57,12.43,12.43,12.43h31.95l7.12,13.27,5.08-13.27h111.27c6.88,0,12.45-5.57,12.45-12.43v-35.22c0-6.87-5.57-12.43-12.45-12.43h-155.41c-6.87,0-12.43,5.57-12.43,12.43h0Z"></path><circle class="cls-27" cx="262.11" cy="163.86" r="19.64" transform="translate(58.38 396.34) rotate(-80.78)"></circle><path class="cls-7" d="M251.25,169.97h22.44s-1.3,7.12-11.22,7.11c-9.93,0-11.22-7.11-11.22-7.11Z"></path><rect class="cls-12" x="295.14" y="155.31" width="80.83" height="5.12"></rect><rect class="cls-9" x="295.14" y="167.92" width="35.78" height="5.12"></rect><rect class="cls-15" x="335.55" y="167.92" width="35.78" height="5.12"></rect><path class="cls-11" d="M260.85,159.51c0,3.64-2.94,6.59-6.58,6.59s-6.58-2.95-6.58-6.59c0-.19.01-.37.02-.55.07-.87.31-1.69.7-2.43h11.72c.38.74.62,1.56.7,2.43.01.17.02.36.02.55h0Z"></path><path class="cls-14" d="M275.63,159.51c0,3.64-2.94,6.59-6.58,6.59s-6.59-2.95-6.59-6.59c0-.19.01-.37.02-.55.07-.87.31-1.69.7-2.43h11.73c.38.74.62,1.56.7,2.43.01.17.02.36.02.55h0Z"></path><rect class="cls-10" x="246.48" y="156.53" width="31.26" height="2.43"></rect></g><g id="bubble_3"><path class="cls-24" d="M335.42,237.56v31.16c0,6.07-4.92,11-11,11h-28.26l-6.3,11.74-4.49-11.74h-98.42c-6.09,0-11.01-4.92-11.01-11v-31.16c0-6.07,4.92-11,11.01-11h137.47c6.07,0,11,4.92,11,11h0Z"></path><path class="cls-27" d="M327.25,230.12v31.16c0,6.07-4.92,11-11,11h-28.26l-6.3,11.74-4.49-11.74h-98.42c-6.09,0-11.01-4.92-11.01-11v-31.16c0-6.07,4.92-11,11.01-11h137.47c6.07,0,11,4.92,11,11Z"></path><rect class="cls-26" x="188.36" y="237.05" width="80.83" height="5.12"></rect><rect class="cls-26" x="188.36" y="249.67" width="35.78" height="5.12"></rect><rect class="cls-26" x="228.78" y="249.67" width="35.78" height="5.12"></rect><circle class="cls-26" cx="298.78" cy="244.27" r="18.52"></circle><rect class="cls-27" x="292.01" y="241.74" width="20.25" height="4.63" transform="translate(-84.67 208.99) rotate(-33.75)"></rect><rect class="cls-27" x="291.38" y="240.21" width="4.63" height="10.49" transform="translate(-86.87 204.53) rotate(-33.75)"></rect></g></svg>