<svg transform="scale(1)" id="_0584_approval_3" xmlns="http://www.w3.org/2000/svg" xmlns:xlink="http://www.w3.org/1999/xlink" viewBox="0 60 500 380" class="show_show__wrapper__graphic__5Waiy "><title>React</title><defs><style>.cls-1{fill:url(#linear-gradient);}.cls-1,.cls-2,.cls-3,.cls-4,.cls-5,.cls-6,.cls-7,.cls-8,.cls-9,.cls-10,.cls-11,.cls-12{stroke-width:0px;}.cls-2{opacity:.51;}.cls-2,.cls-3,.cls-4{isolation:isolate;}.cls-2,.cls-3,.cls-12{fill:#059e96;}.cls-3{opacity:.18;}.cls-4{fill:#fff;opacity:.3;}.cls-5{fill:url(#linear-gradient-4);}.cls-6{fill:url(#linear-gradient-2);}.cls-7{fill:url(#linear-gradient-3);}.cls-8{fill:url(#linear-gradient-7);}.cls-9{fill:url(#linear-gradient-5);}.cls-10{fill:url(#linear-gradient-6);}.cls-11{fill:#ffb08b;}</style><linearGradient id="linear-gradient" x1="354.05" y1="4938.86" x2="158.99" y2="4680.99" gradientTransform="translate(-56 5070) scale(1 -1)" gradientUnits="userSpaceOnUse"><stop offset="0" stop-color="#000"></stop><stop offset=".08" stop-color="#000" stop-opacity=".69"></stop><stop offset=".21" stop-color="#000" stop-opacity=".32"></stop><stop offset="1" stop-color="#000" stop-opacity="0"></stop></linearGradient><linearGradient id="linear-gradient-2" x1="136.18" y1="4882.34" x2="197.78" y2="4882.34" gradientTransform="translate(-56 5070) scale(1 -1)" gradientUnits="userSpaceOnUse"><stop offset="0" stop-color="#fff"></stop><stop offset="1" stop-color="#f4f2f4"></stop></linearGradient><linearGradient id="linear-gradient-3" x1="246.1" y1="4919.39" x2="136.67" y2="4870.86" xlink:href="#linear-gradient"></linearGradient><linearGradient id="linear-gradient-4" x1="156.7" y1="4818.55" x2="403.09" y2="4818.55" xlink:href="#linear-gradient-2"></linearGradient><linearGradient id="linear-gradient-5" x1="-2916.9" y1="4807.88" x2="-2831.14" y2="4807.88" gradientTransform="translate(-2564.97 5070) rotate(-180)" xlink:href="#linear-gradient"></linearGradient><linearGradient id="linear-gradient-6" x1="-5185.24" y1="946.88" x2="-5261.52" y2="872.67" gradientTransform="translate(-2964.71 4392.02) rotate(118.95) scale(1 -1)" xlink:href="#linear-gradient"></linearGradient><linearGradient id="linear-gradient-7" x1="374.91" y1="4984.44" x2="432.63" y2="4836.64" xlink:href="#linear-gradient"></linearGradient></defs><path class="cls-3" id="background" d="M468.22,227.44c-.74,13.27-4.51,24.42-10.82,35.66-6.58,11.75-15.93,23.58-27.47,38-36.94,46.21-102.38,128.07-205.08,126.83-6.36-.08-112.28-3-164.92-85.8C-5.73,238.91,57.57,83.92,114.36,73.53c25.48-4.67,34.05,22.68,82.25,29.77,56.5,8.31,74.18-24.93,123.63-23.15,62.4,2.23,129.18,58.57,144.78,117.51,2.62,9.7,3.7,19.75,3.2,29.78Z"></path><g id="paper"><polygon class="cls-12" points="141.71 211.7 87.15 234.54 159.47 412.16 321.86 361.41 235.21 191.4 141.71 211.7"></polygon><path class="cls-1" d="M142.55,206.63l-6.76,8.46-11.85,5.07s24.11,131.53,57.94,162.82l47.79-20.3-87.12-156.05Z"></path><path class="cls-6" d="M84.2,212.36l57.58-13.73s-8.35-43.32-41.08-34.5-16.51,48.23-16.51,48.23h.01Z"></path><path class="cls-7" d="M84.2,212.36l57.58-13.73s-8.35-43.32-41.08-34.5-16.51,48.23-16.51,48.23h.01Z"></path><path class="cls-5" d="M100.7,164.13c34.81-4.9,35.15,32.88,35.15,32.88,8.37,119.72,60.19,183.62,60.19,183.62l151.05-44.88s-30.54-70.73-39.11-136.22c-3.83-29.24-12.29-48.6-20.49-61.07-8.54-13.02-24.49-19.04-39.5-14.91l-147.29,40.58Z"></path><path class="cls-2" d="M261.54,147.44l-103.24,27.48c-1.3.27-2.57-.57-2.83-1.87,0-.03-.01-.06-.02-.08l-.22-.94c-.37-1.32.36-2.7,1.66-3.14l103.25-27.48c1.29-.26,2.55.57,2.82,1.87,0,.04.02.09.02.13l.22.94c.34,1.31-.38,2.66-1.66,3.09Z"></path><path class="cls-2" d="M266.09,166.99l-103.25,27.47c-1.29.27-2.56-.56-2.82-1.86,0-.03-.01-.06-.02-.08l-.22-.94c-.38-1.32.35-2.71,1.66-3.15l103.24-27.47c1.3-.27,2.57.57,2.83,1.87,0,.03.01.06.02.08l.22.94c.36,1.32-.36,2.7-1.66,3.14Z"></path><path class="cls-2" d="M270.63,186.53l-103.27,27.48c-1.29.27-2.56-.57-2.82-1.86,0-.03-.01-.06-.02-.09l-.22-.94c-.38-1.32.36-2.71,1.66-3.14l103.27-27.45c1.3-.26,2.57.58,2.83,1.88,0,.04.02.08.02.12l.21.93c.33,1.3-.39,2.63-1.66,3.07Z"></path><path class="cls-2" d="M275.18,206.09l-103.24,27.44c-1.3.27-2.57-.57-2.83-1.87,0-.03-.01-.06-.02-.08l-.22-.94c-.36-1.32.36-2.7,1.66-3.14l103.25-27.47c1.29-.27,2.56.56,2.82,1.86,0,.03.01.06.02.08l.22.94c.39,1.33-.34,2.74-1.66,3.18Z"></path><path class="cls-2" d="M279.73,225.63l-103.25,27.47c-1.29.27-2.55-.55-2.82-1.84,0-.03-.01-.07-.02-.1l-.22-.94c-.37-1.32.36-2.71,1.66-3.15l103.28-27.47c1.3-.26,2.57.58,2.83,1.88,0,.04.02.08.02.12l.22.94c.34,1.32-.41,2.67-1.7,3.09Z"></path><path class="cls-2" d="M265.04,250.3l-84.58,22.5c-.96.2-1.91-.42-2.11-1.38,0-.02,0-.05-.01-.07l-.08-.32c-.28-.99.27-2.02,1.24-2.35l84.58-22.5c.96-.2,1.91.42,2.11,1.38,0,.02,0,.05.01.07l.08.32c.28.99-.27,2.02-1.24,2.35Z"></path><path class="cls-2" d="M227.16,285.22c-16.35,4.31-26.13,22.87-21.8,41.37,4.33,18.5,21,29.94,37.38,25.59,16.38-4.35,26.15-22.88,21.85-41.36-4.3-18.48-21.06-29.96-37.43-25.6ZM241.67,347.58c-14.11,3.76-28.57-6.12-32.31-22.05-3.74-15.93,4.73-31.94,18.84-35.69s28.58,6.12,32.29,22.08c3.71,15.96-4.69,31.9-18.82,35.66Z"></path><polygon class="cls-12" points="217.42 322.39 233.46 332.98 250.94 302.49 246.47 299.43 231.07 323.63 220.95 316.7 217.42 322.39"></polygon></g><g id="stamp"><path class="cls-12" d="M271.65,222.19c-10.75,7.78-5.2,33.79,12.39,58.09,17.59,24.3,40.55,37.69,51.3,29.91,1.95-1.41,15-10.4,16-12.89,4.07-11.25-13.94-25.3-28.34-45.19-15.06-20.81-24.33-41.81-36.23-40.18-2.04.28-13.57,9.14-15.12,10.26Z"></path><path class="cls-9" d="M271.65,222.19c-10.75,7.78-5.2,33.79,12.39,58.09,17.59,24.3,40.55,37.69,51.3,29.91,1.95-1.41,15-10.4,16-12.89,4.07-11.25-13.94-25.3-28.34-45.19-15.06-20.81-24.33-41.81-36.23-40.18-2.04.28-13.57,9.14-15.12,10.26Z"></path><path class="cls-12" d="M286.21,250.88c3.17,6.92,7.03,13.5,11.51,19.65,17.59,24.3,40.56,37.7,51.31,29.92,10.75-7.78,5.2-33.79-12.38-58.09-3.62-5.01-7.63-9.73-12-14.1-15-15-30.92-21.91-39.35-15.81-7.8,5.67-6.94,21.08.91,38.43Z"></path><path class="cls-4" d="M286.21,250.88c-.23-2.39-.39-4.76-.49-7.14-.13-3.17.52-5.71,1-8.78.51-3.69.31-6.94,3-9.91,2.21-2.4,5.22-3.92,8.47-4.28,4.55-.53,9.16,1,13.07,3.41,3.82,2.55,7.36,5.51,10.53,8.84-.18-1.64,1-3.11,2.29-4.19.22-.2.45-.39.69-.57-15-15-30.92-21.91-39.35-15.81-7.92,5.67-7.06,21.08.79,38.43Z"></path><path class="cls-12" d="M392.85,236.53c-4.08,8.41-13.24,14.21-22.68,13.66s-15.35,3.34-22.17,9.85c-5.61,5.36-11.37,11.13-13.52,18.57-8.84-4.74-16.08-11.99-20.8-20.84-4.54-8.87-5.88-19.49-2.9-29,4.36,1.6,9.02,2.23,13.65,1.87,10.27-.75,20.28-6.08,24.76-15.3,5.84-12.05,20.35-17.08,32.4-11.24,0,0,.01,0,.02,0,.62.3,1.24.64,1.83,1,10.82,6.44,14.91,20.09,9.41,31.42Z"></path><path class="cls-4" d="M383.44,205.09c-5.11,1-11.51,2.7-12.69,3.13-6.86,2.52-13.03,6.64-18,12-3.11,3.37-5.26,7.58-9.76,9.29-2.5.9-5.16,1.22-7.8.94-1-.09-2.08-.24-3.12-.23-2.23,0-4.38.87-6.61,1.08-.54.05-.81-.26-1.11-.65,2.16-.47,4.39-.55,6.55-1.14,2.18-.58,4.3-1.39,6.32-2.41,4.01-1.99,7.46-4.93,10.06-8.57.72-1.03,1.36-2.11,1.91-3.24,5.84-12.05,20.35-17.08,32.4-11.24,0,0,.01,0,.02,0,.62.34,1.24.68,1.83,1.03Z"></path><path class="cls-10" d="M395.26,224.87c.18,4.03-.65,8.03-2.41,11.66-4.08,8.39-13.24,14.2-22.68,13.66s-15.35,3.33-22.16,9.84c-5.61,5.36-11.37,11.13-13.53,18.58-8.84-4.75-16.07-12-20.8-20.85-4.53-8.87-5.88-19.49-2.9-29-.19.62,8.71,1.89,9.51,1.92,2.16.11,4.44.66,6.57.42,2.6-.46,5.16-1.13,7.66-2,4.96-1.32,9.73-3.26,14.21-5.77,5.59-3.3,10.32-7.84,15-12.35.89,4.1,1.03,8.33.39,12.48-.79,4.11-3,8.1-6.5,10.33-1.08.68-2.35,1.27-2.9,2.42-2.1,4.38,8.19,1.39,9.64,1,5.42-1.53,10.75-4.29,13.95-8.93,3.2-4.64,3.66-11.45,0-15.72-.45-.45-.83-.96-1.12-1.52-.4-1.45.34-2.97,1.72-3.56,1.38-.51,2.91-.48,4.27.08,3.5,1.35,6.4,3.91,8.17,7.22,1.8,3.22,3.75,6.38,3.91,10.09Z"></path></g><g id="hand"><path class="cls-11" d="M468.22,227.44c-.74,13.27-4.51,24.42-10.82,35.66l-12.16.93c-7.63.58-15.41,1.21-23,.12-6.71-.95-11.72-3.8-18.59-3.86-15.34-.14-30.66,3.44-46,.82-.8-.07-1.57-.37-2.2-.87-1.22-1.18-.54-3.25.37-4.69,3.68-5.82,9.91-9.64,16.4-11.93,6.49-2.29,13.38-3.26,20.13-4.63,1.55-.21,3.04-.75,4.37-1.58,1.19-1,2.17-2.24,2.86-3.64,3.65-6.23,7.4-13.77,4.38-20.33-2.51-5.45-8.16-7.25-12.69-10.5-5.27-3.78-6.5-5.56-13-1.65l-14.59,8.75c-.92.49-1.75,1.13-2.45,1.91-.69,1.02-1.18,2.17-1.42,3.38-1.73,6.09-4.62,12.11-9.61,16-4.99,3.89-12.43,5.12-17.7,1.61-.85-.48-1.49-1.24-1.81-2.16-.13-1.21.23-2.43,1-3.38,2.57-4.07,5.65-7.83,7.88-12.1,3.15-6.06,4.44-12.88,6.34-19.44,2.3-7.96,5.54-15.62,9.64-22.82,1-1.79,2.17-3.63,4-4.63,1.36-.66,2.84-1.05,4.35-1.16,7.38-1,14-2.55,21.51-2.63,14.05,0,26.74-1.4,38.62,4.24,2.15,1.03,4.2,2.25,6.13,3.65l34.87,25.13c2.62,9.7,3.7,19.76,3.19,29.8Z"></path><path class="cls-8" d="M342.48,208.43s11.42-26.33,15.88-27.9,18.08-10.15,18.08-10.15l-19.67,4.76s-9.19,14.27-9.51,16.18c-.32,1.91-4.78,17.11-4.78,17.11Z"></path></g><g id="effect"><path class="cls-12" d="M170.12,298.53l2.5-2.67c.24-.31.56-.54.92-.68.31-.08.64-.08.95,0,2.98.76,5.83,1.97,8.45,3.59,2.15,1.22,5.31,2.38,7,4-2.35.95-6.13-.45-8.46-1-1.21-.24-10.96-3.65-11.36-3.24Z"></path><path class="cls-12" d="M177.11,327.8l-1.09-3.5c-.14-.36-.19-.75-.14-1.13.1-.31.28-.59.51-.81,2.13-2.22,4.59-4.1,7.3-5.57,2.12-1.26,4.69-3.44,7-4.15-.35,2.52-3.43,5.11-5.05,6.86-.91.96-8.7,7.74-8.53,8.3Z"></path><path class="cls-12" d="M181.2,279.87l3.61-.62c.37-.11.77-.11,1.14,0,.29.14.55.34.74.6,1.92,2.42,3.45,5.12,4.55,8,1,2.27,2.8,5.1,3.2,7.45-2.45-.67-4.61-4.07-6.13-5.91-.83-1-6.53-9.62-7.11-9.52Z"></path></g></svg>