<?xml version="1.0" encoding="us-ascii" standalone="no"?><svg xmlns="http://www.w3.org/2000/svg" xmlns:xlink="http://www.w3.org/1999/xlink" contentStyleType="text/css" height="1346.875px" preserveAspectRatio="none" style="width:665px;height:1346px;" version="1.1" viewBox="0 0 665 1346" width="665.625px" zoomAndPan="magnify"><defs/><g><rect fill="none" height="46.873" id="_title" rx="4.1667" ry="4.1667" style="stroke:#BABDBF;stroke-width:1.0416666666666667;" width="229.1667" x="221.875" y="20.8333"/><text fill="#2FA4E7" font-family="Arial" font-size="20.8333" font-weight="bold" lengthAdjust="spacing" textLength="206.25" x="233.3333" y="51.8331">Messaging Use Case</text><rect fill="none" height="627.6876" rx="4.1667" ry="4.1667" style="stroke:#2FA4E7;stroke-width:1.0416666666666667;" width="632.2917" x="20.8333" y="316.8681"/><rect fill="none" height="418.5282" rx="4.1667" ry="4.1667" style="stroke:#2FA4E7;stroke-width:1.0416666666666667;" width="611.4583" x="31.25" y="452.4882"/><rect fill="none" height="181.0343" rx="4.1667" ry="4.1667" style="stroke:#2FA4E7;stroke-width:1.0416666666666667;" width="368.75" x="95.8333" y="1051.4282"/><line style="stroke:#BABDBF;stroke-width:1.0416666666666667;stroke-dasharray:5.0,5.0;" x1="68.75" x2="68.75" y1="167.4967" y2="1250.1709"/><line style="stroke:#BABDBF;stroke-width:1.0416666666666667;stroke-dasharray:5.0,5.0;" x1="133.3333" x2="133.3333" y1="167.4967" y2="1250.1709"/><line style="stroke:#BABDBF;stroke-width:1.0416666666666667;stroke-dasharray:5.0,5.0;" x1="355.2083" x2="355.2083" y1="167.4967" y2="1250.1709"/><text fill="#2FA4E7" font-family="Arial" font-size="12.5" lengthAdjust="spacing" textLength="37.5" x="46.875" y="159.6395">User 1</text><ellipse cx="68.75" cy="88.5396" fill="none" rx="8.3333" ry="8.3333" style="stroke:#2FA4E7;stroke-width:1.0416666666666667;"/><path d="M68.75,96.873 L68.75,124.998 M55.2083,105.2063 L82.2917,105.2063 M68.75,124.998 L55.2083,140.623 M68.75,124.998 L82.2917,140.623 " fill="none" style="stroke:#2FA4E7;stroke-width:1.0416666666666667;"/><text fill="#2FA4E7" font-family="Arial" font-size="12.5" lengthAdjust="spacing" textLength="37.5" x="46.875" y="1266.0624">User 1</text><ellipse cx="68.75" cy="1283.2947" fill="none" rx="8.3333" ry="8.3333" style="stroke:#2FA4E7;stroke-width:1.0416666666666667;"/><path d="M68.75,1291.628 L68.75,1319.753 M55.2083,1299.9613 L82.2917,1299.9613 M68.75,1319.753 L55.2083,1335.378 M68.75,1319.753 L82.2917,1335.378 " fill="none" style="stroke:#2FA4E7;stroke-width:1.0416666666666667;"/><text fill="#2FA4E7" font-family="Arial" font-size="12.5" lengthAdjust="spacing" textLength="37.5" x="111.4583" y="159.6395">User 2</text><ellipse cx="133.3333" cy="88.5396" fill="none" rx="8.3333" ry="8.3333" style="stroke:#2FA4E7;stroke-width:1.0416666666666667;"/><path d="M133.3333,96.873 L133.3333,124.998 M119.7917,105.2063 L146.875,105.2063 M133.3333,124.998 L119.7917,140.623 M133.3333,124.998 L146.875,140.623 " fill="none" style="stroke:#2FA4E7;stroke-width:1.0416666666666667;"/><text fill="#2FA4E7" font-family="Arial" font-size="12.5" lengthAdjust="spacing" textLength="37.5" x="111.4583" y="1266.0624">User 2</text><ellipse cx="133.3333" cy="1283.2947" fill="none" rx="8.3333" ry="8.3333" style="stroke:#2FA4E7;stroke-width:1.0416666666666667;"/><path d="M133.3333,1291.628 L133.3333,1319.753 M119.7917,1299.9613 L146.875,1299.9613 M133.3333,1319.753 L119.7917,1335.378 M133.3333,1319.753 L146.875,1335.378 " fill="none" style="stroke:#2FA4E7;stroke-width:1.0416666666666667;"/><rect fill="none" height="39.3738" rx="4.1667" ry="4.1667" style="stroke:#2FA4E7;stroke-width:1.0416666666666667;" width="114.5833" x="297.9167" y="127.0813"/><text fill="#2FA4E7" font-family="Arial" font-size="12.5" lengthAdjust="spacing" textLength="89.5833" x="310.4167" y="151.3062">FreEcu Website</text><rect fill="none" height="39.3738" rx="4.1667" ry="4.1667" style="stroke:#2FA4E7;stroke-width:1.0416666666666667;" width="114.5833" x="297.9167" y="1249.1292"/><text fill="#2FA4E7" font-family="Arial" font-size="12.5" lengthAdjust="spacing" textLength="89.5833" x="310.4167" y="1273.3541">FreEcu Website</text><polygon fill="#2FA4E7" points="342.7083,204.7872,353.125,208.9539,342.7083,213.1205,346.875,208.9539" style="stroke:#2FA4E7;stroke-width:1.0416666666666667;"/><line style="stroke:#2FA4E7;stroke-width:3.125;" x1="68.75" x2="348.9583" y1="208.9539" y2="208.9539"/><text fill="#343A40" font-family="Arial" font-size="12.5" lengthAdjust="spacing" textLength="167.7083" x="81.25" y="199.0133">Navigate to /find-people page</text><line style="stroke:#2FA4E7;stroke-width:3.125;" x1="355.2083" x2="398.9583" y1="248.3276" y2="248.3276"/><line style="stroke:#2FA4E7;stroke-width:3.125;" x1="398.9583" x2="398.9583" y1="248.3276" y2="261.8693"/><line style="stroke:#2FA4E7;stroke-width:3.125;" x1="356.25" x2="398.9583" y1="261.8693" y2="261.8693"/><polygon fill="#2FA4E7" points="366.6667,257.7026,356.25,261.8693,366.6667,266.036,362.5,261.8693" style="stroke:#2FA4E7;stroke-width:1.0416666666666667;"/><text fill="#343A40" font-family="Arial" font-size="12.5" lengthAdjust="spacing" textLength="136.4583" x="367.7083" y="238.387">Display search interface</text><polygon fill="#2FA4E7" points="342.7083,297.0764,353.125,301.2431,342.7083,305.4097,346.875,301.2431" style="stroke:#2FA4E7;stroke-width:1.0416666666666667;"/><line style="stroke:#2FA4E7;stroke-width:3.125;" x1="68.75" x2="348.9583" y1="301.2431" y2="301.2431"/><text fill="#343A40" font-family="Arial" font-size="12.5" lengthAdjust="spacing" textLength="86.4583" x="81.25" y="291.3025">Perform search</text><path d="M25,316.8681 L92.7083,316.8681 L92.7083,333.3252 L82.2917,343.7419 L20.8333,343.7419 L20.8333,321.0347 A4.1667,4.1667 0 0 1 25,316.8681 " fill="#E9ECEF" style="stroke:#868E96;stroke-width:1.0416666666666667;"/><rect fill="none" height="627.6876" rx="4.1667" ry="4.1667" style="stroke:#2FA4E7;stroke-width:1.0416666666666667;" width="632.2917" x="20.8333" y="316.8681"/><text fill="#033C73" font-family="Arial" font-size="12.5" font-weight="bold" lengthAdjust="spacing" textLength="14.5833" x="41.6667" y="334.8429">alt</text><text fill="#343A40" font-family="Arial" font-size="12.5" font-weight="bold" lengthAdjust="spacing" textLength="77.0833" x="113.5417" y="335.8846">[User Found]</text><polygon fill="#2FA4E7" points="342.7083,379.7811,353.125,383.9478,342.7083,388.1144,346.875,383.9478" style="stroke:#2FA4E7;stroke-width:1.0416666666666667;"/><line style="stroke:#2FA4E7;stroke-width:3.125;" x1="68.75" x2="348.9583" y1="383.9478" y2="383.9478"/><text fill="#343A40" font-family="Arial" font-size="12.5" lengthAdjust="spacing" textLength="190.625" x="81.25" y="374.0072">Click on 'Send Message' to a user</text><line style="stroke:#2FA4E7;stroke-width:3.125;" x1="355.2083" x2="398.9583" y1="423.3215" y2="423.3215"/><line style="stroke:#2FA4E7;stroke-width:3.125;" x1="398.9583" x2="398.9583" y1="423.3215" y2="436.8632"/><line style="stroke:#2FA4E7;stroke-width:3.125;" x1="356.25" x2="398.9583" y1="436.8632" y2="436.8632"/><polygon fill="#2FA4E7" points="366.6667,432.6965,356.25,436.8632,366.6667,441.0299,362.5,436.8632" style="stroke:#2FA4E7;stroke-width:1.0416666666666667;"/><text fill="#343A40" font-family="Arial" font-size="12.5" lengthAdjust="spacing" textLength="175" x="367.7083" y="413.3809">Check if chat with User 2 exists</text><path d="M35.4167,452.4882 L103.125,452.4882 L103.125,468.9453 L92.7083,479.362 L31.25,479.362 L31.25,456.6549 A4.1667,4.1667 0 0 1 35.4167,452.4882 " fill="#E9ECEF" style="stroke:#868E96;stroke-width:1.0416666666666667;"/><rect fill="none" height="418.5282" rx="4.1667" ry="4.1667" style="stroke:#2FA4E7;stroke-width:1.0416666666666667;" width="611.4583" x="31.25" y="452.4882"/><text fill="#033C73" font-family="Arial" font-size="12.5" font-weight="bold" lengthAdjust="spacing" textLength="14.5833" x="52.0833" y="470.4631">alt</text><text fill="#343A40" font-family="Arial" font-size="12.5" font-weight="bold" lengthAdjust="spacing" textLength="77.0833" x="123.9583" y="471.5047">[Chat Exists]</text><line style="stroke:#2FA4E7;stroke-width:3.125;" x1="355.2083" x2="398.9583" y1="519.5679" y2="519.5679"/><line style="stroke:#2FA4E7;stroke-width:3.125;" x1="398.9583" x2="398.9583" y1="519.5679" y2="533.1095"/><line style="stroke:#2FA4E7;stroke-width:3.125;" x1="356.25" x2="398.9583" y1="533.1095" y2="533.1095"/><polygon fill="#2FA4E7" points="366.6667,528.9429,356.25,533.1095,366.6667,537.2762,362.5,533.1095" style="stroke:#2FA4E7;stroke-width:1.0416666666666667;"/><text fill="#343A40" font-family="Arial" font-size="12.5" lengthAdjust="spacing" textLength="162.5" x="367.7083" y="509.6273">Display "Chat already exists"</text><polygon fill="#2FA4E7" points="342.7083,568.3167,353.125,572.4833,342.7083,576.65,346.875,572.4833" style="stroke:#2FA4E7;stroke-width:1.0416666666666667;"/><line style="stroke:#2FA4E7;stroke-width:3.125;" x1="68.75" x2="348.9583" y1="572.4833" y2="572.4833"/><text fill="#343A40" font-family="Arial" font-size="12.5" lengthAdjust="spacing" textLength="114.5833" x="81.25" y="562.5427">Click on "Go to chat"</text><polygon fill="#2FA4E7" points="80.2083,607.6904,69.7917,611.8571,80.2083,616.0238,76.0417,611.8571" style="stroke:#2FA4E7;stroke-width:1.0416666666666667;"/><line style="stroke:#2FA4E7;stroke-width:3.125;" x1="73.9583" x2="354.1667" y1="611.8571" y2="611.8571"/><text fill="#343A40" font-family="Arial" font-size="12.5" lengthAdjust="spacing" textLength="163.5417" x="91.6667" y="601.9165">Display existing chat session</text><line style="stroke:#2FA4E7;stroke-width:1.0416666666666667;stroke-dasharray:2.0,2.0;" x1="31.25" x2="642.7083" y1="621.2321" y2="621.2321"/><text fill="#343A40" font-family="Arial" font-size="12.5" font-weight="bold" lengthAdjust="spacing" textLength="96.875" x="41.6667" y="638.1653">[No Chat Exists]</text><line style="stroke:#2FA4E7;stroke-width:3.125;" x1="355.2083" x2="398.9583" y1="678.1047" y2="678.1047"/><line style="stroke:#2FA4E7;stroke-width:3.125;" x1="398.9583" x2="398.9583" y1="678.1047" y2="691.6463"/><line style="stroke:#2FA4E7;stroke-width:3.125;" x1="356.25" x2="398.9583" y1="691.6463" y2="691.6463"/><polygon fill="#2FA4E7" points="366.6667,687.4797,356.25,691.6463,366.6667,695.813,362.5,691.6463" style="stroke:#2FA4E7;stroke-width:1.0416666666666667;"/><text fill="#343A40" font-family="Arial" font-size="12.5" lengthAdjust="spacing" textLength="148.9583" x="367.7083" y="668.1641">Display new message box</text><polygon fill="#2FA4E7" points="342.7083,726.8534,353.125,731.0201,342.7083,735.1868,346.875,731.0201" style="stroke:#2FA4E7;stroke-width:1.0416666666666667;"/><line style="stroke:#2FA4E7;stroke-width:3.125;" x1="68.75" x2="348.9583" y1="731.0201" y2="731.0201"/><text fill="#343A40" font-family="Arial" font-size="12.5" lengthAdjust="spacing" textLength="231.25" x="81.25" y="721.0795">Fill out message box with initial message</text><polygon fill="#2FA4E7" points="342.7083,766.2272,353.125,770.3939,342.7083,774.5605,346.875,770.3939" style="stroke:#2FA4E7;stroke-width:1.0416666666666667;"/><line style="stroke:#2FA4E7;stroke-width:3.125;" x1="68.75" x2="348.9583" y1="770.3939" y2="770.3939"/><text fill="#343A40" font-family="Arial" font-size="12.5" lengthAdjust="spacing" textLength="65.625" x="81.25" y="760.4533">Click 'Send'</text><line style="stroke:#2FA4E7;stroke-width:3.125;" x1="355.2083" x2="398.9583" y1="809.7677" y2="809.7677"/><line style="stroke:#2FA4E7;stroke-width:3.125;" x1="398.9583" x2="398.9583" y1="809.7677" y2="823.3093"/><line style="stroke:#2FA4E7;stroke-width:3.125;" x1="356.25" x2="398.9583" y1="823.3093" y2="823.3093"/><polygon fill="#2FA4E7" points="366.6667,819.1427,356.25,823.3093,366.6667,827.476,362.5,823.3093" style="stroke:#2FA4E7;stroke-width:1.0416666666666667;"/><text fill="#343A40" font-family="Arial" font-size="12.5" lengthAdjust="spacing" textLength="257.2917" x="367.7083" y="799.8271">Create new chat session at /messages/chatID</text><polygon fill="#2FA4E7" points="80.2083,858.5164,69.7917,862.6831,80.2083,866.8498,76.0417,862.6831" style="stroke:#2FA4E7;stroke-width:1.0416666666666667;"/><line style="stroke:#2FA4E7;stroke-width:3.125;" x1="73.9583" x2="354.1667" y1="862.6831" y2="862.6831"/><text fill="#343A40" font-family="Arial" font-size="12.5" lengthAdjust="spacing" textLength="206.25" x="91.6667" y="852.7425">Display new /messages/chatID page</text><line style="stroke:#2FA4E7;stroke-width:1.0416666666666667;stroke-dasharray:2.0,2.0;" x1="20.8333" x2="653.125" y1="879.3498" y2="879.3498"/><text fill="#343A40" font-family="Arial" font-size="12.5" font-weight="bold" lengthAdjust="spacing" textLength="101.0417" x="31.25" y="896.283">[User Not Found]</text><polygon fill="#2FA4E7" points="80.2083,932.0557,69.7917,936.2223,80.2083,940.389,76.0417,936.2223" style="stroke:#2FA4E7;stroke-width:1.0416666666666667;"/><line style="stroke:#2FA4E7;stroke-width:3.125;" x1="73.9583" x2="354.1667" y1="936.2223" y2="936.2223"/><text fill="#343A40" font-family="Arial" font-size="12.5" lengthAdjust="spacing" textLength="191.6667" x="91.6667" y="926.2817">Display 'No User Found' message</text><polygon fill="#2FA4E7" points="342.7083,978.7211,353.125,982.8878,342.7083,987.0544,346.875,982.8878" style="stroke:#2FA4E7;stroke-width:1.0416666666666667;"/><line style="stroke:#2FA4E7;stroke-width:3.125;" x1="133.3333" x2="348.9583" y1="982.8878" y2="982.8878"/><text fill="#343A40" font-family="Arial" font-size="12.5" lengthAdjust="spacing" textLength="168.75" x="145.8333" y="972.9472">Navigate to /messages/chatID</text><line style="stroke:#2FA4E7;stroke-width:3.125;" x1="355.2083" x2="398.9583" y1="1022.2616" y2="1022.2616"/><line style="stroke:#2FA4E7;stroke-width:3.125;" x1="398.9583" x2="398.9583" y1="1022.2616" y2="1035.8032"/><line style="stroke:#2FA4E7;stroke-width:3.125;" x1="356.25" x2="398.9583" y1="1035.8032" y2="1035.8032"/><polygon fill="#2FA4E7" points="366.6667,1031.6366,356.25,1035.8032,366.6667,1039.9699,362.5,1035.8032" style="stroke:#2FA4E7;stroke-width:1.0416666666666667;"/><text fill="#343A40" font-family="Arial" font-size="12.5" lengthAdjust="spacing" textLength="232.2917" x="367.7083" y="1012.321">Display message request or existing chat</text><path d="M100,1051.4282 L167.7083,1051.4282 L167.7083,1067.8853 L157.2917,1078.302 L95.8333,1078.302 L95.8333,1055.5949 A4.1667,4.1667 0 0 1 100,1051.4282 " fill="#E9ECEF" style="stroke:#868E96;stroke-width:1.0416666666666667;"/><rect fill="none" height="181.0343" rx="4.1667" ry="4.1667" style="stroke:#2FA4E7;stroke-width:1.0416666666666667;" width="368.75" x="95.8333" y="1051.4282"/><text fill="#033C73" font-family="Arial" font-size="12.5" font-weight="bold" lengthAdjust="spacing" textLength="14.5833" x="116.6667" y="1069.4031">alt</text><text fill="#343A40" font-family="Arial" font-size="12.5" font-weight="bold" lengthAdjust="spacing" textLength="118.75" x="188.5417" y="1070.4447">[New Chat Request]</text><polygon fill="#2FA4E7" points="342.7083,1114.3412,353.125,1118.5079,342.7083,1122.6746,346.875,1118.5079" style="stroke:#2FA4E7;stroke-width:1.0416666666666667;"/><line style="stroke:#2FA4E7;stroke-width:3.125;" x1="133.3333" x2="348.9583" y1="1118.5079" y2="1118.5079"/><text fill="#343A40" font-family="Arial" font-size="12.5" lengthAdjust="spacing" textLength="142.7083" x="145.8333" y="1108.5673">Click on 'Accept Request'</text><polygon fill="#2FA4E7" points="144.7917,1153.715,134.375,1157.8817,144.7917,1162.0483,140.625,1157.8817" style="stroke:#2FA4E7;stroke-width:1.0416666666666667;"/><line style="stroke:#2FA4E7;stroke-width:3.125;" x1="138.5417" x2="354.1667" y1="1157.8817" y2="1157.8817"/><text fill="#343A40" font-family="Arial" font-size="12.5" lengthAdjust="spacing" textLength="132.2917" x="156.25" y="1147.9411">Open new chat session</text><line style="stroke:#2FA4E7;stroke-width:1.0416666666666667;stroke-dasharray:2.0,2.0;" x1="95.8333" x2="464.5833" y1="1167.2567" y2="1167.2567"/><text fill="#343A40" font-family="Arial" font-size="12.5" font-weight="bold" lengthAdjust="spacing" textLength="87.5" x="106.25" y="1184.1899">[Existing Chat]</text><polygon fill="#2FA4E7" points="144.7917,1219.9626,134.375,1224.1292,144.7917,1228.2959,140.625,1224.1292" style="stroke:#2FA4E7;stroke-width:1.0416666666666667;"/><line style="stroke:#2FA4E7;stroke-width:3.125;" x1="138.5417" x2="354.1667" y1="1224.1292" y2="1224.1292"/><text fill="#343A40" font-family="Arial" font-size="12.5" lengthAdjust="spacing" textLength="186.4583" x="156.25" y="1214.1886">Continue in existing chat session</text><!--SRC=[ZLHDZvim4BtxLqovS8gYSDn3fIsRL3sKLgtGdcTX4aRhsDGstTr_tx791w5iLGx8ijyyltdpu4Few4ZGa1iqeLdP8MWsfFmpcnuT7g6bFGuwxAm95GhqtZ5g5JXeWg_aFHxO7A3s12LwKWgRO1raik5Wam5wg3StcyMuMIZX3znmZoP0jdEqRGPuf2VFWHBaSVj9gNe3guznUGSL_kO31e9WORrdqwvwiht8wF50IY0Nv0FxNkCRU4BNTC0caDjZGrEsxx9btV644TqwGDAtiuDf5SWpGPUQcsUm1lAVPDfJuvH7AGY3bAM2gOQo8wdWFJGT1dZXq8tq1T0h- -1JGNh5cyi8sbuFvcpdZh84HEq8sxSJKtQfM1ASVRPHPLIHpQdhpPKvSSLH9hrU6cHhKW5f6Mvb_rkZeHSuZWR1atrTKhTZhK6oDiMD7h7X804x7xpVMXf4lYYa57Sa9b77j1cGvVh4wzVnvCl3lno9zNFycBNaoYaaAjcJHblPC4dF0cCkBbupbb-QZ5ogBfQJFbUyPFdPHaU_1l81v6ExcMTAToNzf1d-655Znek5ZDyt3VKNN7xJJd47tteoVxax-h0ztnelcjULyWzXCv0C-PsuHIF-0000]--></g></svg>